G75*
%MOIN*%
%OFA0B0*%
%FSLAX24Y24*%
%IPPOS*%
%LPD*%
%AMOC8*
5,1,8,0,0,1.08239X$1,22.5*
%
%ADD10C,0.0000*%
%ADD11R,0.0436X0.0436*%
%ADD12C,0.0436*%
%ADD13OC8,0.0560*%
%ADD14C,0.0554*%
%ADD15C,0.0520*%
%ADD16C,0.0600*%
%ADD17C,0.0118*%
%ADD18C,0.0240*%
%ADD19C,0.0197*%
%ADD20C,0.0317*%
%ADD21C,0.0100*%
D10*
X001150Y001150D02*
X001150Y020150D01*
X020150Y020150D01*
X020150Y001150D01*
X001150Y001150D01*
D11*
X002150Y018400D03*
X012800Y018400D03*
D12*
X013300Y018400D03*
X013800Y018400D03*
X013800Y018900D03*
X013300Y018900D03*
X012800Y018900D03*
X014300Y018900D03*
X014800Y018900D03*
X014800Y018400D03*
X014300Y018400D03*
X004150Y018400D03*
X004150Y018900D03*
X003650Y018900D03*
X003650Y018400D03*
X003150Y018400D03*
X003150Y018900D03*
X002650Y018900D03*
X002650Y018400D03*
X002150Y018900D03*
D13*
X013650Y015650D03*
X014650Y015650D03*
X014650Y014650D03*
X013650Y014650D03*
X015650Y014650D03*
X015650Y015650D03*
X016650Y015650D03*
X017650Y015650D03*
X017650Y014650D03*
X016650Y014650D03*
X016650Y010650D03*
X017650Y010650D03*
X017650Y009650D03*
X016650Y009650D03*
X015650Y009650D03*
X015650Y010650D03*
X012650Y005650D03*
X012650Y004650D03*
X011650Y004650D03*
X010650Y004650D03*
X010650Y005650D03*
X011650Y005650D03*
X009650Y005650D03*
X009650Y004650D03*
X008650Y004650D03*
X008650Y005650D03*
X007650Y005650D03*
X006650Y005650D03*
X006650Y004650D03*
X007650Y004650D03*
X005650Y004650D03*
X005650Y005650D03*
X004650Y005650D03*
X003650Y005650D03*
X003650Y004650D03*
X004650Y004650D03*
D14*
X004469Y009756D03*
X003681Y009756D03*
X002894Y009756D03*
X002107Y009756D03*
X002107Y010544D03*
X002894Y010544D03*
X003681Y010544D03*
X004469Y010544D03*
X005256Y010544D03*
X005256Y009756D03*
X006044Y009756D03*
X006831Y009756D03*
X007619Y009756D03*
X008406Y009756D03*
X009193Y009756D03*
X009193Y010544D03*
X008406Y010544D03*
X007619Y010544D03*
X006831Y010544D03*
X006044Y010544D03*
X005225Y014756D03*
X005225Y015544D03*
X004437Y015544D03*
X003650Y015544D03*
X003650Y014756D03*
X004437Y014756D03*
X002863Y014756D03*
X002863Y015544D03*
X002075Y015544D03*
X002075Y014756D03*
D15*
X012650Y011910D02*
X012650Y011390D01*
X012650Y008910D02*
X012650Y008390D01*
D16*
X010650Y015350D02*
X010650Y015950D01*
X009650Y015950D02*
X009650Y015350D01*
D17*
X007744Y017587D02*
X007744Y012124D01*
X007597Y011731D02*
X007351Y011977D01*
X007351Y012272D01*
X007498Y012420D01*
X007498Y013256D01*
X007400Y013355D01*
X007400Y017587D01*
X005825Y017587D01*
X004890Y016652D01*
X004890Y016012D01*
X004447Y015569D01*
X004437Y015544D01*
X003660Y015569D02*
X003650Y015544D01*
X003660Y015569D02*
X004644Y016554D01*
X004644Y016750D01*
X005038Y017144D01*
X005038Y018620D01*
X005431Y019014D01*
X005038Y018965D02*
X005038Y019556D01*
X004644Y019162D02*
X004546Y019063D01*
X004546Y017439D01*
X004004Y016898D01*
X004398Y016849D02*
X004398Y016750D01*
X003660Y016012D01*
X002085Y016012D01*
X002085Y015569D01*
X002075Y015544D01*
X004437Y014756D02*
X004447Y014733D01*
X004447Y014093D01*
X006268Y014093D01*
X005973Y014930D02*
X005973Y014979D01*
X006022Y015028D01*
X006022Y016504D01*
X006367Y016849D01*
X005825Y017587D02*
X005825Y019949D01*
X004595Y019949D01*
X003709Y019063D01*
X003709Y018965D01*
X003660Y018916D01*
X003650Y018900D01*
X003150Y018900D02*
X003119Y018916D01*
X003069Y018965D01*
X003069Y019506D01*
X002676Y019900D01*
X004792Y018719D02*
X004792Y017243D01*
X004398Y016849D01*
X004792Y018719D02*
X005038Y018965D01*
X006317Y019014D02*
X007744Y017587D01*
X005973Y014930D02*
X007105Y013798D01*
X007105Y013109D01*
X007597Y011731D02*
X009762Y011731D01*
X009959Y011928D01*
X010500Y011928D01*
X010500Y010746D01*
X010254Y010500D01*
X010254Y006957D01*
X009713Y007351D02*
X009910Y007548D01*
X009910Y011288D01*
X009959Y011337D01*
X009664Y011042D02*
X009664Y009565D01*
X009221Y009122D01*
X007498Y009122D01*
X007474Y009098D01*
X006859Y009713D01*
X006831Y009756D01*
X007474Y009098D02*
X008187Y008384D01*
X008187Y005431D01*
X008483Y005136D01*
X009615Y005136D01*
X009615Y004693D01*
X009650Y004650D01*
X009664Y004595D01*
X009664Y003365D01*
X013355Y003365D01*
X012124Y003758D02*
X012124Y005825D01*
X010943Y007006D01*
X010943Y009369D01*
X011091Y009516D01*
X011091Y010746D01*
X010894Y010943D01*
X009664Y011042D02*
X008827Y011042D01*
X011337Y009221D02*
X011337Y007744D01*
X013109Y005973D01*
X013109Y005038D01*
X015815Y005038D01*
X018128Y007351D01*
X018128Y016111D01*
X017489Y016111D01*
X015963Y017636D01*
X015963Y019309D01*
X014634Y019309D01*
X014388Y019063D01*
X014388Y018965D01*
X014339Y018916D01*
X014300Y018900D01*
X013896Y018965D02*
X013847Y018916D01*
X013800Y018900D01*
X013896Y018965D02*
X013896Y019802D01*
X013800Y018400D02*
X013798Y018374D01*
X013798Y016160D01*
X014191Y015766D01*
X014191Y012813D01*
X014339Y012666D01*
X014339Y005431D01*
X015422Y005431D02*
X015422Y009418D01*
X015619Y009615D01*
X015650Y009650D01*
X016160Y010107D02*
X016160Y014191D01*
X015422Y014191D01*
X015176Y014437D01*
X015176Y016209D01*
X014585Y016800D01*
X014437Y017193D02*
X016061Y017193D01*
X016061Y016898D01*
X017144Y015815D01*
X017144Y015176D01*
X017636Y014683D01*
X017650Y014650D01*
X017144Y014831D02*
X016849Y015126D01*
X016111Y015126D01*
X015668Y014683D01*
X015650Y014650D01*
X016160Y014191D02*
X016603Y014191D01*
X016603Y014634D01*
X016650Y014650D01*
X017144Y014831D02*
X017144Y010500D01*
X017390Y010254D01*
X017390Y009910D01*
X017650Y009650D01*
X017636Y009615D01*
X017390Y009369D01*
X017390Y008532D01*
X017144Y008827D02*
X016209Y007892D01*
X016209Y005973D01*
X015815Y006367D02*
X015815Y008827D01*
X016603Y009615D01*
X016650Y009650D01*
X016603Y009664D01*
X016160Y010107D01*
X016650Y010650D02*
X017144Y010156D01*
X017144Y008827D01*
X016111Y015126D02*
X016111Y015865D01*
X015717Y016258D01*
X014437Y017193D02*
X014191Y016947D01*
X014191Y016406D01*
X013404Y016947D02*
X013404Y018276D01*
X013306Y018374D01*
X013300Y018400D01*
X005256Y009756D02*
X005284Y009713D01*
X007154Y007843D01*
X007154Y005185D01*
X007646Y004693D01*
X007650Y004650D01*
X006650Y004650D02*
X006613Y004693D01*
X006170Y005136D01*
X006170Y008040D01*
X004496Y009713D01*
X004469Y009756D01*
X003709Y009713D02*
X003681Y009756D01*
X003709Y009713D02*
X004743Y008680D01*
X004743Y006219D01*
X005185Y005776D01*
X005185Y005136D01*
X005628Y004693D01*
X005650Y004650D01*
X005678Y004644D01*
X007449Y002872D01*
X010156Y005185D02*
X010648Y004693D01*
X010650Y004650D01*
X010156Y005185D02*
X010156Y005825D01*
X009270Y006711D01*
X009270Y007154D01*
X009122Y007302D01*
D18*
X009122Y007302D03*
X009713Y007351D03*
X010254Y006957D03*
X011337Y009221D03*
X010894Y010943D03*
X009959Y011337D03*
X008827Y011042D03*
X007744Y012124D03*
X007105Y013109D03*
X006268Y014093D03*
X005973Y014979D03*
X006367Y016849D03*
X006317Y019014D03*
X005431Y019014D03*
X005038Y019556D03*
X004644Y019162D03*
X002676Y019900D03*
X004004Y016898D03*
X013404Y016947D03*
X014191Y016406D03*
X014585Y016800D03*
X015717Y016258D03*
X013896Y019802D03*
X017390Y008532D03*
X015815Y006367D03*
X016209Y005973D03*
X015422Y005431D03*
X014339Y005431D03*
X013355Y003365D03*
X012124Y003758D03*
X007449Y002872D03*
D19*
X008650Y005650D02*
X008680Y005678D01*
X008680Y008483D01*
X008483Y010550D02*
X008406Y010544D01*
X008384Y010550D01*
X007695Y010550D01*
X007619Y010544D01*
X007597Y010550D01*
X006908Y010550D01*
X006831Y010544D01*
X006809Y010550D01*
X006120Y010550D01*
X006044Y010544D01*
X006022Y010550D01*
X005333Y010550D01*
X005256Y010544D01*
X005235Y010550D01*
X004546Y010550D01*
X004469Y010544D01*
X004447Y010550D01*
X003758Y010550D01*
X003681Y010544D01*
X003660Y010550D01*
X002922Y010550D01*
X002894Y010544D01*
X002922Y010648D01*
X002922Y014683D01*
X002863Y014756D01*
X002872Y014782D01*
X003611Y014782D01*
X003650Y014756D01*
X005225Y014756D02*
X005235Y014782D01*
X005235Y014831D01*
X005727Y015323D01*
X005727Y016898D01*
X004103Y018227D02*
X004103Y018374D01*
X004150Y018400D01*
X004103Y018227D02*
X003807Y017931D01*
X003168Y017931D01*
X003168Y018325D01*
X003150Y018400D01*
X003119Y018424D01*
X002676Y018424D01*
X002650Y018400D01*
X008483Y010550D02*
X009172Y010550D01*
X009193Y010544D01*
X013650Y015650D02*
X013650Y015668D01*
X012321Y016996D01*
X012321Y019359D01*
X012961Y019359D01*
X013256Y019063D01*
X013256Y018916D01*
X013300Y018900D01*
X002872Y008975D02*
X002134Y009713D01*
X002107Y009756D01*
X002872Y008975D02*
X002872Y006465D01*
X003611Y005727D01*
X003650Y005650D01*
X003660Y005628D01*
X003660Y004693D01*
X003650Y004650D01*
D20*
X006677Y007498D03*
X007002Y008948D03*
X008680Y008483D03*
X005502Y012448D03*
X002502Y012448D03*
X005727Y016898D03*
X010002Y012948D03*
X014977Y011398D03*
X016652Y012998D03*
X016277Y008673D03*
X014977Y007898D03*
X017227Y007398D03*
X016502Y003948D03*
D21*
X015909Y004811D02*
X016043Y004944D01*
X018356Y007257D01*
X020000Y007257D01*
X020000Y007159D02*
X018257Y007159D01*
X018356Y007257D02*
X018356Y016205D01*
X018222Y016338D01*
X017583Y016338D01*
X016190Y017730D01*
X016190Y019404D01*
X016057Y019537D01*
X014540Y019537D01*
X014407Y019404D01*
X014290Y019286D01*
X014223Y019286D01*
X014123Y019245D01*
X014123Y019510D01*
X014207Y019594D01*
X014263Y019729D01*
X014263Y019875D01*
X014211Y020000D01*
X020000Y020000D01*
X020000Y001300D01*
X001300Y001300D01*
X001300Y020000D01*
X002320Y020000D01*
X002309Y019973D01*
X002309Y019827D01*
X002365Y019692D01*
X002468Y019589D01*
X002603Y019533D01*
X002721Y019533D01*
X002842Y019412D01*
X002842Y019238D01*
X002727Y019286D01*
X002573Y019286D01*
X002431Y019227D01*
X002400Y019196D01*
X002369Y019227D01*
X002227Y019286D01*
X002073Y019286D01*
X001931Y019227D01*
X001823Y019119D01*
X001764Y018977D01*
X001764Y018823D01*
X001803Y018727D01*
X001764Y018688D01*
X001764Y018112D01*
X001862Y018014D01*
X002438Y018014D01*
X002491Y018067D01*
X002543Y018046D01*
X002614Y018032D01*
X002641Y018032D01*
X002641Y018391D01*
X002659Y018391D01*
X002659Y018032D01*
X002686Y018032D01*
X002757Y018046D01*
X002824Y018074D01*
X002885Y018114D01*
X002900Y018129D01*
X002915Y018114D01*
X002976Y018074D01*
X003043Y018046D01*
X003114Y018032D01*
X003141Y018032D01*
X003141Y018391D01*
X003159Y018391D01*
X003159Y018032D01*
X003186Y018032D01*
X003257Y018046D01*
X003324Y018074D01*
X003385Y018114D01*
X003387Y018117D01*
X003431Y018073D01*
X003573Y018014D01*
X003727Y018014D01*
X003869Y018073D01*
X003913Y018117D01*
X003915Y018114D01*
X003976Y018074D01*
X004043Y018046D01*
X004114Y018032D01*
X004141Y018032D01*
X004141Y018391D01*
X004159Y018391D01*
X004159Y018032D01*
X004186Y018032D01*
X004257Y018046D01*
X004319Y018071D01*
X004319Y017533D01*
X004050Y017265D01*
X003931Y017265D01*
X003797Y017209D01*
X003693Y017106D01*
X003637Y016971D01*
X003637Y016825D01*
X003693Y016690D01*
X003797Y016587D01*
X003879Y016553D01*
X003566Y016239D01*
X001991Y016239D01*
X001858Y016106D01*
X001858Y015936D01*
X001823Y015921D01*
X001698Y015796D01*
X001630Y015632D01*
X001630Y015455D01*
X001698Y015291D01*
X001823Y015166D01*
X001862Y015150D01*
X001823Y015134D01*
X001698Y015009D01*
X001630Y014845D01*
X001630Y014668D01*
X001698Y014504D01*
X001823Y014379D01*
X001987Y014311D01*
X002164Y014311D01*
X002327Y014379D01*
X002453Y014504D01*
X002479Y014568D01*
X002497Y014532D01*
X002537Y014478D01*
X002584Y014430D01*
X002639Y014391D01*
X002699Y014360D01*
X002763Y014340D01*
X002824Y014330D01*
X002824Y014718D01*
X002901Y014718D01*
X002901Y014795D01*
X003611Y014795D01*
X003611Y014718D01*
X003224Y014718D01*
X002901Y014718D01*
X002901Y014330D01*
X002963Y014340D01*
X003027Y014360D01*
X003086Y014391D01*
X003141Y014430D01*
X003188Y014478D01*
X003228Y014532D01*
X003256Y014588D01*
X003285Y014532D01*
X003324Y014478D01*
X003372Y014430D01*
X003426Y014391D01*
X003486Y014360D01*
X003550Y014340D01*
X003611Y014330D01*
X003611Y014718D01*
X003689Y014718D01*
X003689Y014330D01*
X003750Y014340D01*
X003814Y014360D01*
X003874Y014391D01*
X003928Y014430D01*
X003976Y014478D01*
X004015Y014532D01*
X004033Y014568D01*
X004060Y014504D01*
X004185Y014379D01*
X004220Y014364D01*
X004220Y013999D01*
X004353Y013866D01*
X005976Y013866D01*
X006060Y013782D01*
X006195Y013726D01*
X006341Y013726D01*
X006476Y013782D01*
X006579Y013885D01*
X006613Y013968D01*
X006878Y013704D01*
X006878Y013400D01*
X006794Y013316D01*
X006738Y013182D01*
X006738Y013036D01*
X006794Y012901D01*
X006897Y012798D01*
X007032Y012742D01*
X007178Y012742D01*
X007271Y012781D01*
X007271Y012514D01*
X007257Y012499D01*
X007124Y012366D01*
X007124Y011883D01*
X007370Y011637D01*
X007503Y011504D01*
X009631Y011504D01*
X009592Y011410D01*
X009592Y011269D01*
X009119Y011269D01*
X009035Y011353D01*
X008900Y011409D01*
X008754Y011409D01*
X008619Y011353D01*
X008516Y011250D01*
X008460Y011115D01*
X008460Y010969D01*
X008461Y010967D01*
X008444Y010970D01*
X008444Y010582D01*
X008367Y010582D01*
X008367Y010505D01*
X007980Y010505D01*
X007657Y010505D01*
X007657Y010582D01*
X008367Y010582D01*
X008367Y010970D01*
X008306Y010960D01*
X008242Y010940D01*
X008182Y010909D01*
X008128Y010870D01*
X008080Y010822D01*
X008041Y010768D01*
X008012Y010712D01*
X007984Y010768D01*
X007944Y010822D01*
X007897Y010870D01*
X007842Y010909D01*
X007782Y010940D01*
X007719Y010960D01*
X007657Y010970D01*
X007657Y010582D01*
X007580Y010582D01*
X007580Y010505D01*
X007192Y010505D01*
X006870Y010505D01*
X006870Y010582D01*
X007580Y010582D01*
X007580Y010970D01*
X007518Y010960D01*
X007455Y010940D01*
X007395Y010909D01*
X007340Y010870D01*
X007293Y010822D01*
X007253Y010768D01*
X007225Y010712D01*
X007196Y010768D01*
X007157Y010822D01*
X007109Y010870D01*
X007055Y010909D01*
X006995Y010940D01*
X006931Y010960D01*
X006870Y010970D01*
X006870Y010582D01*
X006793Y010582D01*
X006793Y010970D01*
X006731Y010960D01*
X006667Y010940D01*
X006607Y010909D01*
X006553Y010870D01*
X006505Y010822D01*
X006466Y010768D01*
X006437Y010712D01*
X006409Y010768D01*
X006370Y010822D01*
X006322Y010870D01*
X006268Y010909D01*
X006208Y010940D01*
X006144Y010960D01*
X006082Y010970D01*
X006082Y010582D01*
X006793Y010582D01*
X006793Y010505D01*
X006405Y010505D01*
X006082Y010505D01*
X006082Y010582D01*
X006005Y010582D01*
X006005Y010505D01*
X005617Y010505D01*
X005295Y010505D01*
X005295Y010582D01*
X006005Y010582D01*
X006005Y010970D01*
X005944Y010960D01*
X005880Y010940D01*
X005820Y010909D01*
X005765Y010870D01*
X005718Y010822D01*
X005678Y010768D01*
X005650Y010712D01*
X005622Y010768D01*
X005582Y010822D01*
X005535Y010870D01*
X005480Y010909D01*
X005420Y010940D01*
X005356Y010960D01*
X005295Y010970D01*
X005295Y010582D01*
X005218Y010582D01*
X005218Y010505D01*
X004830Y010505D01*
X004507Y010505D01*
X004507Y010582D01*
X004430Y010582D01*
X004430Y010505D01*
X004043Y010505D01*
X003720Y010505D01*
X003720Y010582D01*
X004430Y010582D01*
X004430Y010970D01*
X004369Y010960D01*
X004305Y010940D01*
X004245Y010909D01*
X004191Y010870D01*
X004143Y010822D01*
X004104Y010768D01*
X004075Y010712D01*
X004047Y010768D01*
X004007Y010822D01*
X003960Y010870D01*
X003905Y010909D01*
X003845Y010940D01*
X003782Y010960D01*
X003720Y010970D01*
X003720Y010582D01*
X003643Y010582D01*
X003643Y010505D01*
X003255Y010505D01*
X002933Y010505D01*
X002933Y010582D01*
X003643Y010582D01*
X003643Y010970D01*
X003581Y010960D01*
X003518Y010940D01*
X003458Y010909D01*
X003403Y010870D01*
X003356Y010822D01*
X003316Y010768D01*
X003288Y010712D01*
X003259Y010768D01*
X003220Y010822D01*
X003172Y010870D01*
X003118Y010909D01*
X003058Y010940D01*
X002994Y010960D01*
X002933Y010970D01*
X002933Y010582D01*
X002856Y010582D01*
X002856Y010970D01*
X002794Y010960D01*
X002730Y010940D01*
X002670Y010909D01*
X002616Y010870D01*
X002568Y010822D01*
X002529Y010768D01*
X002511Y010732D01*
X002484Y010796D01*
X002359Y010921D01*
X002195Y010989D01*
X002018Y010989D01*
X001854Y010921D01*
X001729Y010796D01*
X001661Y010632D01*
X001661Y010455D01*
X001729Y010291D01*
X001854Y010166D01*
X001894Y010150D01*
X001854Y010134D01*
X001729Y010009D01*
X001661Y009845D01*
X001661Y009668D01*
X001729Y009504D01*
X001854Y009379D01*
X002018Y009311D01*
X002159Y009311D01*
X002606Y008864D01*
X002606Y006412D01*
X002646Y006314D01*
X002721Y006239D01*
X003202Y005759D01*
X003202Y005464D01*
X003393Y005273D01*
X003393Y005027D01*
X003202Y004836D01*
X003202Y004464D01*
X003464Y004202D01*
X003836Y004202D01*
X004098Y004464D01*
X004098Y004836D01*
X003926Y005007D01*
X003926Y005293D01*
X004098Y005464D01*
X004098Y005836D01*
X003836Y006098D01*
X003616Y006098D01*
X003139Y006575D01*
X003139Y009028D01*
X003098Y009126D01*
X002913Y009311D01*
X002983Y009311D01*
X003146Y009379D01*
X003272Y009504D01*
X003288Y009543D01*
X003304Y009504D01*
X003429Y009379D01*
X003593Y009311D01*
X003770Y009311D01*
X003784Y009317D01*
X004515Y008585D01*
X004515Y006125D01*
X004560Y006080D01*
X004472Y006080D01*
X004220Y005828D01*
X004220Y005690D01*
X004610Y005690D01*
X004610Y005610D01*
X004690Y005610D01*
X004690Y005220D01*
X004828Y005220D01*
X004958Y005350D01*
X004958Y005042D01*
X005202Y004799D01*
X005202Y004464D01*
X005464Y004202D01*
X005799Y004202D01*
X007082Y002918D01*
X007082Y002799D01*
X007138Y002665D01*
X007241Y002561D01*
X007376Y002506D01*
X007522Y002506D01*
X007657Y002561D01*
X007760Y002665D01*
X007816Y002799D01*
X007816Y002945D01*
X007760Y003080D01*
X007657Y003183D01*
X007522Y003239D01*
X007404Y003239D01*
X006098Y004545D01*
X006098Y004836D01*
X005836Y005098D01*
X005545Y005098D01*
X005413Y005230D01*
X005413Y005279D01*
X005472Y005220D01*
X005610Y005220D01*
X005610Y005610D01*
X005690Y005610D01*
X005690Y005220D01*
X005828Y005220D01*
X005943Y005334D01*
X005943Y005042D01*
X006202Y004783D01*
X006202Y004464D01*
X006464Y004202D01*
X006836Y004202D01*
X007098Y004464D01*
X007098Y004836D01*
X006836Y005098D01*
X006529Y005098D01*
X006397Y005230D01*
X006397Y005295D01*
X006472Y005220D01*
X006610Y005220D01*
X006610Y005610D01*
X006690Y005610D01*
X006690Y005220D01*
X006828Y005220D01*
X006927Y005319D01*
X006927Y005091D01*
X007202Y004816D01*
X007202Y004464D01*
X007464Y004202D01*
X007836Y004202D01*
X008098Y004464D01*
X008098Y004836D01*
X007836Y005098D01*
X007563Y005098D01*
X007381Y005280D01*
X007381Y005311D01*
X007472Y005220D01*
X007610Y005220D01*
X007610Y005610D01*
X007690Y005610D01*
X007690Y005220D01*
X007828Y005220D01*
X007960Y005352D01*
X007960Y005337D01*
X008256Y005042D01*
X008332Y004966D01*
X008202Y004836D01*
X008202Y004464D01*
X008464Y004202D01*
X008836Y004202D01*
X009098Y004464D01*
X009098Y004836D01*
X009025Y004909D01*
X009275Y004909D01*
X009202Y004836D01*
X009202Y004464D01*
X009437Y004230D01*
X009437Y003270D01*
X009570Y003137D01*
X013063Y003137D01*
X013147Y003054D01*
X013282Y002998D01*
X013428Y002998D01*
X013563Y003054D01*
X013666Y003157D01*
X013722Y003292D01*
X013722Y003438D01*
X013666Y003572D01*
X013563Y003676D01*
X013428Y003731D01*
X013282Y003731D01*
X013147Y003676D01*
X013063Y003592D01*
X012453Y003592D01*
X012491Y003685D01*
X012491Y003831D01*
X012435Y003966D01*
X012352Y004050D01*
X012352Y004315D01*
X012464Y004202D01*
X012836Y004202D01*
X013098Y004464D01*
X013098Y004811D01*
X015909Y004811D01*
X015992Y004893D02*
X020000Y004893D01*
X020000Y004795D02*
X013098Y004795D01*
X013098Y004696D02*
X020000Y004696D01*
X020000Y004598D02*
X013098Y004598D01*
X013098Y004499D02*
X020000Y004499D01*
X020000Y004401D02*
X013034Y004401D01*
X012936Y004302D02*
X020000Y004302D01*
X020000Y004204D02*
X012837Y004204D01*
X012463Y004204D02*
X012352Y004204D01*
X012352Y004302D02*
X012364Y004302D01*
X012352Y004105D02*
X020000Y004105D01*
X020000Y004007D02*
X012395Y004007D01*
X012459Y003908D02*
X020000Y003908D01*
X020000Y003810D02*
X012491Y003810D01*
X012491Y003711D02*
X013232Y003711D01*
X013084Y003613D02*
X012461Y003613D01*
X011796Y003592D02*
X009891Y003592D01*
X009891Y004257D01*
X010098Y004464D01*
X010098Y004836D01*
X009842Y005092D01*
X009842Y005230D01*
X009840Y005232D01*
X009929Y005321D01*
X009929Y005091D01*
X010202Y004818D01*
X010202Y004464D01*
X010464Y004202D01*
X010836Y004202D01*
X011098Y004464D01*
X011098Y004836D01*
X010836Y005098D01*
X010564Y005098D01*
X010383Y005280D01*
X010383Y005309D01*
X010472Y005220D01*
X010610Y005220D01*
X010610Y005610D01*
X010690Y005610D01*
X010690Y005690D01*
X010610Y005690D01*
X010610Y006080D01*
X010472Y006080D01*
X010347Y005955D01*
X010250Y006052D01*
X009497Y006805D01*
X009497Y007048D01*
X009505Y007040D01*
X009640Y006984D01*
X009786Y006984D01*
X009887Y007026D01*
X009887Y006884D01*
X009943Y006749D01*
X010047Y006646D01*
X010181Y006590D01*
X010327Y006590D01*
X010462Y006646D01*
X010565Y006749D01*
X010621Y006884D01*
X010621Y007030D01*
X010565Y007165D01*
X010481Y007249D01*
X010481Y010406D01*
X010594Y010519D01*
X010594Y010519D01*
X010701Y010626D01*
X010821Y010576D01*
X010864Y010576D01*
X010864Y009610D01*
X010849Y009596D01*
X010716Y009463D01*
X010716Y006912D01*
X011548Y006080D01*
X011472Y006080D01*
X011220Y005828D01*
X011220Y005690D01*
X011610Y005690D01*
X011610Y005610D01*
X011690Y005610D01*
X011690Y005220D01*
X011828Y005220D01*
X011897Y005289D01*
X011897Y005036D01*
X011836Y005098D01*
X011464Y005098D01*
X011202Y004836D01*
X011202Y004464D01*
X011464Y004202D01*
X011836Y004202D01*
X011897Y004264D01*
X011897Y004050D01*
X011813Y003966D01*
X011758Y003831D01*
X011758Y003685D01*
X011796Y003592D01*
X011788Y003613D02*
X009891Y003613D01*
X009891Y003711D02*
X011758Y003711D01*
X011758Y003810D02*
X009891Y003810D01*
X009891Y003908D02*
X011789Y003908D01*
X011854Y004007D02*
X009891Y004007D01*
X009891Y004105D02*
X011897Y004105D01*
X011897Y004204D02*
X011837Y004204D01*
X011463Y004204D02*
X010837Y004204D01*
X010936Y004302D02*
X011364Y004302D01*
X011266Y004401D02*
X011034Y004401D01*
X011098Y004499D02*
X011202Y004499D01*
X011202Y004598D02*
X011098Y004598D01*
X011098Y004696D02*
X011202Y004696D01*
X011202Y004795D02*
X011098Y004795D01*
X011041Y004893D02*
X011259Y004893D01*
X011358Y004992D02*
X010942Y004992D01*
X010844Y005090D02*
X011456Y005090D01*
X011472Y005220D02*
X011610Y005220D01*
X011610Y005610D01*
X011220Y005610D01*
X011220Y005472D01*
X011472Y005220D01*
X011405Y005287D02*
X010895Y005287D01*
X010828Y005220D02*
X011080Y005472D01*
X011080Y005610D01*
X010690Y005610D01*
X010690Y005220D01*
X010828Y005220D01*
X010690Y005287D02*
X010610Y005287D01*
X010610Y005386D02*
X010690Y005386D01*
X010690Y005484D02*
X010610Y005484D01*
X010610Y005583D02*
X010690Y005583D01*
X010690Y005681D02*
X011610Y005681D01*
X011610Y005583D02*
X011690Y005583D01*
X011690Y005484D02*
X011610Y005484D01*
X011610Y005386D02*
X011690Y005386D01*
X011690Y005287D02*
X011610Y005287D01*
X011895Y005287D02*
X011897Y005287D01*
X011897Y005189D02*
X010474Y005189D01*
X010405Y005287D02*
X010383Y005287D01*
X010029Y004992D02*
X009942Y004992D01*
X009930Y005090D02*
X009844Y005090D01*
X009842Y005189D02*
X009929Y005189D01*
X009929Y005287D02*
X009895Y005287D01*
X010041Y004893D02*
X010127Y004893D01*
X010098Y004795D02*
X010202Y004795D01*
X010202Y004696D02*
X010098Y004696D01*
X010098Y004598D02*
X010202Y004598D01*
X010202Y004499D02*
X010098Y004499D01*
X010034Y004401D02*
X010266Y004401D01*
X010364Y004302D02*
X009936Y004302D01*
X009891Y004204D02*
X010463Y004204D01*
X009437Y004204D02*
X008837Y004204D01*
X008936Y004302D02*
X009364Y004302D01*
X009266Y004401D02*
X009034Y004401D01*
X009098Y004499D02*
X009202Y004499D01*
X009202Y004598D02*
X009098Y004598D01*
X009098Y004696D02*
X009202Y004696D01*
X009202Y004795D02*
X009098Y004795D01*
X009041Y004893D02*
X009259Y004893D01*
X009329Y005363D02*
X008971Y005363D01*
X009080Y005472D01*
X009080Y005610D01*
X008690Y005610D01*
X008690Y005690D01*
X008610Y005690D01*
X008610Y006080D01*
X008472Y006080D01*
X008415Y006023D01*
X008415Y008478D01*
X008281Y008611D01*
X007998Y008895D01*
X009315Y008895D01*
X009448Y009028D01*
X009683Y009263D01*
X009683Y007718D01*
X009640Y007718D01*
X009505Y007662D01*
X009402Y007559D01*
X009397Y007546D01*
X009330Y007613D01*
X009195Y007668D01*
X009049Y007668D01*
X008915Y007613D01*
X008811Y007509D01*
X008756Y007375D01*
X008756Y007229D01*
X008811Y007094D01*
X008915Y006991D01*
X009043Y006937D01*
X009043Y006617D01*
X009580Y006080D01*
X009472Y006080D01*
X009220Y005828D01*
X009220Y005690D01*
X009610Y005690D01*
X009610Y005610D01*
X009220Y005610D01*
X009220Y005472D01*
X009329Y005363D01*
X009306Y005386D02*
X008994Y005386D01*
X009080Y005484D02*
X009220Y005484D01*
X009220Y005583D02*
X009080Y005583D01*
X009080Y005690D02*
X009080Y005828D01*
X008828Y006080D01*
X008690Y006080D01*
X008690Y005690D01*
X009080Y005690D01*
X009080Y005780D02*
X009220Y005780D01*
X009270Y005878D02*
X009030Y005878D01*
X008932Y005977D02*
X009368Y005977D01*
X009467Y006075D02*
X008833Y006075D01*
X008690Y006075D02*
X008610Y006075D01*
X008610Y005977D02*
X008690Y005977D01*
X008690Y005878D02*
X008610Y005878D01*
X008610Y005780D02*
X008690Y005780D01*
X008690Y005681D02*
X009610Y005681D01*
X009486Y006174D02*
X008415Y006174D01*
X008415Y006272D02*
X009388Y006272D01*
X009289Y006371D02*
X008415Y006371D01*
X008415Y006469D02*
X009191Y006469D01*
X009092Y006568D02*
X008415Y006568D01*
X008415Y006666D02*
X009043Y006666D01*
X009043Y006765D02*
X008415Y006765D01*
X008415Y006863D02*
X009043Y006863D01*
X008985Y006962D02*
X008415Y006962D01*
X008415Y007060D02*
X008845Y007060D01*
X008785Y007159D02*
X008415Y007159D01*
X008415Y007257D02*
X008756Y007257D01*
X008756Y007356D02*
X008415Y007356D01*
X008415Y007454D02*
X008789Y007454D01*
X008855Y007553D02*
X008415Y007553D01*
X008415Y007651D02*
X009007Y007651D01*
X009237Y007651D02*
X009494Y007651D01*
X009399Y007553D02*
X009390Y007553D01*
X009683Y007750D02*
X008415Y007750D01*
X008415Y007848D02*
X009683Y007848D01*
X009683Y007947D02*
X008415Y007947D01*
X008415Y008045D02*
X009683Y008045D01*
X009683Y008144D02*
X008415Y008144D01*
X008415Y008242D02*
X009683Y008242D01*
X009683Y008341D02*
X008415Y008341D01*
X008415Y008439D02*
X009683Y008439D01*
X009683Y008538D02*
X008355Y008538D01*
X008257Y008636D02*
X009683Y008636D01*
X009683Y008735D02*
X008158Y008735D01*
X008060Y008833D02*
X009683Y008833D01*
X009683Y008932D02*
X009351Y008932D01*
X009450Y009030D02*
X009683Y009030D01*
X009683Y009129D02*
X009548Y009129D01*
X009647Y009227D02*
X009683Y009227D01*
X010481Y009227D02*
X010716Y009227D01*
X010716Y009129D02*
X010481Y009129D01*
X010481Y009030D02*
X010716Y009030D01*
X010716Y008932D02*
X010481Y008932D01*
X010481Y008833D02*
X010716Y008833D01*
X010716Y008735D02*
X010481Y008735D01*
X010481Y008636D02*
X010716Y008636D01*
X010716Y008538D02*
X010481Y008538D01*
X010481Y008439D02*
X010716Y008439D01*
X010716Y008341D02*
X010481Y008341D01*
X010481Y008242D02*
X010716Y008242D01*
X010716Y008144D02*
X010481Y008144D01*
X010481Y008045D02*
X010716Y008045D01*
X010716Y007947D02*
X010481Y007947D01*
X010481Y007848D02*
X010716Y007848D01*
X010716Y007750D02*
X010481Y007750D01*
X010481Y007651D02*
X010716Y007651D01*
X010716Y007553D02*
X010481Y007553D01*
X010481Y007454D02*
X010716Y007454D01*
X010716Y007356D02*
X010481Y007356D01*
X010481Y007257D02*
X010716Y007257D01*
X010716Y007159D02*
X010568Y007159D01*
X010609Y007060D02*
X010716Y007060D01*
X010716Y006962D02*
X010621Y006962D01*
X010612Y006863D02*
X010765Y006863D01*
X010864Y006765D02*
X010572Y006765D01*
X010482Y006666D02*
X010962Y006666D01*
X011061Y006568D02*
X009735Y006568D01*
X009636Y006666D02*
X010027Y006666D01*
X009937Y006765D02*
X009538Y006765D01*
X009497Y006863D02*
X009896Y006863D01*
X009887Y006962D02*
X009497Y006962D01*
X009833Y006469D02*
X011159Y006469D01*
X011258Y006371D02*
X009932Y006371D01*
X010030Y006272D02*
X011356Y006272D01*
X011455Y006174D02*
X010129Y006174D01*
X010227Y006075D02*
X010467Y006075D01*
X010368Y005977D02*
X010326Y005977D01*
X010610Y005977D02*
X010690Y005977D01*
X010690Y006075D02*
X010610Y006075D01*
X010690Y006080D02*
X010690Y005690D01*
X011080Y005690D01*
X011080Y005828D01*
X010828Y006080D01*
X010690Y006080D01*
X010833Y006075D02*
X011467Y006075D01*
X011368Y005977D02*
X010932Y005977D01*
X011030Y005878D02*
X011270Y005878D01*
X011220Y005780D02*
X011080Y005780D01*
X011080Y005583D02*
X011220Y005583D01*
X011220Y005484D02*
X011080Y005484D01*
X010994Y005386D02*
X011306Y005386D01*
X011844Y005090D02*
X011897Y005090D01*
X012352Y005090D02*
X012456Y005090D01*
X012464Y005098D02*
X012352Y004985D01*
X012352Y005340D01*
X012472Y005220D01*
X012610Y005220D01*
X012610Y005610D01*
X012690Y005610D01*
X012690Y005220D01*
X012828Y005220D01*
X012881Y005273D01*
X012881Y005052D01*
X012836Y005098D01*
X012464Y005098D01*
X012352Y005189D02*
X012881Y005189D01*
X012881Y005090D02*
X012844Y005090D01*
X012690Y005287D02*
X012610Y005287D01*
X012610Y005386D02*
X012690Y005386D01*
X012690Y005484D02*
X012610Y005484D01*
X012610Y005583D02*
X012690Y005583D01*
X012690Y005690D02*
X012690Y006070D01*
X011243Y007517D01*
X011170Y007590D01*
X011170Y007100D01*
X012219Y006052D01*
X012331Y005939D01*
X012472Y006080D01*
X012610Y006080D01*
X012610Y005690D01*
X012690Y005690D01*
X012690Y005780D02*
X012610Y005780D01*
X012610Y005878D02*
X012690Y005878D01*
X012690Y005977D02*
X012610Y005977D01*
X012610Y006075D02*
X012685Y006075D01*
X012587Y006174D02*
X012097Y006174D01*
X011999Y006272D02*
X012488Y006272D01*
X012390Y006371D02*
X011900Y006371D01*
X011802Y006469D02*
X012291Y006469D01*
X012193Y006568D02*
X011703Y006568D01*
X011605Y006666D02*
X012094Y006666D01*
X011996Y006765D02*
X011506Y006765D01*
X011408Y006863D02*
X011897Y006863D01*
X011799Y006962D02*
X011309Y006962D01*
X011211Y007060D02*
X011700Y007060D01*
X011602Y007159D02*
X011170Y007159D01*
X011170Y007257D02*
X011503Y007257D01*
X011405Y007356D02*
X011170Y007356D01*
X011170Y007454D02*
X011306Y007454D01*
X011208Y007553D02*
X011170Y007553D01*
X011564Y007839D02*
X011564Y008929D01*
X011648Y009013D01*
X011704Y009148D01*
X011704Y009294D01*
X011648Y009429D01*
X011545Y009532D01*
X011410Y009588D01*
X011318Y009588D01*
X011318Y010841D01*
X011261Y010898D01*
X011261Y011016D01*
X011205Y011151D01*
X011102Y011254D01*
X010967Y011310D01*
X010821Y011310D01*
X010728Y011271D01*
X010728Y012022D01*
X010594Y012155D01*
X009865Y012155D01*
X009732Y012022D01*
X009668Y011958D01*
X008073Y011958D01*
X008111Y012051D01*
X008111Y012197D01*
X008055Y012332D01*
X007972Y012416D01*
X007972Y017681D01*
X007839Y017814D01*
X006684Y018969D01*
X006684Y019087D01*
X006628Y019222D01*
X006525Y019325D01*
X006390Y019381D01*
X006244Y019381D01*
X006110Y019325D01*
X006052Y019268D01*
X006052Y020000D01*
X013581Y020000D01*
X013529Y019875D01*
X013529Y019729D01*
X013585Y019594D01*
X013669Y019510D01*
X013669Y019264D01*
X013581Y019227D01*
X013550Y019196D01*
X013518Y019227D01*
X013434Y019262D01*
X013187Y019510D01*
X013112Y019585D01*
X013014Y019625D01*
X012268Y019625D01*
X012170Y019585D01*
X012095Y019510D01*
X012055Y019412D01*
X012055Y016943D01*
X012095Y016845D01*
X013202Y015739D01*
X013202Y015464D01*
X013464Y015202D01*
X013836Y015202D01*
X013964Y015330D01*
X013964Y014970D01*
X013836Y015098D01*
X013464Y015098D01*
X013202Y014836D01*
X013202Y014464D01*
X013464Y014202D01*
X013836Y014202D01*
X013964Y014330D01*
X013964Y012719D01*
X014112Y012572D01*
X014112Y005723D01*
X014028Y005639D01*
X013972Y005504D01*
X013972Y005359D01*
X014011Y005265D01*
X013336Y005265D01*
X013336Y006067D01*
X011564Y007839D01*
X011564Y007848D02*
X014112Y007848D01*
X014112Y007750D02*
X011653Y007750D01*
X011752Y007651D02*
X014112Y007651D01*
X014112Y007553D02*
X011850Y007553D01*
X011949Y007454D02*
X014112Y007454D01*
X014112Y007356D02*
X012047Y007356D01*
X012146Y007257D02*
X014112Y007257D01*
X014112Y007159D02*
X012244Y007159D01*
X012343Y007060D02*
X014112Y007060D01*
X014112Y006962D02*
X012441Y006962D01*
X012540Y006863D02*
X014112Y006863D01*
X014112Y006765D02*
X012638Y006765D01*
X012737Y006666D02*
X014112Y006666D01*
X014112Y006568D02*
X012835Y006568D01*
X012934Y006469D02*
X014112Y006469D01*
X014112Y006371D02*
X013032Y006371D01*
X013131Y006272D02*
X014112Y006272D01*
X014112Y006174D02*
X013229Y006174D01*
X013328Y006075D02*
X014112Y006075D01*
X014112Y005977D02*
X013336Y005977D01*
X013336Y005878D02*
X014112Y005878D01*
X014112Y005780D02*
X013336Y005780D01*
X013336Y005681D02*
X014070Y005681D01*
X014004Y005583D02*
X013336Y005583D01*
X013336Y005484D02*
X013972Y005484D01*
X013972Y005386D02*
X013336Y005386D01*
X013336Y005287D02*
X014002Y005287D01*
X014667Y005265D02*
X014706Y005359D01*
X014706Y005504D01*
X014650Y005639D01*
X014566Y005723D01*
X014566Y012760D01*
X014433Y012893D01*
X014419Y012907D01*
X014419Y014248D01*
X014464Y014202D01*
X014836Y014202D01*
X014963Y014329D01*
X015194Y014097D01*
X015328Y013964D01*
X015933Y013964D01*
X015933Y011001D01*
X015836Y011098D01*
X015464Y011098D01*
X015202Y010836D01*
X015202Y010464D01*
X015464Y010202D01*
X015836Y010202D01*
X015933Y010299D01*
X015933Y010013D01*
X016066Y009880D01*
X016202Y009743D01*
X016202Y009535D01*
X015721Y009054D01*
X015649Y008982D01*
X015649Y009202D01*
X015836Y009202D01*
X016098Y009464D01*
X016098Y009836D01*
X015836Y010098D01*
X015464Y010098D01*
X015202Y009836D01*
X015202Y009519D01*
X015194Y009512D01*
X015194Y005723D01*
X015111Y005639D01*
X015055Y005504D01*
X015055Y005359D01*
X015094Y005265D01*
X014667Y005265D01*
X014676Y005287D02*
X015084Y005287D01*
X015055Y005386D02*
X014706Y005386D01*
X014706Y005484D02*
X015055Y005484D01*
X015087Y005583D02*
X014674Y005583D01*
X014608Y005681D02*
X015152Y005681D01*
X015194Y005780D02*
X014566Y005780D01*
X014566Y005878D02*
X015194Y005878D01*
X015194Y005977D02*
X014566Y005977D01*
X014566Y006075D02*
X015194Y006075D01*
X015194Y006174D02*
X014566Y006174D01*
X014566Y006272D02*
X015194Y006272D01*
X015194Y006371D02*
X014566Y006371D01*
X014566Y006469D02*
X015194Y006469D01*
X015194Y006568D02*
X014566Y006568D01*
X014566Y006666D02*
X015194Y006666D01*
X015194Y006765D02*
X014566Y006765D01*
X014566Y006863D02*
X015194Y006863D01*
X015194Y006962D02*
X014566Y006962D01*
X014566Y007060D02*
X015194Y007060D01*
X015194Y007159D02*
X014566Y007159D01*
X014566Y007257D02*
X015194Y007257D01*
X015194Y007356D02*
X014566Y007356D01*
X014566Y007454D02*
X015194Y007454D01*
X015194Y007553D02*
X014566Y007553D01*
X014566Y007651D02*
X015194Y007651D01*
X015194Y007750D02*
X014566Y007750D01*
X014566Y007848D02*
X015194Y007848D01*
X015194Y007947D02*
X014566Y007947D01*
X014566Y008045D02*
X015194Y008045D01*
X015194Y008144D02*
X014566Y008144D01*
X014566Y008242D02*
X015194Y008242D01*
X015194Y008341D02*
X014566Y008341D01*
X014566Y008439D02*
X015194Y008439D01*
X015194Y008538D02*
X014566Y008538D01*
X014566Y008636D02*
X015194Y008636D01*
X015194Y008735D02*
X014566Y008735D01*
X014566Y008833D02*
X015194Y008833D01*
X015194Y008932D02*
X014566Y008932D01*
X014566Y009030D02*
X015194Y009030D01*
X015194Y009129D02*
X014566Y009129D01*
X014566Y009227D02*
X015194Y009227D01*
X015194Y009326D02*
X014566Y009326D01*
X014566Y009424D02*
X015194Y009424D01*
X015202Y009523D02*
X014566Y009523D01*
X014566Y009621D02*
X015202Y009621D01*
X015202Y009720D02*
X014566Y009720D01*
X014566Y009818D02*
X015202Y009818D01*
X015283Y009917D02*
X014566Y009917D01*
X014566Y010015D02*
X015381Y010015D01*
X015454Y010212D02*
X014566Y010212D01*
X014566Y010114D02*
X015933Y010114D01*
X015933Y010212D02*
X015846Y010212D01*
X015919Y010015D02*
X015933Y010015D01*
X016017Y009917D02*
X016029Y009917D01*
X016098Y009818D02*
X016127Y009818D01*
X016098Y009720D02*
X016202Y009720D01*
X016202Y009621D02*
X016098Y009621D01*
X016098Y009523D02*
X016189Y009523D01*
X016091Y009424D02*
X016058Y009424D01*
X015992Y009326D02*
X015959Y009326D01*
X015894Y009227D02*
X015861Y009227D01*
X015795Y009129D02*
X015649Y009129D01*
X015649Y009030D02*
X015697Y009030D01*
X016043Y008733D02*
X016043Y008047D01*
X016115Y008119D01*
X016917Y008921D01*
X016917Y009283D01*
X016836Y009202D01*
X016511Y009202D01*
X016043Y008733D01*
X016044Y008735D02*
X016730Y008735D01*
X016829Y008833D02*
X016142Y008833D01*
X016241Y008932D02*
X016917Y008932D01*
X016917Y009030D02*
X016339Y009030D01*
X016438Y009129D02*
X016917Y009129D01*
X016917Y009227D02*
X016861Y009227D01*
X016632Y008636D02*
X016043Y008636D01*
X016043Y008538D02*
X016533Y008538D01*
X016435Y008439D02*
X016043Y008439D01*
X016043Y008341D02*
X016336Y008341D01*
X016238Y008242D02*
X016043Y008242D01*
X016043Y008144D02*
X016139Y008144D01*
X016436Y007798D02*
X017045Y008407D01*
X017079Y008324D01*
X017182Y008221D01*
X017317Y008165D01*
X017463Y008165D01*
X017598Y008221D01*
X017701Y008324D01*
X017757Y008459D01*
X017757Y008605D01*
X017701Y008740D01*
X017617Y008824D01*
X017617Y009202D01*
X017836Y009202D01*
X017901Y009267D01*
X017901Y007445D01*
X016554Y006098D01*
X016520Y006181D01*
X016436Y006264D01*
X016436Y007798D01*
X016436Y007750D02*
X017901Y007750D01*
X017901Y007848D02*
X016486Y007848D01*
X016585Y007947D02*
X017901Y007947D01*
X017901Y008045D02*
X016683Y008045D01*
X016782Y008144D02*
X017901Y008144D01*
X017901Y008242D02*
X017619Y008242D01*
X017708Y008341D02*
X017901Y008341D01*
X017901Y008439D02*
X017749Y008439D01*
X017757Y008538D02*
X017901Y008538D01*
X017901Y008636D02*
X017744Y008636D01*
X017703Y008735D02*
X017901Y008735D01*
X017901Y008833D02*
X017617Y008833D01*
X017617Y008932D02*
X017901Y008932D01*
X017901Y009030D02*
X017617Y009030D01*
X017617Y009129D02*
X017901Y009129D01*
X017901Y009227D02*
X017861Y009227D01*
X018356Y009227D02*
X020000Y009227D01*
X020000Y009129D02*
X018356Y009129D01*
X018356Y009030D02*
X020000Y009030D01*
X020000Y008932D02*
X018356Y008932D01*
X018356Y008833D02*
X020000Y008833D01*
X020000Y008735D02*
X018356Y008735D01*
X018356Y008636D02*
X020000Y008636D01*
X020000Y008538D02*
X018356Y008538D01*
X018356Y008439D02*
X020000Y008439D01*
X020000Y008341D02*
X018356Y008341D01*
X018356Y008242D02*
X020000Y008242D01*
X020000Y008144D02*
X018356Y008144D01*
X018356Y008045D02*
X020000Y008045D01*
X020000Y007947D02*
X018356Y007947D01*
X018356Y007848D02*
X020000Y007848D01*
X020000Y007750D02*
X018356Y007750D01*
X018356Y007651D02*
X020000Y007651D01*
X020000Y007553D02*
X018356Y007553D01*
X018356Y007454D02*
X020000Y007454D01*
X020000Y007356D02*
X018356Y007356D01*
X018159Y007060D02*
X020000Y007060D01*
X020000Y006962D02*
X018060Y006962D01*
X017962Y006863D02*
X020000Y006863D01*
X020000Y006765D02*
X017863Y006765D01*
X017765Y006666D02*
X020000Y006666D01*
X020000Y006568D02*
X017666Y006568D01*
X017568Y006469D02*
X020000Y006469D01*
X020000Y006371D02*
X017469Y006371D01*
X017371Y006272D02*
X020000Y006272D01*
X020000Y006174D02*
X017272Y006174D01*
X017174Y006075D02*
X020000Y006075D01*
X020000Y005977D02*
X017075Y005977D01*
X016977Y005878D02*
X020000Y005878D01*
X020000Y005780D02*
X016878Y005780D01*
X016780Y005681D02*
X020000Y005681D01*
X020000Y005583D02*
X016681Y005583D01*
X016583Y005484D02*
X020000Y005484D01*
X020000Y005386D02*
X016484Y005386D01*
X016386Y005287D02*
X020000Y005287D01*
X020000Y005189D02*
X016287Y005189D01*
X016189Y005090D02*
X020000Y005090D01*
X020000Y004992D02*
X016090Y004992D01*
X016523Y006174D02*
X016630Y006174D01*
X016728Y006272D02*
X016436Y006272D01*
X016436Y006371D02*
X016827Y006371D01*
X016925Y006469D02*
X016436Y006469D01*
X016436Y006568D02*
X017024Y006568D01*
X017122Y006666D02*
X016436Y006666D01*
X016436Y006765D02*
X017221Y006765D01*
X017319Y006863D02*
X016436Y006863D01*
X016436Y006962D02*
X017418Y006962D01*
X017516Y007060D02*
X016436Y007060D01*
X016436Y007159D02*
X017615Y007159D01*
X017713Y007257D02*
X016436Y007257D01*
X016436Y007356D02*
X017812Y007356D01*
X017901Y007454D02*
X016436Y007454D01*
X016436Y007553D02*
X017901Y007553D01*
X017901Y007651D02*
X016436Y007651D01*
X016880Y008242D02*
X017161Y008242D01*
X017072Y008341D02*
X016979Y008341D01*
X018356Y009326D02*
X020000Y009326D01*
X020000Y009424D02*
X018356Y009424D01*
X018356Y009523D02*
X020000Y009523D01*
X020000Y009621D02*
X018356Y009621D01*
X018356Y009720D02*
X020000Y009720D01*
X020000Y009818D02*
X018356Y009818D01*
X018356Y009917D02*
X020000Y009917D01*
X020000Y010015D02*
X018356Y010015D01*
X018356Y010114D02*
X020000Y010114D01*
X020000Y010212D02*
X018356Y010212D01*
X018356Y010311D02*
X020000Y010311D01*
X020000Y010409D02*
X018356Y010409D01*
X018356Y010508D02*
X020000Y010508D01*
X020000Y010606D02*
X018356Y010606D01*
X018356Y010705D02*
X020000Y010705D01*
X020000Y010803D02*
X018356Y010803D01*
X018356Y010902D02*
X020000Y010902D01*
X020000Y011000D02*
X018356Y011000D01*
X018356Y011099D02*
X020000Y011099D01*
X020000Y011197D02*
X018356Y011197D01*
X018356Y011296D02*
X020000Y011296D01*
X020000Y011394D02*
X018356Y011394D01*
X018356Y011493D02*
X020000Y011493D01*
X020000Y011591D02*
X018356Y011591D01*
X018356Y011690D02*
X020000Y011690D01*
X020000Y011788D02*
X018356Y011788D01*
X018356Y011887D02*
X020000Y011887D01*
X020000Y011985D02*
X018356Y011985D01*
X018356Y012084D02*
X020000Y012084D01*
X020000Y012182D02*
X018356Y012182D01*
X018356Y012281D02*
X020000Y012281D01*
X020000Y012379D02*
X018356Y012379D01*
X018356Y012478D02*
X020000Y012478D01*
X020000Y012576D02*
X018356Y012576D01*
X018356Y012675D02*
X020000Y012675D01*
X020000Y012773D02*
X018356Y012773D01*
X018356Y012872D02*
X020000Y012872D01*
X020000Y012970D02*
X018356Y012970D01*
X018356Y013069D02*
X020000Y013069D01*
X020000Y013167D02*
X018356Y013167D01*
X018356Y013266D02*
X020000Y013266D01*
X020000Y013364D02*
X018356Y013364D01*
X018356Y013463D02*
X020000Y013463D01*
X020000Y013561D02*
X018356Y013561D01*
X018356Y013660D02*
X020000Y013660D01*
X020000Y013758D02*
X018356Y013758D01*
X018356Y013857D02*
X020000Y013857D01*
X020000Y013955D02*
X018356Y013955D01*
X018356Y014054D02*
X020000Y014054D01*
X020000Y014152D02*
X018356Y014152D01*
X018356Y014251D02*
X020000Y014251D01*
X020000Y014349D02*
X018356Y014349D01*
X018356Y014448D02*
X020000Y014448D01*
X020000Y014546D02*
X018356Y014546D01*
X018356Y014645D02*
X020000Y014645D01*
X020000Y014743D02*
X018356Y014743D01*
X018356Y014842D02*
X020000Y014842D01*
X020000Y014940D02*
X018356Y014940D01*
X018356Y015039D02*
X020000Y015039D01*
X020000Y015137D02*
X018356Y015137D01*
X018356Y015236D02*
X020000Y015236D01*
X020000Y015334D02*
X018356Y015334D01*
X018356Y015433D02*
X020000Y015433D01*
X020000Y015531D02*
X018356Y015531D01*
X018356Y015630D02*
X020000Y015630D01*
X020000Y015728D02*
X018356Y015728D01*
X018356Y015827D02*
X020000Y015827D01*
X020000Y015925D02*
X018356Y015925D01*
X018356Y016024D02*
X020000Y016024D01*
X020000Y016122D02*
X018356Y016122D01*
X018340Y016221D02*
X020000Y016221D01*
X020000Y016319D02*
X018241Y016319D01*
X017503Y016418D02*
X020000Y016418D01*
X020000Y016516D02*
X017404Y016516D01*
X017306Y016615D02*
X020000Y016615D01*
X020000Y016713D02*
X017207Y016713D01*
X017109Y016812D02*
X020000Y016812D01*
X020000Y016910D02*
X017010Y016910D01*
X016912Y017009D02*
X020000Y017009D01*
X020000Y017107D02*
X016813Y017107D01*
X016715Y017206D02*
X020000Y017206D01*
X020000Y017304D02*
X016616Y017304D01*
X016518Y017403D02*
X020000Y017403D01*
X020000Y017501D02*
X016419Y017501D01*
X016321Y017600D02*
X020000Y017600D01*
X020000Y017698D02*
X016222Y017698D01*
X016190Y017797D02*
X020000Y017797D01*
X020000Y017895D02*
X016190Y017895D01*
X016190Y017994D02*
X020000Y017994D01*
X020000Y018092D02*
X016190Y018092D01*
X016190Y018191D02*
X020000Y018191D01*
X020000Y018289D02*
X016190Y018289D01*
X016190Y018388D02*
X020000Y018388D01*
X020000Y018486D02*
X016190Y018486D01*
X016190Y018585D02*
X020000Y018585D01*
X020000Y018683D02*
X016190Y018683D01*
X016190Y018782D02*
X020000Y018782D01*
X020000Y018880D02*
X016190Y018880D01*
X016190Y018979D02*
X020000Y018979D01*
X020000Y019077D02*
X016190Y019077D01*
X016190Y019176D02*
X020000Y019176D01*
X020000Y019274D02*
X016190Y019274D01*
X016190Y019373D02*
X020000Y019373D01*
X020000Y019471D02*
X016123Y019471D01*
X015736Y019082D02*
X015736Y017542D01*
X015857Y017420D01*
X014343Y017420D01*
X014210Y017287D01*
X014025Y017102D01*
X014025Y018079D01*
X014050Y018104D01*
X014081Y018073D01*
X014223Y018014D01*
X014376Y018014D01*
X014518Y018073D01*
X014550Y018104D01*
X014581Y018073D01*
X014723Y018014D01*
X014876Y018014D01*
X015018Y018073D01*
X015127Y018181D01*
X015186Y018323D01*
X015186Y018477D01*
X015127Y018619D01*
X015083Y018663D01*
X015086Y018665D01*
X015126Y018726D01*
X015154Y018793D01*
X015168Y018864D01*
X015168Y018891D01*
X014809Y018891D01*
X014809Y018909D01*
X015168Y018909D01*
X015168Y018936D01*
X015154Y019007D01*
X015126Y019074D01*
X015121Y019082D01*
X015736Y019082D01*
X015736Y019077D02*
X015124Y019077D01*
X015159Y018979D02*
X015736Y018979D01*
X015736Y018880D02*
X015168Y018880D01*
X015149Y018782D02*
X015736Y018782D01*
X015736Y018683D02*
X015097Y018683D01*
X015141Y018585D02*
X015736Y018585D01*
X015736Y018486D02*
X015182Y018486D01*
X015186Y018388D02*
X015736Y018388D01*
X015736Y018289D02*
X015172Y018289D01*
X015131Y018191D02*
X015736Y018191D01*
X015736Y018092D02*
X015038Y018092D01*
X014561Y018092D02*
X014538Y018092D01*
X014061Y018092D02*
X014038Y018092D01*
X014025Y017994D02*
X015736Y017994D01*
X015736Y017895D02*
X014025Y017895D01*
X014025Y017797D02*
X015736Y017797D01*
X015736Y017698D02*
X014025Y017698D01*
X014025Y017600D02*
X015736Y017600D01*
X015777Y017501D02*
X014025Y017501D01*
X014025Y017403D02*
X014325Y017403D01*
X014227Y017304D02*
X014025Y017304D01*
X014025Y017206D02*
X014128Y017206D01*
X014030Y017107D02*
X014025Y017107D01*
X014558Y016433D02*
X014631Y016433D01*
X014948Y016115D01*
X014948Y015960D01*
X014828Y016080D01*
X014690Y016080D01*
X014690Y015690D01*
X014610Y015690D01*
X014610Y016080D01*
X014472Y016080D01*
X014335Y015943D01*
X014285Y015993D01*
X014240Y016039D01*
X014264Y016039D01*
X014399Y016095D01*
X014502Y016198D01*
X014558Y016333D01*
X014558Y016433D01*
X014558Y016418D02*
X014646Y016418D01*
X014552Y016319D02*
X014744Y016319D01*
X014843Y016221D02*
X014512Y016221D01*
X014426Y016122D02*
X014941Y016122D01*
X014948Y016024D02*
X014885Y016024D01*
X014690Y016024D02*
X014610Y016024D01*
X014610Y015925D02*
X014690Y015925D01*
X014690Y015827D02*
X014610Y015827D01*
X014610Y015728D02*
X014690Y015728D01*
X014690Y015610D02*
X014690Y015220D01*
X014828Y015220D01*
X014948Y015340D01*
X014948Y014985D01*
X014836Y015098D01*
X014464Y015098D01*
X014419Y015052D01*
X014419Y015273D01*
X014472Y015220D01*
X014610Y015220D01*
X014610Y015610D01*
X014690Y015610D01*
X014690Y015531D02*
X014610Y015531D01*
X014610Y015433D02*
X014690Y015433D01*
X014690Y015334D02*
X014610Y015334D01*
X014610Y015236D02*
X014690Y015236D01*
X014844Y015236D02*
X014948Y015236D01*
X014942Y015334D02*
X014948Y015334D01*
X014948Y015137D02*
X014419Y015137D01*
X014419Y015236D02*
X014456Y015236D01*
X014895Y015039D02*
X014948Y015039D01*
X015403Y015039D02*
X015405Y015039D01*
X015403Y015036D02*
X015403Y015289D01*
X015472Y015220D01*
X015610Y015220D01*
X015610Y015610D01*
X015690Y015610D01*
X015690Y015220D01*
X015828Y015220D01*
X015883Y015275D01*
X015883Y015220D01*
X015761Y015098D01*
X015464Y015098D01*
X015403Y015036D01*
X015403Y015137D02*
X015800Y015137D01*
X015844Y015236D02*
X015883Y015236D01*
X015690Y015236D02*
X015610Y015236D01*
X015610Y015334D02*
X015690Y015334D01*
X015690Y015433D02*
X015610Y015433D01*
X015610Y015531D02*
X015690Y015531D01*
X015456Y015236D02*
X015403Y015236D01*
X015041Y014251D02*
X014884Y014251D01*
X015140Y014152D02*
X014419Y014152D01*
X014419Y014054D02*
X015238Y014054D01*
X015933Y013955D02*
X014419Y013955D01*
X014419Y013857D02*
X015933Y013857D01*
X015933Y013758D02*
X014419Y013758D01*
X014419Y013660D02*
X015933Y013660D01*
X015933Y013561D02*
X014419Y013561D01*
X014419Y013463D02*
X015933Y013463D01*
X015933Y013364D02*
X014419Y013364D01*
X014419Y013266D02*
X015933Y013266D01*
X015933Y013167D02*
X014419Y013167D01*
X014419Y013069D02*
X015933Y013069D01*
X015933Y012970D02*
X014419Y012970D01*
X014454Y012872D02*
X015933Y012872D01*
X015933Y012773D02*
X014553Y012773D01*
X014566Y012675D02*
X015933Y012675D01*
X015933Y012576D02*
X014566Y012576D01*
X014566Y012478D02*
X015933Y012478D01*
X015933Y012379D02*
X014566Y012379D01*
X014566Y012281D02*
X015933Y012281D01*
X015933Y012182D02*
X014566Y012182D01*
X014566Y012084D02*
X015933Y012084D01*
X015933Y011985D02*
X014566Y011985D01*
X014566Y011887D02*
X015933Y011887D01*
X015933Y011788D02*
X014566Y011788D01*
X014566Y011690D02*
X015933Y011690D01*
X015933Y011591D02*
X014566Y011591D01*
X014566Y011493D02*
X015933Y011493D01*
X015933Y011394D02*
X014566Y011394D01*
X014566Y011296D02*
X015933Y011296D01*
X015933Y011197D02*
X014566Y011197D01*
X014566Y011099D02*
X015933Y011099D01*
X016387Y011099D02*
X016917Y011099D01*
X016836Y011098D02*
X016917Y011017D01*
X016917Y014283D01*
X016836Y014202D01*
X016830Y014202D01*
X016830Y014097D01*
X016697Y013964D01*
X016387Y013964D01*
X016387Y011021D01*
X016464Y011098D01*
X016836Y011098D01*
X016917Y011197D02*
X016387Y011197D01*
X016387Y011296D02*
X016917Y011296D01*
X016917Y011394D02*
X016387Y011394D01*
X016387Y011493D02*
X016917Y011493D01*
X016917Y011591D02*
X016387Y011591D01*
X016387Y011690D02*
X016917Y011690D01*
X016917Y011788D02*
X016387Y011788D01*
X016387Y011887D02*
X016917Y011887D01*
X016917Y011985D02*
X016387Y011985D01*
X016387Y012084D02*
X016917Y012084D01*
X016917Y012182D02*
X016387Y012182D01*
X016387Y012281D02*
X016917Y012281D01*
X016917Y012379D02*
X016387Y012379D01*
X016387Y012478D02*
X016917Y012478D01*
X016917Y012576D02*
X016387Y012576D01*
X016387Y012675D02*
X016917Y012675D01*
X016917Y012773D02*
X016387Y012773D01*
X016387Y012872D02*
X016917Y012872D01*
X016917Y012970D02*
X016387Y012970D01*
X016387Y013069D02*
X016917Y013069D01*
X016917Y013167D02*
X016387Y013167D01*
X016387Y013266D02*
X016917Y013266D01*
X016917Y013364D02*
X016387Y013364D01*
X016387Y013463D02*
X016917Y013463D01*
X016917Y013561D02*
X016387Y013561D01*
X016387Y013660D02*
X016917Y013660D01*
X016917Y013758D02*
X016387Y013758D01*
X016387Y013857D02*
X016917Y013857D01*
X016917Y013955D02*
X016387Y013955D01*
X016786Y014054D02*
X016917Y014054D01*
X016917Y014152D02*
X016830Y014152D01*
X016884Y014251D02*
X016917Y014251D01*
X017371Y014251D02*
X017416Y014251D01*
X017371Y014295D02*
X017464Y014202D01*
X017836Y014202D01*
X017901Y014267D01*
X017901Y011007D01*
X017828Y011080D01*
X017690Y011080D01*
X017690Y010690D01*
X017610Y010690D01*
X017610Y011080D01*
X017472Y011080D01*
X017371Y010979D01*
X017371Y014295D01*
X017371Y014152D02*
X017901Y014152D01*
X017901Y014054D02*
X017371Y014054D01*
X017371Y013955D02*
X017901Y013955D01*
X017901Y013857D02*
X017371Y013857D01*
X017371Y013758D02*
X017901Y013758D01*
X017901Y013660D02*
X017371Y013660D01*
X017371Y013561D02*
X017901Y013561D01*
X017901Y013463D02*
X017371Y013463D01*
X017371Y013364D02*
X017901Y013364D01*
X017901Y013266D02*
X017371Y013266D01*
X017371Y013167D02*
X017901Y013167D01*
X017901Y013069D02*
X017371Y013069D01*
X017371Y012970D02*
X017901Y012970D01*
X017901Y012872D02*
X017371Y012872D01*
X017371Y012773D02*
X017901Y012773D01*
X017901Y012675D02*
X017371Y012675D01*
X017371Y012576D02*
X017901Y012576D01*
X017901Y012478D02*
X017371Y012478D01*
X017371Y012379D02*
X017901Y012379D01*
X017901Y012281D02*
X017371Y012281D01*
X017371Y012182D02*
X017901Y012182D01*
X017901Y012084D02*
X017371Y012084D01*
X017371Y011985D02*
X017901Y011985D01*
X017901Y011887D02*
X017371Y011887D01*
X017371Y011788D02*
X017901Y011788D01*
X017901Y011690D02*
X017371Y011690D01*
X017371Y011591D02*
X017901Y011591D01*
X017901Y011493D02*
X017371Y011493D01*
X017371Y011394D02*
X017901Y011394D01*
X017901Y011296D02*
X017371Y011296D01*
X017371Y011197D02*
X017901Y011197D01*
X017901Y011099D02*
X017371Y011099D01*
X017371Y011000D02*
X017392Y011000D01*
X017610Y011000D02*
X017690Y011000D01*
X017690Y010902D02*
X017610Y010902D01*
X017610Y010803D02*
X017690Y010803D01*
X017690Y010705D02*
X017610Y010705D01*
X017610Y010610D02*
X017690Y010610D01*
X017690Y010220D01*
X017828Y010220D01*
X017901Y010293D01*
X017901Y010033D01*
X017836Y010098D01*
X017617Y010098D01*
X017617Y010348D01*
X017610Y010356D01*
X017610Y010610D01*
X017610Y010606D02*
X017690Y010606D01*
X017690Y010508D02*
X017610Y010508D01*
X017610Y010409D02*
X017690Y010409D01*
X017690Y010311D02*
X017617Y010311D01*
X017617Y010212D02*
X017901Y010212D01*
X017901Y010114D02*
X017617Y010114D01*
X015356Y010311D02*
X014566Y010311D01*
X014566Y010409D02*
X015257Y010409D01*
X015202Y010508D02*
X014566Y010508D01*
X014566Y010606D02*
X015202Y010606D01*
X015202Y010705D02*
X014566Y010705D01*
X014566Y010803D02*
X015202Y010803D01*
X015268Y010902D02*
X014566Y010902D01*
X014566Y011000D02*
X015366Y011000D01*
X014112Y011000D02*
X012827Y011000D01*
X012893Y011027D02*
X013013Y011147D01*
X013078Y011305D01*
X013078Y011995D01*
X013013Y012153D01*
X012893Y012273D01*
X012735Y012338D01*
X012565Y012338D01*
X012407Y012273D01*
X012287Y012153D01*
X012222Y011995D01*
X012222Y011305D01*
X012287Y011147D01*
X012407Y011027D01*
X012565Y010962D01*
X012735Y010962D01*
X012893Y011027D01*
X012964Y011099D02*
X014112Y011099D01*
X014112Y011197D02*
X013033Y011197D01*
X013074Y011296D02*
X014112Y011296D01*
X014112Y011394D02*
X013078Y011394D01*
X013078Y011493D02*
X014112Y011493D01*
X014112Y011591D02*
X013078Y011591D01*
X013078Y011690D02*
X014112Y011690D01*
X014112Y011788D02*
X013078Y011788D01*
X013078Y011887D02*
X014112Y011887D01*
X014112Y011985D02*
X013078Y011985D01*
X013042Y012084D02*
X014112Y012084D01*
X014112Y012182D02*
X012983Y012182D01*
X012874Y012281D02*
X014112Y012281D01*
X014112Y012379D02*
X008009Y012379D01*
X007972Y012478D02*
X014112Y012478D01*
X014107Y012576D02*
X007972Y012576D01*
X007972Y012675D02*
X014009Y012675D01*
X013964Y012773D02*
X007972Y012773D01*
X007972Y012872D02*
X013964Y012872D01*
X013964Y012970D02*
X007972Y012970D01*
X007972Y013069D02*
X013964Y013069D01*
X013964Y013167D02*
X007972Y013167D01*
X007972Y013266D02*
X013964Y013266D01*
X013964Y013364D02*
X007972Y013364D01*
X007972Y013463D02*
X013964Y013463D01*
X013964Y013561D02*
X007972Y013561D01*
X007972Y013660D02*
X013964Y013660D01*
X013964Y013758D02*
X007972Y013758D01*
X007972Y013857D02*
X013964Y013857D01*
X013964Y013955D02*
X007972Y013955D01*
X007972Y014054D02*
X013964Y014054D01*
X013964Y014152D02*
X007972Y014152D01*
X007972Y014251D02*
X013416Y014251D01*
X013317Y014349D02*
X007972Y014349D01*
X007972Y014448D02*
X013219Y014448D01*
X013202Y014546D02*
X007972Y014546D01*
X007972Y014645D02*
X013202Y014645D01*
X013202Y014743D02*
X007972Y014743D01*
X007972Y014842D02*
X013208Y014842D01*
X013306Y014940D02*
X010837Y014940D01*
X010823Y014933D02*
X010886Y014965D01*
X010943Y015007D01*
X010993Y015057D01*
X011035Y015114D01*
X011067Y015177D01*
X011089Y015245D01*
X011100Y015315D01*
X011100Y015600D01*
X010700Y015600D01*
X010700Y015700D01*
X011100Y015700D01*
X011100Y015985D01*
X011089Y016055D01*
X011067Y016123D01*
X011035Y016186D01*
X010993Y016243D01*
X010943Y016293D01*
X010886Y016335D01*
X010823Y016367D01*
X010755Y016389D01*
X010700Y016398D01*
X010700Y015700D01*
X010600Y015700D01*
X010600Y016398D01*
X010545Y016389D01*
X010477Y016367D01*
X010414Y016335D01*
X010357Y016293D01*
X010307Y016243D01*
X010265Y016186D01*
X010233Y016123D01*
X010211Y016055D01*
X010200Y015985D01*
X010200Y015700D01*
X010600Y015700D01*
X010600Y015600D01*
X010700Y015600D01*
X010700Y014902D01*
X010755Y014911D01*
X010823Y014933D01*
X010700Y014940D02*
X010600Y014940D01*
X010600Y014902D02*
X010545Y014911D01*
X010477Y014933D01*
X010414Y014965D01*
X010357Y015007D01*
X010307Y015057D01*
X010265Y015114D01*
X010233Y015177D01*
X010211Y015245D01*
X010200Y015315D01*
X010200Y015600D01*
X010600Y015600D01*
X010600Y014902D01*
X010600Y015039D02*
X010700Y015039D01*
X010700Y015137D02*
X010600Y015137D01*
X010600Y015236D02*
X010700Y015236D01*
X010700Y015334D02*
X010600Y015334D01*
X010600Y015433D02*
X010700Y015433D01*
X010700Y015531D02*
X010600Y015531D01*
X010600Y015630D02*
X010118Y015630D01*
X010118Y015728D02*
X010200Y015728D01*
X010200Y015827D02*
X010118Y015827D01*
X010118Y015925D02*
X010200Y015925D01*
X010206Y016024D02*
X010118Y016024D01*
X010118Y016043D02*
X010047Y016215D01*
X009915Y016347D01*
X009743Y016418D01*
X009557Y016418D01*
X009385Y016347D01*
X009253Y016215D01*
X009182Y016043D01*
X009182Y015257D01*
X009253Y015085D01*
X009385Y014953D01*
X009557Y014882D01*
X009743Y014882D01*
X009915Y014953D01*
X010047Y015085D01*
X010118Y015257D01*
X010118Y016043D01*
X010085Y016122D02*
X010233Y016122D01*
X010290Y016221D02*
X010041Y016221D01*
X009943Y016319D02*
X010392Y016319D01*
X010600Y016319D02*
X010700Y016319D01*
X010700Y016221D02*
X010600Y016221D01*
X010600Y016122D02*
X010700Y016122D01*
X010700Y016024D02*
X010600Y016024D01*
X010600Y015925D02*
X010700Y015925D01*
X010700Y015827D02*
X010600Y015827D01*
X010600Y015728D02*
X010700Y015728D01*
X010700Y015630D02*
X013202Y015630D01*
X013202Y015728D02*
X011100Y015728D01*
X011100Y015827D02*
X013114Y015827D01*
X013016Y015925D02*
X011100Y015925D01*
X011094Y016024D02*
X012917Y016024D01*
X012819Y016122D02*
X011067Y016122D01*
X011010Y016221D02*
X012720Y016221D01*
X012622Y016319D02*
X010908Y016319D01*
X011100Y015531D02*
X013202Y015531D01*
X013234Y015433D02*
X011100Y015433D01*
X011100Y015334D02*
X013332Y015334D01*
X013431Y015236D02*
X011086Y015236D01*
X011047Y015137D02*
X013964Y015137D01*
X013964Y015039D02*
X013895Y015039D01*
X013869Y015236D02*
X013964Y015236D01*
X013405Y015039D02*
X010975Y015039D01*
X010463Y014940D02*
X009883Y014940D01*
X010001Y015039D02*
X010325Y015039D01*
X010253Y015137D02*
X010068Y015137D01*
X010109Y015236D02*
X010214Y015236D01*
X010200Y015334D02*
X010118Y015334D01*
X010118Y015433D02*
X010200Y015433D01*
X010200Y015531D02*
X010118Y015531D01*
X009417Y014940D02*
X007972Y014940D01*
X007972Y015039D02*
X009299Y015039D01*
X009232Y015137D02*
X007972Y015137D01*
X007972Y015236D02*
X009191Y015236D01*
X009182Y015334D02*
X007972Y015334D01*
X007972Y015433D02*
X009182Y015433D01*
X009182Y015531D02*
X007972Y015531D01*
X007972Y015630D02*
X009182Y015630D01*
X009182Y015728D02*
X007972Y015728D01*
X007972Y015827D02*
X009182Y015827D01*
X009182Y015925D02*
X007972Y015925D01*
X007972Y016024D02*
X009182Y016024D01*
X009215Y016122D02*
X007972Y016122D01*
X007972Y016221D02*
X009259Y016221D01*
X009357Y016319D02*
X007972Y016319D01*
X007972Y016418D02*
X009556Y016418D01*
X009744Y016418D02*
X012523Y016418D01*
X012425Y016516D02*
X007972Y016516D01*
X007972Y016615D02*
X012326Y016615D01*
X012228Y016713D02*
X007972Y016713D01*
X007972Y016812D02*
X012129Y016812D01*
X012069Y016910D02*
X007972Y016910D01*
X007972Y017009D02*
X012055Y017009D01*
X012055Y017107D02*
X007972Y017107D01*
X007972Y017206D02*
X012055Y017206D01*
X012055Y017304D02*
X007972Y017304D01*
X007972Y017403D02*
X012055Y017403D01*
X012055Y017501D02*
X007972Y017501D01*
X007972Y017600D02*
X012055Y017600D01*
X012055Y017698D02*
X007955Y017698D01*
X007856Y017797D02*
X012055Y017797D01*
X012055Y017895D02*
X007758Y017895D01*
X007659Y017994D02*
X012055Y017994D01*
X012055Y018092D02*
X007561Y018092D01*
X007462Y018191D02*
X012055Y018191D01*
X012055Y018289D02*
X007364Y018289D01*
X007265Y018388D02*
X012055Y018388D01*
X012055Y018486D02*
X007167Y018486D01*
X007068Y018585D02*
X012055Y018585D01*
X012055Y018683D02*
X006970Y018683D01*
X006871Y018782D02*
X012055Y018782D01*
X012055Y018880D02*
X006773Y018880D01*
X006684Y018979D02*
X012055Y018979D01*
X012055Y019077D02*
X006684Y019077D01*
X006648Y019176D02*
X012055Y019176D01*
X012055Y019274D02*
X006576Y019274D01*
X006411Y019373D02*
X012055Y019373D01*
X012079Y019471D02*
X006052Y019471D01*
X006052Y019373D02*
X006224Y019373D01*
X006058Y019274D02*
X006052Y019274D01*
X006052Y019570D02*
X012155Y019570D01*
X013127Y019570D02*
X013609Y019570D01*
X013554Y019668D02*
X006052Y019668D01*
X006052Y019767D02*
X013529Y019767D01*
X013529Y019865D02*
X006052Y019865D01*
X006052Y019964D02*
X013566Y019964D01*
X013669Y019471D02*
X013226Y019471D01*
X013324Y019373D02*
X013669Y019373D01*
X013669Y019274D02*
X013423Y019274D01*
X014123Y019274D02*
X014193Y019274D01*
X014123Y019373D02*
X014376Y019373D01*
X014475Y019471D02*
X014123Y019471D01*
X014183Y019570D02*
X020000Y019570D01*
X020000Y019668D02*
X014238Y019668D01*
X014263Y019767D02*
X020000Y019767D01*
X020000Y019865D02*
X014263Y019865D01*
X014226Y019964D02*
X020000Y019964D01*
X017690Y015610D02*
X017610Y015610D01*
X017610Y015220D01*
X017472Y015220D01*
X017371Y015321D01*
X017371Y015270D01*
X017543Y015098D01*
X017836Y015098D01*
X017901Y015033D01*
X017901Y015293D01*
X017828Y015220D01*
X017690Y015220D01*
X017690Y015610D01*
X017690Y015531D02*
X017610Y015531D01*
X017610Y015433D02*
X017690Y015433D01*
X017690Y015334D02*
X017610Y015334D01*
X017610Y015236D02*
X017690Y015236D01*
X017844Y015236D02*
X017901Y015236D01*
X017901Y015137D02*
X017504Y015137D01*
X017456Y015236D02*
X017405Y015236D01*
X017895Y015039D02*
X017901Y015039D01*
X017884Y014251D02*
X017901Y014251D01*
X014415Y016024D02*
X014255Y016024D01*
X013964Y014251D02*
X013884Y014251D01*
X012426Y012281D02*
X008077Y012281D01*
X008111Y012182D02*
X012317Y012182D01*
X012258Y012084D02*
X010666Y012084D01*
X010728Y011985D02*
X012222Y011985D01*
X012222Y011887D02*
X010728Y011887D01*
X010728Y011788D02*
X012222Y011788D01*
X012222Y011690D02*
X010728Y011690D01*
X010728Y011591D02*
X012222Y011591D01*
X012222Y011493D02*
X010728Y011493D01*
X010728Y011394D02*
X012222Y011394D01*
X012226Y011296D02*
X011002Y011296D01*
X011159Y011197D02*
X012267Y011197D01*
X012336Y011099D02*
X011227Y011099D01*
X011261Y011000D02*
X012473Y011000D01*
X011318Y010803D02*
X014112Y010803D01*
X014112Y010705D02*
X011318Y010705D01*
X011318Y010606D02*
X014112Y010606D01*
X014112Y010508D02*
X011318Y010508D01*
X011318Y010409D02*
X014112Y010409D01*
X014112Y010311D02*
X011318Y010311D01*
X011318Y010212D02*
X014112Y010212D01*
X014112Y010114D02*
X011318Y010114D01*
X011318Y010015D02*
X014112Y010015D01*
X014112Y009917D02*
X011318Y009917D01*
X011318Y009818D02*
X014112Y009818D01*
X014112Y009720D02*
X011318Y009720D01*
X011318Y009621D02*
X014112Y009621D01*
X014112Y009523D02*
X011554Y009523D01*
X011650Y009424D02*
X014112Y009424D01*
X014112Y009326D02*
X012766Y009326D01*
X012735Y009338D02*
X012565Y009338D01*
X012407Y009273D01*
X012287Y009153D01*
X012222Y008995D01*
X012222Y008305D01*
X012287Y008147D01*
X012407Y008027D01*
X012565Y007962D01*
X012735Y007962D01*
X012893Y008027D01*
X013013Y008147D01*
X013078Y008305D01*
X013078Y008995D01*
X013013Y009153D01*
X012893Y009273D01*
X012735Y009338D01*
X012534Y009326D02*
X011691Y009326D01*
X011704Y009227D02*
X012362Y009227D01*
X012277Y009129D02*
X011696Y009129D01*
X011655Y009030D02*
X012236Y009030D01*
X012222Y008932D02*
X011566Y008932D01*
X011564Y008833D02*
X012222Y008833D01*
X012222Y008735D02*
X011564Y008735D01*
X011564Y008636D02*
X012222Y008636D01*
X012222Y008538D02*
X011564Y008538D01*
X011564Y008439D02*
X012222Y008439D01*
X012222Y008341D02*
X011564Y008341D01*
X011564Y008242D02*
X012248Y008242D01*
X012291Y008144D02*
X011564Y008144D01*
X011564Y008045D02*
X012390Y008045D01*
X012910Y008045D02*
X014112Y008045D01*
X014112Y007947D02*
X011564Y007947D01*
X010716Y009326D02*
X010481Y009326D01*
X010481Y009424D02*
X010716Y009424D01*
X010776Y009523D02*
X010481Y009523D01*
X010481Y009621D02*
X010864Y009621D01*
X010849Y009596D02*
X010849Y009596D01*
X010864Y009720D02*
X010481Y009720D01*
X010481Y009818D02*
X010864Y009818D01*
X010864Y009917D02*
X010481Y009917D01*
X010481Y010015D02*
X010864Y010015D01*
X010864Y010114D02*
X010481Y010114D01*
X010481Y010212D02*
X010864Y010212D01*
X010864Y010311D02*
X010481Y010311D01*
X010484Y010409D02*
X010864Y010409D01*
X010864Y010508D02*
X010583Y010508D01*
X010681Y010606D02*
X010750Y010606D01*
X011261Y010902D02*
X014112Y010902D01*
X014112Y009227D02*
X012938Y009227D01*
X013023Y009129D02*
X014112Y009129D01*
X014112Y009030D02*
X013064Y009030D01*
X013078Y008932D02*
X014112Y008932D01*
X014112Y008833D02*
X013078Y008833D01*
X013078Y008735D02*
X014112Y008735D01*
X014112Y008636D02*
X013078Y008636D01*
X013078Y008538D02*
X014112Y008538D01*
X014112Y008439D02*
X013078Y008439D01*
X013078Y008341D02*
X014112Y008341D01*
X014112Y008242D02*
X013052Y008242D01*
X013009Y008144D02*
X014112Y008144D01*
X012467Y006075D02*
X012196Y006075D01*
X012294Y005977D02*
X012368Y005977D01*
X012352Y005287D02*
X012405Y005287D01*
X012358Y004992D02*
X012352Y004992D01*
X013477Y003711D02*
X020000Y003711D01*
X020000Y003613D02*
X013626Y003613D01*
X013690Y003514D02*
X020000Y003514D01*
X020000Y003416D02*
X013722Y003416D01*
X013722Y003317D02*
X020000Y003317D01*
X020000Y003219D02*
X013691Y003219D01*
X013629Y003120D02*
X020000Y003120D01*
X020000Y003022D02*
X013485Y003022D01*
X013224Y003022D02*
X007785Y003022D01*
X007816Y002923D02*
X020000Y002923D01*
X020000Y002825D02*
X007816Y002825D01*
X007786Y002726D02*
X020000Y002726D01*
X020000Y002628D02*
X007723Y002628D01*
X007579Y002529D02*
X020000Y002529D01*
X020000Y002431D02*
X001300Y002431D01*
X001300Y002529D02*
X007320Y002529D01*
X007175Y002628D02*
X001300Y002628D01*
X001300Y002726D02*
X007113Y002726D01*
X007082Y002825D02*
X001300Y002825D01*
X001300Y002923D02*
X007077Y002923D01*
X006979Y003022D02*
X001300Y003022D01*
X001300Y003120D02*
X006880Y003120D01*
X006782Y003219D02*
X001300Y003219D01*
X001300Y003317D02*
X006683Y003317D01*
X006585Y003416D02*
X001300Y003416D01*
X001300Y003514D02*
X006486Y003514D01*
X006388Y003613D02*
X001300Y003613D01*
X001300Y003711D02*
X006289Y003711D01*
X006191Y003810D02*
X001300Y003810D01*
X001300Y003908D02*
X006092Y003908D01*
X005994Y004007D02*
X001300Y004007D01*
X001300Y004105D02*
X005895Y004105D01*
X005463Y004204D02*
X004837Y004204D01*
X004836Y004202D02*
X005098Y004464D01*
X005098Y004836D01*
X004836Y005098D01*
X004464Y005098D01*
X004202Y004836D01*
X004202Y004464D01*
X004464Y004202D01*
X004836Y004202D01*
X004936Y004302D02*
X005364Y004302D01*
X005266Y004401D02*
X005034Y004401D01*
X005098Y004499D02*
X005202Y004499D01*
X005202Y004598D02*
X005098Y004598D01*
X005098Y004696D02*
X005202Y004696D01*
X005202Y004795D02*
X005098Y004795D01*
X005107Y004893D02*
X005041Y004893D01*
X005009Y004992D02*
X004942Y004992D01*
X004958Y005090D02*
X004844Y005090D01*
X004958Y005189D02*
X003926Y005189D01*
X003926Y005287D02*
X004405Y005287D01*
X004472Y005220D02*
X004610Y005220D01*
X004610Y005610D01*
X004220Y005610D01*
X004220Y005472D01*
X004472Y005220D01*
X004456Y005090D02*
X003926Y005090D01*
X003942Y004992D02*
X004358Y004992D01*
X004259Y004893D02*
X004041Y004893D01*
X004098Y004795D02*
X004202Y004795D01*
X004202Y004696D02*
X004098Y004696D01*
X004098Y004598D02*
X004202Y004598D01*
X004202Y004499D02*
X004098Y004499D01*
X004034Y004401D02*
X004266Y004401D01*
X004364Y004302D02*
X003936Y004302D01*
X003837Y004204D02*
X004463Y004204D01*
X003463Y004204D02*
X001300Y004204D01*
X001300Y004302D02*
X003364Y004302D01*
X003266Y004401D02*
X001300Y004401D01*
X001300Y004499D02*
X003202Y004499D01*
X003202Y004598D02*
X001300Y004598D01*
X001300Y004696D02*
X003202Y004696D01*
X003202Y004795D02*
X001300Y004795D01*
X001300Y004893D02*
X003259Y004893D01*
X003358Y004992D02*
X001300Y004992D01*
X001300Y005090D02*
X003393Y005090D01*
X003393Y005189D02*
X001300Y005189D01*
X001300Y005287D02*
X003379Y005287D01*
X003281Y005386D02*
X001300Y005386D01*
X001300Y005484D02*
X003202Y005484D01*
X003202Y005583D02*
X001300Y005583D01*
X001300Y005681D02*
X003202Y005681D01*
X003181Y005780D02*
X001300Y005780D01*
X001300Y005878D02*
X003082Y005878D01*
X002984Y005977D02*
X001300Y005977D01*
X001300Y006075D02*
X002885Y006075D01*
X002787Y006174D02*
X001300Y006174D01*
X001300Y006272D02*
X002688Y006272D01*
X002623Y006371D02*
X001300Y006371D01*
X001300Y006469D02*
X002606Y006469D01*
X002606Y006568D02*
X001300Y006568D01*
X001300Y006666D02*
X002606Y006666D01*
X002606Y006765D02*
X001300Y006765D01*
X001300Y006863D02*
X002606Y006863D01*
X002606Y006962D02*
X001300Y006962D01*
X001300Y007060D02*
X002606Y007060D01*
X002606Y007159D02*
X001300Y007159D01*
X001300Y007257D02*
X002606Y007257D01*
X002606Y007356D02*
X001300Y007356D01*
X001300Y007454D02*
X002606Y007454D01*
X002606Y007553D02*
X001300Y007553D01*
X001300Y007651D02*
X002606Y007651D01*
X002606Y007750D02*
X001300Y007750D01*
X001300Y007848D02*
X002606Y007848D01*
X002606Y007947D02*
X001300Y007947D01*
X001300Y008045D02*
X002606Y008045D01*
X002606Y008144D02*
X001300Y008144D01*
X001300Y008242D02*
X002606Y008242D01*
X002606Y008341D02*
X001300Y008341D01*
X001300Y008439D02*
X002606Y008439D01*
X002606Y008538D02*
X001300Y008538D01*
X001300Y008636D02*
X002606Y008636D01*
X002606Y008735D02*
X001300Y008735D01*
X001300Y008833D02*
X002606Y008833D01*
X002539Y008932D02*
X001300Y008932D01*
X001300Y009030D02*
X002440Y009030D01*
X002342Y009129D02*
X001300Y009129D01*
X001300Y009227D02*
X002243Y009227D01*
X001983Y009326D02*
X001300Y009326D01*
X001300Y009424D02*
X001809Y009424D01*
X001722Y009523D02*
X001300Y009523D01*
X001300Y009621D02*
X001681Y009621D01*
X001661Y009720D02*
X001300Y009720D01*
X001300Y009818D02*
X001661Y009818D01*
X001691Y009917D02*
X001300Y009917D01*
X001300Y010015D02*
X001736Y010015D01*
X001834Y010114D02*
X001300Y010114D01*
X001300Y010212D02*
X001809Y010212D01*
X001721Y010311D02*
X001300Y010311D01*
X001300Y010409D02*
X001681Y010409D01*
X001661Y010508D02*
X001300Y010508D01*
X001300Y010606D02*
X001661Y010606D01*
X001691Y010705D02*
X001300Y010705D01*
X001300Y010803D02*
X001736Y010803D01*
X001835Y010902D02*
X001300Y010902D01*
X001300Y011000D02*
X008460Y011000D01*
X008460Y011099D02*
X001300Y011099D01*
X001300Y011197D02*
X008494Y011197D01*
X008562Y011296D02*
X001300Y011296D01*
X001300Y011394D02*
X008719Y011394D01*
X008935Y011394D02*
X009592Y011394D01*
X009592Y011296D02*
X009092Y011296D01*
X009626Y011493D02*
X001300Y011493D01*
X001300Y011591D02*
X007415Y011591D01*
X007317Y011690D02*
X001300Y011690D01*
X001300Y011788D02*
X007218Y011788D01*
X007124Y011887D02*
X001300Y011887D01*
X001300Y011985D02*
X007124Y011985D01*
X007124Y012084D02*
X001300Y012084D01*
X001300Y012182D02*
X007124Y012182D01*
X007124Y012281D02*
X001300Y012281D01*
X001300Y012379D02*
X007137Y012379D01*
X007235Y012478D02*
X001300Y012478D01*
X001300Y012576D02*
X007271Y012576D01*
X007271Y012675D02*
X001300Y012675D01*
X001300Y012773D02*
X006956Y012773D01*
X006823Y012872D02*
X001300Y012872D01*
X001300Y012970D02*
X006765Y012970D01*
X006738Y013069D02*
X001300Y013069D01*
X001300Y013167D02*
X006738Y013167D01*
X006773Y013266D02*
X001300Y013266D01*
X001300Y013364D02*
X006841Y013364D01*
X006878Y013463D02*
X001300Y013463D01*
X001300Y013561D02*
X006878Y013561D01*
X006878Y013660D02*
X001300Y013660D01*
X001300Y013758D02*
X006118Y013758D01*
X005986Y013857D02*
X001300Y013857D01*
X001300Y013955D02*
X004264Y013955D01*
X004220Y014054D02*
X001300Y014054D01*
X001300Y014152D02*
X004220Y014152D01*
X004220Y014251D02*
X001300Y014251D01*
X001300Y014349D02*
X001895Y014349D01*
X001754Y014448D02*
X001300Y014448D01*
X001300Y014546D02*
X001680Y014546D01*
X001640Y014645D02*
X001300Y014645D01*
X001300Y014743D02*
X001630Y014743D01*
X001630Y014842D02*
X001300Y014842D01*
X001300Y014940D02*
X001669Y014940D01*
X001728Y015039D02*
X001300Y015039D01*
X001300Y015137D02*
X001831Y015137D01*
X001754Y015236D02*
X001300Y015236D01*
X001300Y015334D02*
X001680Y015334D01*
X001639Y015433D02*
X001300Y015433D01*
X001300Y015531D02*
X001630Y015531D01*
X001630Y015630D02*
X001300Y015630D01*
X001300Y015728D02*
X001670Y015728D01*
X001728Y015827D02*
X001300Y015827D01*
X001300Y015925D02*
X001832Y015925D01*
X001858Y016024D02*
X001300Y016024D01*
X001300Y016122D02*
X001874Y016122D01*
X001972Y016221D02*
X001300Y016221D01*
X001300Y016319D02*
X003645Y016319D01*
X003744Y016418D02*
X001300Y016418D01*
X001300Y016516D02*
X003842Y016516D01*
X003769Y016615D02*
X001300Y016615D01*
X001300Y016713D02*
X003684Y016713D01*
X003643Y016812D02*
X001300Y016812D01*
X001300Y016910D02*
X003637Y016910D01*
X003653Y017009D02*
X001300Y017009D01*
X001300Y017107D02*
X003695Y017107D01*
X003793Y017206D02*
X001300Y017206D01*
X001300Y017304D02*
X004089Y017304D01*
X004188Y017403D02*
X001300Y017403D01*
X001300Y017501D02*
X004286Y017501D01*
X004319Y017600D02*
X001300Y017600D01*
X001300Y017698D02*
X004319Y017698D01*
X004319Y017797D02*
X001300Y017797D01*
X001300Y017895D02*
X004319Y017895D01*
X004319Y017994D02*
X001300Y017994D01*
X001300Y018092D02*
X001784Y018092D01*
X001764Y018191D02*
X001300Y018191D01*
X001300Y018289D02*
X001764Y018289D01*
X001764Y018388D02*
X001300Y018388D01*
X001300Y018486D02*
X001764Y018486D01*
X001764Y018585D02*
X001300Y018585D01*
X001300Y018683D02*
X001764Y018683D01*
X001781Y018782D02*
X001300Y018782D01*
X001300Y018880D02*
X001764Y018880D01*
X001764Y018979D02*
X001300Y018979D01*
X001300Y019077D02*
X001805Y019077D01*
X001879Y019176D02*
X001300Y019176D01*
X001300Y019274D02*
X002044Y019274D01*
X002256Y019274D02*
X002544Y019274D01*
X002756Y019274D02*
X002842Y019274D01*
X002842Y019373D02*
X001300Y019373D01*
X001300Y019471D02*
X002783Y019471D01*
X002515Y019570D02*
X001300Y019570D01*
X001300Y019668D02*
X002389Y019668D01*
X002334Y019767D02*
X001300Y019767D01*
X001300Y019865D02*
X002309Y019865D01*
X002309Y019964D02*
X001300Y019964D01*
X002659Y018409D02*
X003141Y018409D01*
X003141Y018391D01*
X002782Y018391D01*
X002659Y018391D01*
X002659Y018409D01*
X002659Y018388D02*
X002641Y018388D01*
X002641Y018289D02*
X002659Y018289D01*
X002659Y018191D02*
X002641Y018191D01*
X002641Y018092D02*
X002659Y018092D01*
X002852Y018092D02*
X002948Y018092D01*
X003141Y018092D02*
X003159Y018092D01*
X003159Y018191D02*
X003141Y018191D01*
X003141Y018289D02*
X003159Y018289D01*
X003159Y018388D02*
X003141Y018388D01*
X003352Y018092D02*
X003412Y018092D01*
X003888Y018092D02*
X003948Y018092D01*
X004141Y018092D02*
X004159Y018092D01*
X004159Y018191D02*
X004141Y018191D01*
X004141Y018289D02*
X004159Y018289D01*
X004159Y018388D02*
X004141Y018388D01*
X005568Y017009D02*
X006036Y017009D01*
X006056Y017057D02*
X006000Y016922D01*
X006000Y016803D01*
X005928Y016731D01*
X005795Y016598D01*
X005795Y015302D01*
X005765Y015290D01*
X005662Y015187D01*
X005606Y015052D01*
X005606Y014949D01*
X005590Y014980D01*
X005551Y015035D01*
X005503Y015082D01*
X005449Y015122D01*
X005413Y015140D01*
X005477Y015166D01*
X005602Y015291D01*
X005670Y015455D01*
X005670Y015632D01*
X005602Y015796D01*
X005477Y015921D01*
X005313Y015989D01*
X005136Y015989D01*
X005117Y015981D01*
X005117Y016558D01*
X005919Y017360D01*
X007173Y017360D01*
X007173Y014051D01*
X006333Y014890D01*
X006340Y014906D01*
X006340Y015052D01*
X006284Y015187D01*
X006249Y015221D01*
X006249Y016410D01*
X006321Y016482D01*
X006440Y016482D01*
X006574Y016538D01*
X006678Y016641D01*
X006733Y016776D01*
X006733Y016922D01*
X006678Y017057D01*
X006574Y017160D01*
X006440Y017216D01*
X006294Y017216D01*
X006159Y017160D01*
X006056Y017057D01*
X006106Y017107D02*
X005666Y017107D01*
X005765Y017206D02*
X006269Y017206D01*
X006464Y017206D02*
X007173Y017206D01*
X007173Y017304D02*
X005863Y017304D01*
X006000Y016910D02*
X005469Y016910D01*
X005371Y016812D02*
X006000Y016812D01*
X005909Y016713D02*
X005272Y016713D01*
X005174Y016615D02*
X005811Y016615D01*
X005795Y016516D02*
X005117Y016516D01*
X005117Y016418D02*
X005795Y016418D01*
X005795Y016319D02*
X005117Y016319D01*
X005117Y016221D02*
X005795Y016221D01*
X005795Y016122D02*
X005117Y016122D01*
X005117Y016024D02*
X005795Y016024D01*
X005795Y015925D02*
X005468Y015925D01*
X005572Y015827D02*
X005795Y015827D01*
X005795Y015728D02*
X005630Y015728D01*
X005670Y015630D02*
X005795Y015630D01*
X005795Y015531D02*
X005670Y015531D01*
X005661Y015433D02*
X005795Y015433D01*
X005795Y015334D02*
X005620Y015334D01*
X005546Y015236D02*
X005711Y015236D01*
X005641Y015137D02*
X005418Y015137D01*
X005263Y015098D02*
X005263Y014795D01*
X005186Y014795D01*
X005186Y015098D01*
X005263Y015098D01*
X005263Y015039D02*
X005186Y015039D01*
X005186Y014940D02*
X005263Y014940D01*
X005263Y014842D02*
X005186Y014842D01*
X005263Y014795D02*
X005651Y014795D01*
X005651Y014798D01*
X005662Y014771D01*
X005765Y014668D01*
X005900Y014612D01*
X005969Y014612D01*
X006143Y014438D01*
X006060Y014404D01*
X005976Y014320D01*
X004674Y014320D01*
X004674Y014373D01*
X004690Y014379D01*
X004815Y014504D01*
X004841Y014568D01*
X004859Y014532D01*
X004899Y014478D01*
X004947Y014430D01*
X005001Y014391D01*
X005061Y014360D01*
X005125Y014340D01*
X005186Y014330D01*
X005186Y014718D01*
X005263Y014718D01*
X005263Y014330D01*
X005325Y014340D01*
X005389Y014360D01*
X005449Y014391D01*
X005503Y014430D01*
X005551Y014478D01*
X005590Y014532D01*
X005621Y014592D01*
X005641Y014656D01*
X005651Y014718D01*
X005263Y014718D01*
X005263Y014795D01*
X005263Y014743D02*
X005690Y014743D01*
X005638Y014645D02*
X005821Y014645D01*
X006035Y014546D02*
X005597Y014546D01*
X005520Y014448D02*
X006134Y014448D01*
X006005Y014349D02*
X005354Y014349D01*
X005263Y014349D02*
X005186Y014349D01*
X005096Y014349D02*
X004674Y014349D01*
X004758Y014448D02*
X004929Y014448D01*
X004853Y014546D02*
X004832Y014546D01*
X005186Y014546D02*
X005263Y014546D01*
X005263Y014448D02*
X005186Y014448D01*
X005186Y014645D02*
X005263Y014645D01*
X005547Y015039D02*
X005606Y015039D01*
X006249Y015236D02*
X007173Y015236D01*
X007173Y015334D02*
X006249Y015334D01*
X006249Y015433D02*
X007173Y015433D01*
X007173Y015531D02*
X006249Y015531D01*
X006249Y015630D02*
X007173Y015630D01*
X007173Y015728D02*
X006249Y015728D01*
X006249Y015827D02*
X007173Y015827D01*
X007173Y015925D02*
X006249Y015925D01*
X006249Y016024D02*
X007173Y016024D01*
X007173Y016122D02*
X006249Y016122D01*
X006249Y016221D02*
X007173Y016221D01*
X007173Y016319D02*
X006249Y016319D01*
X006257Y016418D02*
X007173Y016418D01*
X007173Y016516D02*
X006522Y016516D01*
X006651Y016615D02*
X007173Y016615D01*
X007173Y016713D02*
X006707Y016713D01*
X006733Y016812D02*
X007173Y016812D01*
X007173Y016910D02*
X006733Y016910D01*
X006697Y017009D02*
X007173Y017009D01*
X007173Y017107D02*
X006627Y017107D01*
X006304Y015137D02*
X007173Y015137D01*
X007173Y015039D02*
X006340Y015039D01*
X006340Y014940D02*
X007173Y014940D01*
X007173Y014842D02*
X006382Y014842D01*
X006481Y014743D02*
X007173Y014743D01*
X007173Y014645D02*
X006579Y014645D01*
X006678Y014546D02*
X007173Y014546D01*
X007173Y014448D02*
X006776Y014448D01*
X006875Y014349D02*
X007173Y014349D01*
X007173Y014251D02*
X006973Y014251D01*
X007072Y014152D02*
X007173Y014152D01*
X007170Y014054D02*
X007173Y014054D01*
X006823Y013758D02*
X006418Y013758D01*
X006551Y013857D02*
X006725Y013857D01*
X006626Y013955D02*
X006608Y013955D01*
X007253Y012773D02*
X007271Y012773D01*
X008084Y011985D02*
X009695Y011985D01*
X009794Y012084D02*
X008111Y012084D01*
X008172Y010902D02*
X007853Y010902D01*
X007958Y010803D02*
X008066Y010803D01*
X008367Y010803D02*
X008444Y010803D01*
X008444Y010705D02*
X008367Y010705D01*
X008367Y010606D02*
X008444Y010606D01*
X008444Y010582D02*
X009155Y010582D01*
X009155Y010505D01*
X008767Y010505D01*
X008444Y010505D01*
X008444Y010582D01*
X008444Y010508D02*
X009155Y010508D01*
X008367Y010508D02*
X007657Y010508D01*
X007580Y010508D02*
X006870Y010508D01*
X006793Y010508D02*
X006082Y010508D01*
X006005Y010508D02*
X005295Y010508D01*
X005218Y010508D02*
X004507Y010508D01*
X004507Y010582D02*
X005218Y010582D01*
X005218Y010970D01*
X005156Y010960D01*
X005092Y010940D01*
X005032Y010909D01*
X004978Y010870D01*
X004930Y010822D01*
X004891Y010768D01*
X004863Y010712D01*
X004834Y010768D01*
X004795Y010822D01*
X004747Y010870D01*
X004693Y010909D01*
X004633Y010940D01*
X004569Y010960D01*
X004507Y010970D01*
X004507Y010582D01*
X004507Y010606D02*
X004430Y010606D01*
X004430Y010508D02*
X003720Y010508D01*
X003643Y010508D02*
X002933Y010508D01*
X002933Y010606D02*
X002856Y010606D01*
X002856Y010705D02*
X002933Y010705D01*
X002933Y010803D02*
X002856Y010803D01*
X002856Y010902D02*
X002933Y010902D01*
X003128Y010902D02*
X003447Y010902D01*
X003342Y010803D02*
X003234Y010803D01*
X003643Y010803D02*
X003720Y010803D01*
X003720Y010705D02*
X003643Y010705D01*
X003643Y010606D02*
X003720Y010606D01*
X004021Y010803D02*
X004129Y010803D01*
X004235Y010902D02*
X003916Y010902D01*
X003720Y010902D02*
X003643Y010902D01*
X004430Y010902D02*
X004507Y010902D01*
X004507Y010803D02*
X004430Y010803D01*
X004430Y010705D02*
X004507Y010705D01*
X004703Y010902D02*
X005022Y010902D01*
X004917Y010803D02*
X004808Y010803D01*
X005218Y010803D02*
X005295Y010803D01*
X005295Y010705D02*
X005218Y010705D01*
X005218Y010606D02*
X005295Y010606D01*
X005295Y010902D02*
X005218Y010902D01*
X005491Y010902D02*
X005809Y010902D01*
X005704Y010803D02*
X005596Y010803D01*
X006005Y010803D02*
X006082Y010803D01*
X006082Y010705D02*
X006005Y010705D01*
X006005Y010606D02*
X006082Y010606D01*
X006383Y010803D02*
X006492Y010803D01*
X006597Y010902D02*
X006278Y010902D01*
X006082Y010902D02*
X006005Y010902D01*
X006793Y010902D02*
X006870Y010902D01*
X006870Y010803D02*
X006793Y010803D01*
X006793Y010705D02*
X006870Y010705D01*
X006870Y010606D02*
X006793Y010606D01*
X007065Y010902D02*
X007384Y010902D01*
X007279Y010803D02*
X007171Y010803D01*
X007580Y010803D02*
X007657Y010803D01*
X007657Y010705D02*
X007580Y010705D01*
X007580Y010606D02*
X007657Y010606D01*
X007657Y010902D02*
X007580Y010902D01*
X008367Y010902D02*
X008444Y010902D01*
X006934Y009317D02*
X007247Y009004D01*
X007380Y008871D01*
X007960Y008290D01*
X007960Y005948D01*
X007828Y006080D01*
X007690Y006080D01*
X007690Y005690D01*
X007610Y005690D01*
X007610Y006080D01*
X007472Y006080D01*
X007381Y005989D01*
X007381Y007937D01*
X007248Y008070D01*
X006007Y009311D01*
X006132Y009311D01*
X006296Y009379D01*
X006421Y009504D01*
X006437Y009543D01*
X006454Y009504D01*
X006579Y009379D01*
X006743Y009311D01*
X006920Y009311D01*
X006934Y009317D01*
X007023Y009227D02*
X006091Y009227D01*
X006167Y009326D02*
X006708Y009326D01*
X006534Y009424D02*
X006341Y009424D01*
X006429Y009523D02*
X006446Y009523D01*
X006190Y009129D02*
X007122Y009129D01*
X007220Y009030D02*
X006288Y009030D01*
X006387Y008932D02*
X007319Y008932D01*
X007380Y008871D02*
X007380Y008871D01*
X007417Y008833D02*
X006485Y008833D01*
X006584Y008735D02*
X007516Y008735D01*
X007614Y008636D02*
X006682Y008636D01*
X006781Y008538D02*
X007713Y008538D01*
X007811Y008439D02*
X006879Y008439D01*
X006978Y008341D02*
X007910Y008341D01*
X007960Y008242D02*
X007076Y008242D01*
X007175Y008144D02*
X007960Y008144D01*
X007960Y008045D02*
X007273Y008045D01*
X007372Y007947D02*
X007960Y007947D01*
X007960Y007848D02*
X007381Y007848D01*
X007381Y007750D02*
X007960Y007750D01*
X007960Y007651D02*
X007381Y007651D01*
X007381Y007553D02*
X007960Y007553D01*
X007960Y007454D02*
X007381Y007454D01*
X007381Y007356D02*
X007960Y007356D01*
X007960Y007257D02*
X007381Y007257D01*
X007381Y007159D02*
X007960Y007159D01*
X007960Y007060D02*
X007381Y007060D01*
X007381Y006962D02*
X007960Y006962D01*
X007960Y006863D02*
X007381Y006863D01*
X007381Y006765D02*
X007960Y006765D01*
X007960Y006666D02*
X007381Y006666D01*
X007381Y006568D02*
X007960Y006568D01*
X007960Y006469D02*
X007381Y006469D01*
X007381Y006371D02*
X007960Y006371D01*
X007960Y006272D02*
X007381Y006272D01*
X007381Y006174D02*
X007960Y006174D01*
X007960Y006075D02*
X007833Y006075D01*
X007932Y005977D02*
X007960Y005977D01*
X007690Y005977D02*
X007610Y005977D01*
X007610Y006075D02*
X007690Y006075D01*
X007690Y005878D02*
X007610Y005878D01*
X007610Y005780D02*
X007690Y005780D01*
X007690Y005583D02*
X007610Y005583D01*
X007610Y005484D02*
X007690Y005484D01*
X007690Y005386D02*
X007610Y005386D01*
X007610Y005287D02*
X007690Y005287D01*
X007895Y005287D02*
X008011Y005287D01*
X008109Y005189D02*
X007472Y005189D01*
X007405Y005287D02*
X007381Y005287D01*
X006927Y005287D02*
X006895Y005287D01*
X006927Y005189D02*
X006439Y005189D01*
X006405Y005287D02*
X006397Y005287D01*
X006610Y005287D02*
X006690Y005287D01*
X006690Y005386D02*
X006610Y005386D01*
X006610Y005484D02*
X006690Y005484D01*
X006690Y005583D02*
X006610Y005583D01*
X006610Y005690D02*
X006610Y006080D01*
X006472Y006080D01*
X006397Y006005D01*
X006397Y008134D01*
X006264Y008267D01*
X005220Y009311D01*
X005345Y009311D01*
X005359Y009317D01*
X006927Y007749D01*
X006927Y005981D01*
X006828Y006080D01*
X006690Y006080D01*
X006690Y005690D01*
X006610Y005690D01*
X006610Y005780D02*
X006690Y005780D01*
X006690Y005878D02*
X006610Y005878D01*
X006610Y005977D02*
X006690Y005977D01*
X006690Y006075D02*
X006610Y006075D01*
X006467Y006075D02*
X006397Y006075D01*
X006397Y006174D02*
X006927Y006174D01*
X006927Y006272D02*
X006397Y006272D01*
X006397Y006371D02*
X006927Y006371D01*
X006927Y006469D02*
X006397Y006469D01*
X006397Y006568D02*
X006927Y006568D01*
X006927Y006666D02*
X006397Y006666D01*
X006397Y006765D02*
X006927Y006765D01*
X006927Y006863D02*
X006397Y006863D01*
X006397Y006962D02*
X006927Y006962D01*
X006927Y007060D02*
X006397Y007060D01*
X006397Y007159D02*
X006927Y007159D01*
X006927Y007257D02*
X006397Y007257D01*
X006397Y007356D02*
X006927Y007356D01*
X006927Y007454D02*
X006397Y007454D01*
X006397Y007553D02*
X006927Y007553D01*
X006927Y007651D02*
X006397Y007651D01*
X006397Y007750D02*
X006926Y007750D01*
X006828Y007848D02*
X006397Y007848D01*
X006397Y007947D02*
X006729Y007947D01*
X006631Y008045D02*
X006397Y008045D01*
X006387Y008144D02*
X006532Y008144D01*
X006434Y008242D02*
X006289Y008242D01*
X006335Y008341D02*
X006190Y008341D01*
X006237Y008439D02*
X006092Y008439D01*
X006138Y008538D02*
X005993Y008538D01*
X006040Y008636D02*
X005895Y008636D01*
X005941Y008735D02*
X005796Y008735D01*
X005843Y008833D02*
X005698Y008833D01*
X005744Y008932D02*
X005599Y008932D01*
X005646Y009030D02*
X005501Y009030D01*
X005547Y009129D02*
X005402Y009129D01*
X005449Y009227D02*
X005304Y009227D01*
X004957Y008932D02*
X004812Y008932D01*
X004837Y008907D02*
X004432Y009311D01*
X004557Y009311D01*
X004571Y009317D01*
X005943Y007946D01*
X005943Y005966D01*
X005828Y006080D01*
X005690Y006080D01*
X005690Y005690D01*
X005610Y005690D01*
X005610Y006080D01*
X005472Y006080D01*
X005337Y005945D01*
X005280Y006003D01*
X004970Y006313D01*
X004970Y008774D01*
X004837Y008907D01*
X004910Y008833D02*
X005055Y008833D01*
X004970Y008735D02*
X005154Y008735D01*
X005252Y008636D02*
X004970Y008636D01*
X004970Y008538D02*
X005351Y008538D01*
X005449Y008439D02*
X004970Y008439D01*
X004970Y008341D02*
X005548Y008341D01*
X005646Y008242D02*
X004970Y008242D01*
X004970Y008144D02*
X005745Y008144D01*
X005843Y008045D02*
X004970Y008045D01*
X004970Y007947D02*
X005942Y007947D01*
X005943Y007848D02*
X004970Y007848D01*
X004970Y007750D02*
X005943Y007750D01*
X005943Y007651D02*
X004970Y007651D01*
X004970Y007553D02*
X005943Y007553D01*
X005943Y007454D02*
X004970Y007454D01*
X004970Y007356D02*
X005943Y007356D01*
X005943Y007257D02*
X004970Y007257D01*
X004970Y007159D02*
X005943Y007159D01*
X005943Y007060D02*
X004970Y007060D01*
X004970Y006962D02*
X005943Y006962D01*
X005943Y006863D02*
X004970Y006863D01*
X004970Y006765D02*
X005943Y006765D01*
X005943Y006666D02*
X004970Y006666D01*
X004970Y006568D02*
X005943Y006568D01*
X005943Y006469D02*
X004970Y006469D01*
X004970Y006371D02*
X005943Y006371D01*
X005943Y006272D02*
X005011Y006272D01*
X005109Y006174D02*
X005943Y006174D01*
X005943Y006075D02*
X005833Y006075D01*
X005932Y005977D02*
X005943Y005977D01*
X005690Y005977D02*
X005610Y005977D01*
X005610Y006075D02*
X005690Y006075D01*
X005690Y005878D02*
X005610Y005878D01*
X005610Y005780D02*
X005690Y005780D01*
X005690Y005583D02*
X005610Y005583D01*
X005610Y005484D02*
X005690Y005484D01*
X005690Y005386D02*
X005610Y005386D01*
X005610Y005287D02*
X005690Y005287D01*
X005895Y005287D02*
X005943Y005287D01*
X005943Y005189D02*
X005454Y005189D01*
X005844Y005090D02*
X005943Y005090D01*
X005942Y004992D02*
X005993Y004992D01*
X006041Y004893D02*
X006092Y004893D01*
X006098Y004795D02*
X006190Y004795D01*
X006202Y004696D02*
X006098Y004696D01*
X006098Y004598D02*
X006202Y004598D01*
X006202Y004499D02*
X006144Y004499D01*
X006242Y004401D02*
X006266Y004401D01*
X006341Y004302D02*
X006364Y004302D01*
X006439Y004204D02*
X006463Y004204D01*
X006538Y004105D02*
X009437Y004105D01*
X009437Y004007D02*
X006636Y004007D01*
X006735Y003908D02*
X009437Y003908D01*
X009437Y003810D02*
X006833Y003810D01*
X006932Y003711D02*
X009437Y003711D01*
X009437Y003613D02*
X007030Y003613D01*
X007129Y003514D02*
X009437Y003514D01*
X009437Y003416D02*
X007227Y003416D01*
X007326Y003317D02*
X009437Y003317D01*
X009489Y003219D02*
X007572Y003219D01*
X007720Y003120D02*
X013080Y003120D01*
X010690Y005780D02*
X010610Y005780D01*
X010610Y005878D02*
X010690Y005878D01*
X008467Y006075D02*
X008415Y006075D01*
X007467Y006075D02*
X007381Y006075D01*
X006927Y006075D02*
X006833Y006075D01*
X006844Y005090D02*
X006928Y005090D01*
X006942Y004992D02*
X007027Y004992D01*
X007041Y004893D02*
X007125Y004893D01*
X007098Y004795D02*
X007202Y004795D01*
X007202Y004696D02*
X007098Y004696D01*
X007098Y004598D02*
X007202Y004598D01*
X007202Y004499D02*
X007098Y004499D01*
X007034Y004401D02*
X007266Y004401D01*
X007364Y004302D02*
X006936Y004302D01*
X006837Y004204D02*
X007463Y004204D01*
X007837Y004204D02*
X008463Y004204D01*
X008364Y004302D02*
X007936Y004302D01*
X008034Y004401D02*
X008266Y004401D01*
X008202Y004499D02*
X008098Y004499D01*
X008098Y004598D02*
X008202Y004598D01*
X008202Y004696D02*
X008098Y004696D01*
X008098Y004795D02*
X008202Y004795D01*
X008259Y004893D02*
X008041Y004893D01*
X007942Y004992D02*
X008306Y004992D01*
X008208Y005090D02*
X007844Y005090D01*
X005467Y006075D02*
X005208Y006075D01*
X005306Y005977D02*
X005368Y005977D01*
X004690Y005583D02*
X004610Y005583D01*
X004610Y005681D02*
X004098Y005681D01*
X004098Y005583D02*
X004220Y005583D01*
X004220Y005484D02*
X004098Y005484D01*
X004019Y005386D02*
X004306Y005386D01*
X004610Y005386D02*
X004690Y005386D01*
X004690Y005484D02*
X004610Y005484D01*
X004610Y005287D02*
X004690Y005287D01*
X004895Y005287D02*
X004958Y005287D01*
X004270Y005878D02*
X004056Y005878D01*
X004098Y005780D02*
X004220Y005780D01*
X004368Y005977D02*
X003957Y005977D01*
X003859Y006075D02*
X004467Y006075D01*
X004515Y006174D02*
X003541Y006174D01*
X003442Y006272D02*
X004515Y006272D01*
X004515Y006371D02*
X003344Y006371D01*
X003245Y006469D02*
X004515Y006469D01*
X004515Y006568D02*
X003147Y006568D01*
X003139Y006666D02*
X004515Y006666D01*
X004515Y006765D02*
X003139Y006765D01*
X003139Y006863D02*
X004515Y006863D01*
X004515Y006962D02*
X003139Y006962D01*
X003139Y007060D02*
X004515Y007060D01*
X004515Y007159D02*
X003139Y007159D01*
X003139Y007257D02*
X004515Y007257D01*
X004515Y007356D02*
X003139Y007356D01*
X003139Y007454D02*
X004515Y007454D01*
X004515Y007553D02*
X003139Y007553D01*
X003139Y007651D02*
X004515Y007651D01*
X004515Y007750D02*
X003139Y007750D01*
X003139Y007848D02*
X004515Y007848D01*
X004515Y007947D02*
X003139Y007947D01*
X003139Y008045D02*
X004515Y008045D01*
X004515Y008144D02*
X003139Y008144D01*
X003139Y008242D02*
X004515Y008242D01*
X004515Y008341D02*
X003139Y008341D01*
X003139Y008439D02*
X004515Y008439D01*
X004515Y008538D02*
X003139Y008538D01*
X003139Y008636D02*
X004465Y008636D01*
X004366Y008735D02*
X003139Y008735D01*
X003139Y008833D02*
X004268Y008833D01*
X004169Y008932D02*
X003139Y008932D01*
X003138Y009030D02*
X004071Y009030D01*
X003972Y009129D02*
X003096Y009129D01*
X002997Y009227D02*
X003874Y009227D01*
X003558Y009326D02*
X003018Y009326D01*
X003192Y009424D02*
X003384Y009424D01*
X003296Y009523D02*
X003279Y009523D01*
X004516Y009227D02*
X004661Y009227D01*
X004615Y009129D02*
X004760Y009129D01*
X004713Y009030D02*
X004858Y009030D01*
X002660Y010902D02*
X002379Y010902D01*
X002477Y010803D02*
X002554Y010803D01*
X002734Y014349D02*
X002256Y014349D01*
X002396Y014448D02*
X002567Y014448D01*
X002490Y014546D02*
X002470Y014546D01*
X002824Y014546D02*
X002901Y014546D01*
X002901Y014448D02*
X002824Y014448D01*
X002824Y014349D02*
X002901Y014349D01*
X002991Y014349D02*
X003521Y014349D01*
X003611Y014349D02*
X003689Y014349D01*
X003779Y014349D02*
X004220Y014349D01*
X004116Y014448D02*
X003945Y014448D01*
X004022Y014546D02*
X004043Y014546D01*
X003689Y014546D02*
X003611Y014546D01*
X003611Y014448D02*
X003689Y014448D01*
X003689Y014645D02*
X003611Y014645D01*
X003611Y014743D02*
X002901Y014743D01*
X002901Y014645D02*
X002824Y014645D01*
X003158Y014448D02*
X003355Y014448D01*
X003278Y014546D02*
X003235Y014546D01*
X007247Y009004D02*
X007247Y009004D01*
X010728Y011296D02*
X010786Y011296D01*
X020000Y002332D02*
X001300Y002332D01*
X001300Y002234D02*
X020000Y002234D01*
X020000Y002135D02*
X001300Y002135D01*
X001300Y002037D02*
X020000Y002037D01*
X020000Y001938D02*
X001300Y001938D01*
X001300Y001840D02*
X020000Y001840D01*
X020000Y001741D02*
X001300Y001741D01*
X001300Y001643D02*
X020000Y001643D01*
X020000Y001544D02*
X001300Y001544D01*
X001300Y001446D02*
X020000Y001446D01*
X020000Y001347D02*
X001300Y001347D01*
M02*
