G75*
%MOIN*%
%OFA0B0*%
%FSLAX24Y24*%
%IPPOS*%
%LPD*%
%AMOC8*
5,1,8,0,0,1.08239X$1,22.5*
%
%ADD10C,0.0000*%
%ADD11C,0.0040*%
%ADD12C,0.0050*%
%ADD13C,0.0060*%
%ADD14C,0.0020*%
%ADD15C,0.0080*%
%ADD16C,0.0010*%
%ADD17R,0.0800X0.0200*%
%ADD18R,0.0200X0.0250*%
%ADD19C,0.0300*%
%ADD20R,0.0300X0.0200*%
%ADD21R,0.0300X0.0400*%
D10*
X001150Y001150D02*
X001150Y020150D01*
X020150Y020150D01*
X020150Y001150D01*
X001150Y001150D01*
D11*
X001670Y002670D02*
X001977Y002670D01*
X001823Y002670D02*
X001823Y003130D01*
X001670Y002977D01*
X002947Y002076D02*
X003213Y002229D01*
X003080Y002153D02*
X003310Y001754D01*
X003537Y001974D02*
X003565Y002079D01*
X003765Y002194D01*
X003726Y002260D02*
X003842Y002061D01*
X003642Y001946D01*
X003537Y001974D01*
X003489Y002212D02*
X003622Y002288D01*
X003726Y002260D01*
X003898Y002271D02*
X003954Y002480D01*
X004020Y002519D01*
X004192Y002529D02*
X004220Y002634D01*
X004419Y002749D01*
X004611Y002417D01*
X004583Y002312D01*
X004516Y002273D01*
X004373Y002368D02*
X004572Y002483D01*
X004667Y002626D02*
X004590Y002759D01*
X004618Y002864D01*
X004751Y002941D01*
X004856Y002913D01*
X004894Y002846D01*
X004629Y002693D01*
X004667Y002626D02*
X004772Y002598D01*
X004905Y002675D01*
X005132Y002895D02*
X005237Y002867D01*
X005132Y002895D02*
X004979Y003161D01*
X004951Y003056D02*
X005084Y003132D01*
X004373Y002368D02*
X004268Y002396D01*
X004192Y002529D01*
X003821Y002404D02*
X003974Y002138D01*
X004915Y002076D02*
X005115Y002191D01*
X005219Y002163D01*
X005296Y002030D01*
X005268Y001925D01*
X005069Y001810D01*
X005146Y001677D02*
X004915Y002076D01*
X005429Y002107D02*
X005506Y001974D01*
X005611Y001946D01*
X005744Y002023D01*
X005772Y002127D01*
X005695Y002260D01*
X005590Y002288D01*
X005457Y002212D01*
X005429Y002107D01*
X005789Y002404D02*
X005905Y002204D01*
X006009Y002176D01*
X006037Y002281D01*
X006142Y002253D01*
X006170Y002358D01*
X006055Y002557D01*
X006227Y002567D02*
X006303Y002434D01*
X006408Y002406D01*
X006541Y002483D01*
X006531Y002654D02*
X006265Y002501D01*
X006227Y002567D02*
X006255Y002672D01*
X006388Y002749D01*
X006492Y002721D01*
X006531Y002654D01*
X006664Y002731D02*
X006720Y002941D01*
X006786Y002979D01*
X006587Y002864D02*
X006740Y002598D01*
X006950Y002114D02*
X007083Y002191D01*
X007188Y002163D01*
X007198Y001992D02*
X007303Y001964D01*
X007341Y001897D01*
X007313Y001792D01*
X007180Y001716D01*
X007076Y001744D01*
X007065Y001915D02*
X007198Y001992D01*
X007065Y001915D02*
X006961Y001943D01*
X006922Y002010D01*
X006950Y002114D01*
X007359Y002173D02*
X007492Y002250D01*
X007387Y002278D02*
X007541Y002012D01*
X007646Y001984D01*
X007740Y002127D02*
X007768Y002232D01*
X007968Y002347D01*
X007929Y002414D02*
X008044Y002214D01*
X007845Y002099D01*
X007740Y002127D01*
X007692Y002365D02*
X007824Y002442D01*
X007929Y002414D01*
X008024Y002557D02*
X008157Y002634D01*
X008052Y002662D02*
X008205Y002396D01*
X008310Y002368D01*
X008405Y002511D02*
X008509Y002483D01*
X008709Y002598D01*
X008555Y002864D01*
X008727Y002874D02*
X008755Y002979D01*
X008954Y003094D01*
X008964Y002923D02*
X008831Y002846D01*
X008727Y002874D01*
X008842Y002675D02*
X009041Y002790D01*
X009069Y002895D01*
X008964Y002923D01*
X008405Y002511D02*
X008290Y002710D01*
X011670Y002650D02*
X011747Y002727D01*
X011900Y002727D01*
X011977Y002650D01*
X011977Y002420D01*
X012207Y002497D02*
X012284Y002420D01*
X012207Y002497D02*
X012207Y002804D01*
X012130Y002727D02*
X012284Y002727D01*
X012437Y002727D02*
X012591Y002727D01*
X012514Y002804D02*
X012514Y002497D01*
X012591Y002420D01*
X012744Y002420D02*
X012974Y002420D01*
X013051Y002497D01*
X013051Y002650D01*
X012974Y002727D01*
X012744Y002727D01*
X012744Y002267D01*
X012744Y002130D02*
X012437Y002130D01*
X012437Y001670D01*
X012744Y001670D01*
X012591Y001900D02*
X012437Y001900D01*
X012284Y001747D02*
X012207Y001670D01*
X012054Y001670D01*
X011977Y001747D01*
X011977Y002054D01*
X012054Y002130D01*
X012207Y002130D01*
X012284Y002054D01*
X011823Y002130D02*
X011670Y002130D01*
X011747Y002130D02*
X011747Y001670D01*
X011823Y001670D02*
X011670Y001670D01*
X011670Y002420D02*
X011670Y002880D01*
X013205Y002727D02*
X013205Y002650D01*
X013281Y002650D01*
X013281Y002727D01*
X013205Y002727D01*
X013205Y002497D02*
X013205Y002420D01*
X013281Y002420D01*
X013281Y002497D01*
X013205Y002497D01*
X013358Y002130D02*
X013358Y001670D01*
X013358Y001900D02*
X013435Y001977D01*
X013588Y001977D01*
X013665Y001900D01*
X013665Y001670D01*
X013818Y001747D02*
X013818Y001900D01*
X013895Y001977D01*
X014049Y001977D01*
X014125Y001900D01*
X014125Y001823D01*
X013818Y001823D01*
X013818Y001747D02*
X013895Y001670D01*
X014049Y001670D01*
X014279Y001747D02*
X014356Y001670D01*
X014586Y001670D01*
X014586Y001900D01*
X014509Y001977D01*
X014356Y001977D01*
X014356Y001823D02*
X014586Y001823D01*
X014739Y001747D02*
X014816Y001670D01*
X015046Y001670D01*
X015046Y002130D01*
X015046Y001977D02*
X014816Y001977D01*
X014739Y001900D01*
X014739Y001747D01*
X014356Y001823D02*
X014279Y001747D01*
X014432Y002420D02*
X014356Y002497D01*
X014432Y002573D01*
X014663Y002573D01*
X014663Y002650D02*
X014663Y002420D01*
X014432Y002420D01*
X014432Y002727D02*
X014586Y002727D01*
X014663Y002650D01*
X014816Y002727D02*
X014969Y002727D01*
X014893Y002804D02*
X014893Y002497D01*
X014969Y002420D01*
X015123Y002497D02*
X015200Y002420D01*
X015353Y002420D01*
X015430Y002497D01*
X015430Y002650D01*
X015353Y002727D01*
X015200Y002727D01*
X015123Y002650D01*
X015123Y002497D01*
X015583Y002497D02*
X015660Y002420D01*
X015814Y002420D01*
X015890Y002497D01*
X015890Y002650D01*
X015814Y002727D01*
X015660Y002727D01*
X015583Y002650D01*
X015583Y002497D01*
X016044Y002420D02*
X016044Y002727D01*
X016120Y002727D01*
X016197Y002650D01*
X016274Y002727D01*
X016351Y002650D01*
X016351Y002420D01*
X016504Y002420D02*
X016504Y002727D01*
X016734Y002727D01*
X016811Y002650D01*
X016811Y002420D01*
X016965Y002497D02*
X016965Y002650D01*
X017041Y002727D01*
X017195Y002727D01*
X017271Y002650D01*
X017271Y002573D01*
X016965Y002573D01*
X016965Y002497D02*
X017041Y002420D01*
X017195Y002420D01*
X017271Y002130D02*
X017271Y001670D01*
X017041Y001670D01*
X016965Y001747D01*
X016965Y001900D01*
X017041Y001977D01*
X017271Y001977D01*
X017502Y001977D02*
X017655Y001977D01*
X017732Y001900D01*
X017732Y001670D01*
X017502Y001670D01*
X017425Y001747D01*
X017502Y001823D01*
X017732Y001823D01*
X017885Y001670D02*
X018115Y001670D01*
X018192Y001747D01*
X018192Y001900D01*
X018115Y001977D01*
X017885Y001977D01*
X017885Y001517D01*
X018422Y001747D02*
X018499Y001670D01*
X018422Y001747D02*
X018422Y002054D01*
X018346Y001977D02*
X018499Y001977D01*
X018653Y001900D02*
X018729Y001977D01*
X018883Y001977D01*
X018960Y001900D01*
X018960Y001823D01*
X018653Y001823D01*
X018653Y001747D02*
X018653Y001900D01*
X018653Y001747D02*
X018729Y001670D01*
X018883Y001670D01*
X019113Y001670D02*
X019113Y001977D01*
X019266Y001977D02*
X019113Y001823D01*
X019266Y001977D02*
X019343Y001977D01*
X019036Y002420D02*
X018960Y002497D01*
X018960Y002804D01*
X018883Y002727D02*
X019036Y002727D01*
X018729Y002650D02*
X018729Y002573D01*
X018422Y002573D01*
X018422Y002497D02*
X018422Y002650D01*
X018499Y002727D01*
X018653Y002727D01*
X018729Y002650D01*
X018653Y002420D02*
X018499Y002420D01*
X018422Y002497D01*
X018269Y002420D02*
X018269Y002650D01*
X018192Y002727D01*
X017962Y002727D01*
X017962Y002420D01*
X017809Y002420D02*
X017732Y002420D01*
X017732Y002497D01*
X017809Y002497D01*
X017809Y002420D01*
X017578Y002420D02*
X017502Y002497D01*
X017502Y002804D01*
X017425Y002727D02*
X017578Y002727D01*
X016811Y001900D02*
X016811Y001670D01*
X016581Y001670D01*
X016504Y001747D01*
X016581Y001823D01*
X016811Y001823D01*
X016811Y001900D02*
X016734Y001977D01*
X016581Y001977D01*
X016197Y002420D02*
X016197Y002650D01*
X015890Y001977D02*
X015814Y001977D01*
X015660Y001823D01*
X015660Y001670D02*
X015660Y001977D01*
X015507Y001900D02*
X015507Y001823D01*
X015200Y001823D01*
X015200Y001747D02*
X015200Y001900D01*
X015276Y001977D01*
X015430Y001977D01*
X015507Y001900D01*
X015430Y001670D02*
X015276Y001670D01*
X015200Y001747D01*
X013895Y002420D02*
X014202Y002880D01*
X013742Y002880D02*
X013435Y002420D01*
X013670Y007670D02*
X013977Y007670D01*
X013823Y007670D02*
X013823Y008130D01*
X013670Y007977D01*
X013670Y012170D02*
X013670Y012477D01*
X013823Y012630D01*
X013977Y012477D01*
X013977Y012170D01*
X014130Y012323D02*
X014284Y012170D01*
X014437Y012323D01*
X014437Y012630D01*
X014591Y012630D02*
X014821Y012630D01*
X014898Y012554D01*
X014898Y012400D01*
X014821Y012323D01*
X014591Y012323D01*
X014591Y012170D02*
X014591Y012630D01*
X014744Y012323D02*
X014898Y012170D01*
X015051Y012247D02*
X015051Y012400D01*
X015281Y012400D01*
X015358Y012323D01*
X015358Y012247D01*
X015281Y012170D01*
X015128Y012170D01*
X015051Y012247D01*
X015051Y012400D02*
X015205Y012554D01*
X015358Y012630D01*
X015512Y012400D02*
X015818Y012400D01*
X015972Y012554D02*
X016049Y012630D01*
X016202Y012630D01*
X016279Y012554D01*
X016279Y012477D01*
X015972Y012170D01*
X016279Y012170D01*
X016432Y012170D02*
X016509Y012170D01*
X016509Y012247D01*
X016432Y012247D01*
X016432Y012170D01*
X016663Y012247D02*
X016739Y012170D01*
X016893Y012170D01*
X016969Y012247D01*
X016969Y012400D01*
X016893Y012477D01*
X016816Y012477D01*
X016663Y012400D01*
X016663Y012630D01*
X016969Y012630D01*
X017123Y012400D02*
X017430Y012400D01*
X017353Y012170D02*
X017353Y012630D01*
X017123Y012400D01*
X014130Y012323D02*
X014130Y012630D01*
X013977Y012400D02*
X013670Y012400D01*
X011977Y012670D02*
X011670Y012670D01*
X011823Y012670D02*
X011823Y013130D01*
X011670Y012977D01*
X008880Y016170D02*
X008420Y016170D01*
X008420Y016400D01*
X008496Y016477D01*
X008650Y016477D01*
X008727Y016400D01*
X008727Y016170D01*
X008880Y016630D02*
X008420Y016630D01*
X008420Y016937D02*
X008880Y016937D01*
X008727Y016784D01*
X008880Y016630D01*
X008880Y017091D02*
X008420Y017091D01*
X008420Y017321D01*
X008496Y017398D01*
X008650Y017398D01*
X008727Y017321D01*
X008727Y017091D01*
X008727Y017244D02*
X008880Y017398D01*
X008583Y018170D02*
X008583Y018247D01*
X008890Y018554D01*
X008890Y018630D01*
X008583Y018630D01*
X008430Y018554D02*
X008430Y018477D01*
X008123Y018170D01*
X008430Y018170D01*
X008430Y018554D02*
X008353Y018630D01*
X008200Y018630D01*
X008123Y018554D01*
X007969Y018247D02*
X007969Y018170D01*
X007893Y018170D01*
X007893Y018247D01*
X007969Y018247D01*
X007739Y018170D02*
X007432Y018170D01*
X007586Y018170D02*
X007586Y018630D01*
X007432Y018477D01*
X007279Y018400D02*
X006972Y018400D01*
X006818Y018247D02*
X006742Y018170D01*
X006588Y018170D01*
X006512Y018247D01*
X006818Y018554D01*
X006818Y018247D01*
X006512Y018247D02*
X006512Y018554D01*
X006588Y018630D01*
X006742Y018630D01*
X006818Y018554D01*
X006358Y018170D02*
X006051Y018170D01*
X005898Y018170D02*
X005898Y018630D01*
X005744Y018477D01*
X005591Y018630D01*
X005591Y018170D01*
X005437Y018170D02*
X005437Y018477D01*
X005284Y018630D01*
X005130Y018477D01*
X005130Y018170D01*
X004977Y018247D02*
X004977Y018323D01*
X004900Y018400D01*
X004747Y018400D01*
X004670Y018477D01*
X004670Y018554D01*
X004747Y018630D01*
X004900Y018630D01*
X004977Y018554D01*
X005130Y018400D02*
X005437Y018400D01*
X004977Y018247D02*
X004900Y018170D01*
X004747Y018170D01*
X004670Y018247D01*
X006051Y018477D02*
X006205Y018630D01*
X006205Y018170D01*
X005534Y016630D02*
X005611Y016554D01*
X005304Y016247D01*
X005381Y016170D01*
X005534Y016170D01*
X005611Y016247D01*
X005611Y016554D01*
X005534Y016630D02*
X005381Y016630D01*
X005304Y016554D01*
X005304Y016247D01*
X005151Y016247D02*
X005151Y016170D01*
X005074Y016170D01*
X005074Y016247D01*
X005151Y016247D01*
X004920Y016170D02*
X004613Y016170D01*
X004920Y016477D01*
X004920Y016554D01*
X004844Y016630D01*
X004690Y016630D01*
X004613Y016554D01*
X004460Y016400D02*
X004153Y016400D01*
X004000Y016247D02*
X003923Y016170D01*
X003769Y016170D01*
X003693Y016247D01*
X004000Y016554D01*
X004000Y016247D01*
X004000Y016554D02*
X003923Y016630D01*
X003769Y016630D01*
X003693Y016554D01*
X003693Y016247D01*
X003539Y016170D02*
X003232Y016170D01*
X003079Y016170D02*
X003079Y016630D01*
X002925Y016477D01*
X002772Y016630D01*
X002772Y016170D01*
X002618Y016170D02*
X002618Y016477D01*
X002465Y016630D01*
X002311Y016477D01*
X002311Y016170D01*
X002158Y016247D02*
X002081Y016170D01*
X001928Y016170D01*
X001851Y016247D01*
X001928Y016400D02*
X001851Y016477D01*
X001851Y016554D01*
X001928Y016630D01*
X002081Y016630D01*
X002158Y016554D01*
X002081Y016400D02*
X002158Y016323D01*
X002158Y016247D01*
X002081Y016400D02*
X001928Y016400D01*
X002311Y016400D02*
X002618Y016400D01*
X003232Y016477D02*
X003386Y016630D01*
X003386Y016170D01*
X002227Y017420D02*
X001920Y017420D01*
X002073Y017420D02*
X002073Y017880D01*
X001920Y017727D01*
X001823Y014130D02*
X001823Y013670D01*
X001670Y013670D02*
X001977Y013670D01*
X001670Y013977D02*
X001823Y014130D01*
X001959Y011630D02*
X001883Y011554D01*
X001883Y011477D01*
X001959Y011400D01*
X002113Y011400D01*
X002190Y011323D01*
X002190Y011247D01*
X002113Y011170D01*
X001959Y011170D01*
X001883Y011247D01*
X001959Y011630D02*
X002113Y011630D01*
X002190Y011554D01*
X002343Y011477D02*
X002496Y011630D01*
X002650Y011477D01*
X002650Y011170D01*
X002803Y011170D02*
X002803Y011630D01*
X002957Y011477D01*
X003110Y011630D01*
X003110Y011170D01*
X003264Y011170D02*
X003571Y011477D01*
X003571Y011554D01*
X003494Y011630D01*
X003341Y011630D01*
X003264Y011554D01*
X003264Y011170D02*
X003571Y011170D01*
X003724Y011247D02*
X004031Y011554D01*
X004031Y011247D01*
X003954Y011170D01*
X003801Y011170D01*
X003724Y011247D01*
X003724Y011554D01*
X003801Y011630D01*
X003954Y011630D01*
X004031Y011554D01*
X004185Y011400D02*
X004491Y011400D01*
X004645Y011554D02*
X004722Y011630D01*
X004875Y011630D01*
X004952Y011554D01*
X004952Y011477D01*
X004645Y011170D01*
X004952Y011170D01*
X005105Y011170D02*
X005182Y011170D01*
X005182Y011247D01*
X005105Y011247D01*
X005105Y011170D01*
X005336Y011247D02*
X005336Y011554D01*
X005412Y011630D01*
X005566Y011630D01*
X005642Y011554D01*
X005336Y011247D01*
X005412Y011170D01*
X005566Y011170D01*
X005642Y011247D01*
X005642Y011554D01*
X002650Y011400D02*
X002343Y011400D01*
X002343Y011477D02*
X002343Y011170D01*
X001823Y009130D02*
X001670Y008977D01*
X001823Y009130D02*
X001823Y008670D01*
X001670Y008670D02*
X001977Y008670D01*
X001900Y007630D02*
X001747Y007630D01*
X001670Y007554D01*
X001670Y007477D01*
X001747Y007400D01*
X001900Y007400D01*
X001977Y007323D01*
X001977Y007247D01*
X001900Y007170D01*
X001747Y007170D01*
X001670Y007247D01*
X001977Y007554D02*
X001900Y007630D01*
X002130Y007477D02*
X002130Y007170D01*
X002130Y007400D02*
X002437Y007400D01*
X002437Y007477D02*
X002284Y007630D01*
X002130Y007477D01*
X002437Y007477D02*
X002437Y007170D01*
X002591Y007170D02*
X002591Y007630D01*
X002744Y007477D01*
X002898Y007630D01*
X002898Y007170D01*
X003051Y007170D02*
X003358Y007477D01*
X003358Y007554D01*
X003281Y007630D01*
X003128Y007630D01*
X003051Y007554D01*
X003051Y007170D02*
X003358Y007170D01*
X003512Y007247D02*
X003818Y007554D01*
X003818Y007247D01*
X003742Y007170D01*
X003588Y007170D01*
X003512Y007247D01*
X003512Y007554D01*
X003588Y007630D01*
X003742Y007630D01*
X003818Y007554D01*
X003972Y007400D02*
X004279Y007400D01*
X004432Y007554D02*
X004509Y007630D01*
X004663Y007630D01*
X004739Y007554D01*
X004739Y007477D01*
X004432Y007170D01*
X004739Y007170D01*
X004893Y007170D02*
X004969Y007170D01*
X004969Y007247D01*
X004893Y007247D01*
X004893Y007170D01*
X005123Y007247D02*
X005200Y007170D01*
X005353Y007170D01*
X005430Y007247D01*
X005430Y007400D01*
X005353Y007477D01*
X005276Y007477D01*
X005123Y007400D01*
X005123Y007630D01*
X005430Y007630D01*
X005583Y007400D02*
X005890Y007400D01*
X005814Y007170D02*
X005814Y007630D01*
X005583Y007400D01*
X011670Y017170D02*
X011670Y017477D01*
X011823Y017630D01*
X011977Y017477D01*
X011977Y017170D01*
X012130Y017323D02*
X012284Y017170D01*
X012437Y017323D01*
X012437Y017630D01*
X012591Y017630D02*
X012821Y017630D01*
X012898Y017554D01*
X012898Y017400D01*
X012821Y017323D01*
X012591Y017323D01*
X012591Y017170D02*
X012591Y017630D01*
X012744Y017323D02*
X012898Y017170D01*
X013051Y017170D02*
X013358Y017170D01*
X013205Y017170D02*
X013205Y017630D01*
X013051Y017477D01*
X013512Y017554D02*
X013512Y017247D01*
X013818Y017554D01*
X013818Y017247D01*
X013742Y017170D01*
X013588Y017170D01*
X013512Y017247D01*
X013512Y017554D02*
X013588Y017630D01*
X013742Y017630D01*
X013818Y017554D01*
X013972Y017400D02*
X014279Y017400D01*
X014432Y017554D02*
X014509Y017630D01*
X014663Y017630D01*
X014739Y017554D01*
X014739Y017477D01*
X014432Y017170D01*
X014739Y017170D01*
X014893Y017170D02*
X014969Y017170D01*
X014969Y017247D01*
X014893Y017247D01*
X014893Y017170D01*
X015123Y017247D02*
X015200Y017170D01*
X015353Y017170D01*
X015430Y017247D01*
X015430Y017400D01*
X015353Y017477D01*
X015276Y017477D01*
X015123Y017400D01*
X015123Y017630D01*
X015430Y017630D01*
X015583Y017400D02*
X015890Y017400D01*
X015814Y017170D02*
X015814Y017630D01*
X015583Y017400D01*
X015670Y018170D02*
X015823Y018170D01*
X015747Y018170D02*
X015747Y018630D01*
X015823Y018630D02*
X015670Y018630D01*
X015977Y018554D02*
X015977Y018247D01*
X016054Y018170D01*
X016207Y018170D01*
X016284Y018247D01*
X016437Y018170D02*
X016744Y018170D01*
X016591Y018400D02*
X016437Y018400D01*
X016284Y018554D02*
X016207Y018630D01*
X016054Y018630D01*
X015977Y018554D01*
X016437Y018630D02*
X016437Y018170D01*
X016437Y018630D02*
X016744Y018630D01*
X016898Y018400D02*
X017205Y018400D01*
X017358Y018400D02*
X017665Y018400D01*
X017665Y018477D02*
X017665Y018170D01*
X017818Y018323D02*
X017972Y018170D01*
X018125Y018323D01*
X018125Y018630D01*
X018279Y018630D02*
X018509Y018630D01*
X018586Y018554D01*
X018586Y018400D01*
X018509Y018323D01*
X018279Y018323D01*
X018279Y018170D02*
X018279Y018630D01*
X018432Y018323D02*
X018586Y018170D01*
X017818Y018323D02*
X017818Y018630D01*
X017665Y018477D02*
X017512Y018630D01*
X017358Y018477D01*
X017358Y018170D01*
X012227Y018170D02*
X011920Y018170D01*
X012073Y018170D02*
X012073Y018630D01*
X011920Y018477D01*
X012130Y017630D02*
X012130Y017323D01*
X011977Y017400D02*
X011670Y017400D01*
D12*
X012450Y018050D02*
X012800Y018050D01*
X012800Y018100D01*
X012500Y018100D01*
X012500Y018400D01*
X012450Y018400D01*
X012450Y018050D01*
X012550Y018150D02*
X012800Y018150D01*
X012800Y018100D01*
X012800Y018150D02*
X015050Y018150D01*
X015050Y019150D01*
X012550Y019150D01*
X012550Y018400D01*
X012500Y018400D01*
X012550Y018400D02*
X012550Y018150D01*
X012750Y015875D02*
X012675Y015800D01*
X012750Y015875D02*
X012900Y015875D01*
X012975Y015800D01*
X012975Y015725D01*
X012675Y015425D01*
X012975Y015425D01*
X012825Y014875D02*
X012675Y014725D01*
X012825Y014875D02*
X012825Y014425D01*
X012675Y014425D02*
X012975Y014425D01*
X010875Y014390D02*
X010875Y014696D01*
X010773Y014797D01*
X010366Y014797D01*
X010264Y014696D01*
X010264Y014390D01*
X010875Y014390D01*
X010875Y014190D02*
X010264Y014190D01*
X010264Y013783D02*
X010875Y014190D01*
X010875Y013783D02*
X010264Y013783D01*
X010366Y013582D02*
X010264Y013480D01*
X010264Y013277D01*
X010366Y013175D01*
X010773Y013175D01*
X010875Y013277D01*
X010875Y013480D01*
X010773Y013582D01*
X010570Y013582D01*
X010570Y013379D01*
X009629Y014277D02*
X009629Y014684D01*
X009832Y014480D02*
X009425Y014480D01*
X012125Y010036D02*
X012125Y009735D01*
X012125Y009886D02*
X011675Y009886D01*
X011825Y009735D01*
X011750Y009575D02*
X011675Y009500D01*
X011675Y009275D01*
X012125Y009275D01*
X012125Y009500D01*
X012050Y009575D01*
X011750Y009575D01*
X014675Y009425D02*
X014975Y009425D01*
X014825Y009425D02*
X014825Y009875D01*
X014675Y009725D01*
X014675Y010425D02*
X014975Y010725D01*
X014975Y010800D01*
X014900Y010875D01*
X014750Y010875D01*
X014675Y010800D01*
X014675Y010425D02*
X014975Y010425D01*
X016525Y008800D02*
X016750Y008800D01*
X016825Y008725D01*
X016825Y008650D01*
X016750Y008575D01*
X016600Y008575D01*
X016525Y008650D01*
X016525Y008800D01*
X016675Y008950D01*
X016825Y009025D01*
X015961Y013575D02*
X015810Y013575D01*
X015735Y013650D01*
X016036Y013950D01*
X016036Y013650D01*
X015961Y013575D01*
X015735Y013650D02*
X015735Y013950D01*
X015810Y014025D01*
X015961Y014025D01*
X016036Y013950D01*
X015575Y013575D02*
X015275Y013575D01*
X015425Y013575D02*
X015425Y014025D01*
X015275Y013875D01*
X008461Y004025D02*
X008536Y003950D01*
X008235Y003650D01*
X008310Y003575D01*
X008461Y003575D01*
X008536Y003650D01*
X008536Y003950D01*
X008461Y004025D02*
X008310Y004025D01*
X008235Y003950D01*
X008235Y003650D01*
X008075Y003575D02*
X007775Y003575D01*
X008075Y003875D01*
X008075Y003950D01*
X008000Y004025D01*
X007850Y004025D01*
X007775Y003950D01*
X002975Y004425D02*
X002675Y004425D01*
X002825Y004425D02*
X002825Y004875D01*
X002675Y004725D01*
X002675Y005425D02*
X002975Y005725D01*
X002975Y005800D01*
X002900Y005875D01*
X002750Y005875D01*
X002675Y005800D01*
X002675Y005425D02*
X002975Y005425D01*
X002150Y018050D02*
X001800Y018050D01*
X001800Y018400D01*
X001850Y018400D01*
X001900Y018400D01*
X001900Y019150D01*
X004400Y019150D01*
X004400Y018150D01*
X002150Y018150D01*
X002150Y018100D01*
X002150Y018050D01*
X002150Y018100D02*
X001850Y018100D01*
X001850Y018400D01*
X001900Y018400D02*
X001900Y018150D01*
X002150Y018150D01*
D13*
X009150Y017400D02*
X009150Y016400D01*
X010150Y016400D01*
X011150Y016400D01*
X011150Y017400D01*
X010150Y017400D01*
X009150Y017400D01*
X010150Y017400D02*
X010150Y016400D01*
X011650Y016900D02*
X011650Y013400D01*
X013400Y013400D01*
X013400Y013450D01*
X013900Y013450D01*
X013900Y013400D01*
X014850Y013400D01*
X014850Y013800D01*
X014850Y013900D01*
X012150Y013900D01*
X012150Y016400D01*
X019150Y016400D01*
X019150Y013900D01*
X017450Y013900D01*
X016850Y013900D01*
X016450Y013900D01*
X016450Y013800D01*
X016450Y013400D01*
X014850Y013400D01*
X014850Y013900D02*
X014850Y014200D01*
X016450Y014200D01*
X016450Y013900D01*
X016650Y013600D02*
X016850Y013600D01*
X017450Y013600D01*
X017450Y013800D01*
X017450Y013900D01*
X017450Y013600D02*
X017650Y013600D01*
X017800Y013400D01*
X019650Y013400D01*
X019650Y016900D01*
X019150Y016900D01*
X019150Y017000D01*
X018650Y017000D01*
X018650Y016900D01*
X015900Y016900D01*
X015900Y017000D01*
X015400Y017000D01*
X015400Y016900D01*
X012650Y016900D01*
X012650Y017000D01*
X012150Y017000D01*
X012150Y016900D01*
X011650Y016900D01*
X014150Y012000D02*
X014150Y011900D01*
X013650Y011900D01*
X013650Y008400D01*
X015150Y008400D01*
X015150Y008450D01*
X015650Y008450D01*
X015650Y008400D01*
X015850Y008400D01*
X015850Y008800D01*
X015850Y008900D01*
X014150Y008900D01*
X014150Y011400D01*
X019150Y011400D01*
X019150Y008900D01*
X017450Y008900D01*
X017450Y008800D01*
X017450Y008400D01*
X015850Y008400D01*
X015850Y008900D02*
X015850Y009200D01*
X017450Y009200D01*
X017450Y008900D01*
X017450Y008400D02*
X019650Y008400D01*
X019650Y011900D01*
X019150Y011900D01*
X019150Y012000D01*
X018650Y012000D01*
X018650Y011900D01*
X016900Y011900D01*
X016900Y012000D01*
X016400Y012000D01*
X016400Y011900D01*
X014650Y011900D01*
X014650Y012000D01*
X014150Y012000D01*
X013050Y010950D02*
X013050Y009350D01*
X013048Y009333D01*
X013044Y009316D01*
X013037Y009300D01*
X013027Y009286D01*
X013014Y009273D01*
X013000Y009263D01*
X012984Y009256D01*
X012967Y009252D01*
X012950Y009250D01*
X012350Y009250D01*
X012333Y009252D01*
X012316Y009256D01*
X012300Y009263D01*
X012286Y009273D01*
X012273Y009286D01*
X012263Y009300D01*
X012256Y009316D01*
X012252Y009333D01*
X012250Y009350D01*
X012250Y010950D01*
X012252Y010967D01*
X012256Y010984D01*
X012263Y011000D01*
X012273Y011014D01*
X012286Y011027D01*
X012300Y011037D01*
X012316Y011044D01*
X012333Y011048D01*
X012350Y011050D01*
X012950Y011050D01*
X012967Y011048D01*
X012984Y011044D01*
X013000Y011037D01*
X013014Y011027D01*
X013027Y011014D01*
X013037Y011000D01*
X013044Y010984D01*
X013048Y010967D01*
X013050Y010950D01*
X012900Y010550D02*
X012650Y010150D01*
X012900Y010150D01*
X012650Y010150D02*
X012650Y009900D01*
X012650Y010150D02*
X012400Y010150D01*
X012650Y010150D02*
X012400Y010550D01*
X012900Y010550D01*
X012650Y010750D02*
X012650Y010150D01*
X013650Y007000D02*
X013650Y006900D01*
X008400Y006900D01*
X008400Y007000D01*
X007900Y007000D01*
X007900Y006900D01*
X002650Y006900D01*
X002650Y007000D01*
X002150Y007000D01*
X002150Y006900D01*
X001650Y006900D01*
X001650Y003400D01*
X003350Y003400D01*
X003350Y003450D01*
X003950Y003450D01*
X003950Y003400D01*
X004500Y003400D01*
X004650Y003600D01*
X004850Y003600D01*
X005450Y003600D01*
X005650Y003600D01*
X005800Y003400D01*
X007350Y003400D01*
X007350Y003800D01*
X007350Y003900D01*
X005450Y003900D01*
X004850Y003900D01*
X002150Y003900D01*
X002150Y006400D01*
X014150Y006400D01*
X014150Y003900D01*
X012450Y003900D01*
X011850Y003900D01*
X008950Y003900D01*
X008950Y003800D01*
X008950Y003400D01*
X007350Y003400D01*
X007350Y003900D02*
X007350Y004200D01*
X008950Y004200D01*
X008950Y003900D01*
X008950Y003400D02*
X011500Y003400D01*
X011650Y003600D01*
X011850Y003600D01*
X012450Y003600D01*
X012450Y003800D01*
X012450Y003900D01*
X012450Y003600D02*
X012650Y003600D01*
X012800Y003400D01*
X014650Y003400D01*
X014650Y006900D01*
X014150Y006900D01*
X014150Y007000D01*
X013650Y007000D01*
X011850Y003900D02*
X011850Y003800D01*
X011850Y003600D01*
X005450Y003600D02*
X005450Y003800D01*
X005450Y003900D01*
X004850Y003900D02*
X004850Y003800D01*
X004850Y003600D01*
X016450Y013400D02*
X016500Y013400D01*
X016650Y013600D01*
X016850Y013600D02*
X016850Y013800D01*
X016850Y013900D01*
D14*
X016850Y013800D02*
X016450Y013800D01*
X017450Y013800D02*
X019250Y013800D01*
X019250Y016500D01*
X012050Y016500D01*
X012050Y013800D01*
X014850Y013800D01*
X014050Y011500D02*
X014050Y008800D01*
X015850Y008800D01*
X017450Y008800D02*
X019250Y008800D01*
X019250Y011500D01*
X014050Y011500D01*
X014250Y006500D02*
X002050Y006500D01*
X002050Y003800D01*
X004850Y003800D01*
X005450Y003800D02*
X007350Y003800D01*
X008950Y003800D02*
X011850Y003800D01*
X012450Y003800D02*
X014250Y003800D01*
X014250Y006500D01*
D15*
X009528Y009993D02*
X009507Y010005D01*
X009488Y010020D01*
X009470Y010037D01*
X009456Y010057D01*
X009444Y010079D01*
X009436Y010102D01*
X009431Y010126D01*
X009429Y010150D01*
X009431Y010174D01*
X009436Y010198D01*
X009444Y010221D01*
X009456Y010243D01*
X009470Y010263D01*
X009488Y010280D01*
X009507Y010295D01*
X009528Y010307D01*
X009528Y010898D01*
X001772Y010898D01*
X001772Y010307D01*
X001793Y010295D01*
X001812Y010280D01*
X001830Y010263D01*
X001844Y010243D01*
X001856Y010221D01*
X001864Y010198D01*
X001869Y010174D01*
X001871Y010150D01*
X001869Y010126D01*
X001864Y010102D01*
X001856Y010079D01*
X001844Y010057D01*
X001830Y010037D01*
X001812Y010020D01*
X001793Y010005D01*
X001772Y009993D01*
X001772Y009402D01*
X009528Y009402D01*
X009528Y009993D01*
X005559Y014402D02*
X005559Y014993D01*
X005538Y015005D01*
X005519Y015020D01*
X005501Y015037D01*
X005487Y015057D01*
X005475Y015079D01*
X005467Y015102D01*
X005462Y015126D01*
X005460Y015150D01*
X005462Y015174D01*
X005467Y015198D01*
X005475Y015221D01*
X005487Y015243D01*
X005501Y015263D01*
X005519Y015280D01*
X005538Y015295D01*
X005559Y015307D01*
X005559Y015898D01*
X001741Y015898D01*
X001741Y015307D01*
X001762Y015295D01*
X001781Y015280D01*
X001799Y015263D01*
X001813Y015243D01*
X001825Y015221D01*
X001833Y015198D01*
X001838Y015174D01*
X001840Y015150D01*
X001838Y015126D01*
X001833Y015102D01*
X001825Y015079D01*
X001813Y015057D01*
X001799Y015037D01*
X001781Y015020D01*
X001762Y015005D01*
X001741Y014993D01*
X001741Y014402D01*
X005559Y014402D01*
D16*
X001898Y014466D02*
X001824Y014466D01*
X001861Y014466D02*
X001861Y014576D01*
X001824Y014539D01*
X001892Y009576D02*
X001892Y009466D01*
X001856Y009466D02*
X001929Y009466D01*
X001856Y009539D02*
X001892Y009576D01*
D17*
X012650Y009500D03*
D18*
X012650Y009125D03*
X012650Y011175D03*
D19*
X010650Y017650D02*
X010650Y019900D01*
X009650Y019900D02*
X009650Y017650D01*
D20*
X009650Y017500D03*
X010650Y017500D03*
D21*
X010650Y016200D03*
X009650Y016200D03*
M02*
