G75*
%MOIN*%
%OFA0B0*%
%FSLAX24Y24*%
%IPPOS*%
%LPD*%
%AMOC8*
5,1,8,0,0,1.08239X$1,22.5*
%
%ADD10C,0.0000*%
%ADD11R,0.0436X0.0436*%
%ADD12C,0.0436*%
%ADD13OC8,0.0560*%
%ADD14C,0.0554*%
%ADD15C,0.0520*%
%ADD16C,0.0600*%
%ADD17C,0.0118*%
%ADD18C,0.0240*%
%ADD19C,0.0197*%
%ADD20C,0.0317*%
%ADD21C,0.0160*%
%ADD22C,0.0100*%
D10*
X001150Y001150D02*
X001150Y020150D01*
X020150Y020150D01*
X020150Y001150D01*
X001150Y001150D01*
D11*
X002150Y018400D03*
X012800Y018400D03*
D12*
X013300Y018400D03*
X013800Y018400D03*
X013800Y018900D03*
X013300Y018900D03*
X012800Y018900D03*
X014300Y018900D03*
X014800Y018900D03*
X014800Y018400D03*
X014300Y018400D03*
X004150Y018400D03*
X004150Y018900D03*
X003650Y018900D03*
X003650Y018400D03*
X003150Y018400D03*
X003150Y018900D03*
X002650Y018900D03*
X002650Y018400D03*
X002150Y018900D03*
D13*
X013650Y015650D03*
X014650Y015650D03*
X014650Y014650D03*
X013650Y014650D03*
X015650Y014650D03*
X015650Y015650D03*
X016650Y015650D03*
X017650Y015650D03*
X017650Y014650D03*
X016650Y014650D03*
X016650Y010650D03*
X017650Y010650D03*
X017650Y009650D03*
X016650Y009650D03*
X015650Y009650D03*
X015650Y010650D03*
X012650Y005650D03*
X012650Y004650D03*
X011650Y004650D03*
X010650Y004650D03*
X010650Y005650D03*
X011650Y005650D03*
X009650Y005650D03*
X009650Y004650D03*
X008650Y004650D03*
X008650Y005650D03*
X007650Y005650D03*
X006650Y005650D03*
X006650Y004650D03*
X007650Y004650D03*
X005650Y004650D03*
X005650Y005650D03*
X004650Y005650D03*
X003650Y005650D03*
X003650Y004650D03*
X004650Y004650D03*
D14*
X004469Y009756D03*
X003681Y009756D03*
X002894Y009756D03*
X002107Y009756D03*
X002107Y010544D03*
X002894Y010544D03*
X003681Y010544D03*
X004469Y010544D03*
X005256Y010544D03*
X005256Y009756D03*
X006044Y009756D03*
X006831Y009756D03*
X007619Y009756D03*
X008406Y009756D03*
X009193Y009756D03*
X009193Y010544D03*
X008406Y010544D03*
X007619Y010544D03*
X006831Y010544D03*
X006044Y010544D03*
X005225Y014756D03*
X005225Y015544D03*
X004437Y015544D03*
X003650Y015544D03*
X003650Y014756D03*
X004437Y014756D03*
X002863Y014756D03*
X002863Y015544D03*
X002075Y015544D03*
X002075Y014756D03*
D15*
X012650Y011910D02*
X012650Y011390D01*
X012650Y008910D02*
X012650Y008390D01*
D16*
X010650Y015350D02*
X010650Y015950D01*
X009650Y015950D02*
X009650Y015350D01*
D17*
X008187Y015914D02*
X008187Y013650D01*
X010894Y010943D01*
X010254Y010500D02*
X010254Y010304D01*
X011337Y009221D01*
X010254Y010500D02*
X006465Y014290D01*
X006711Y014536D01*
X006711Y015225D01*
X003660Y018276D01*
X003660Y018374D01*
X003650Y018400D01*
X004152Y018867D02*
X004150Y018900D01*
X004152Y018867D02*
X004349Y018867D01*
X006367Y016849D01*
X006317Y017243D02*
X006514Y017243D01*
X007941Y015815D01*
X007941Y013355D01*
X009959Y011337D01*
X010008Y010402D02*
X010008Y009221D01*
X008606Y007818D01*
X007646Y008778D01*
X007646Y009713D01*
X007619Y009756D01*
X008827Y011042D02*
X007744Y012124D01*
X007302Y013109D02*
X007105Y013109D01*
X007302Y013109D02*
X010008Y010402D01*
X008606Y007818D02*
X009122Y007302D01*
X009270Y006908D02*
X008089Y006908D01*
X005284Y009713D01*
X005256Y009756D01*
X003709Y009713D02*
X003681Y009756D01*
X003709Y009713D02*
X006908Y006514D01*
X009811Y006514D01*
X010254Y006957D01*
X009713Y007351D02*
X009270Y006908D01*
X007203Y005136D02*
X007646Y004693D01*
X007650Y004650D01*
X007203Y005136D02*
X006465Y005136D01*
X006170Y004841D01*
X006170Y004447D01*
X007252Y003365D01*
X012813Y003365D01*
X015815Y006367D01*
X016209Y005973D02*
X016209Y005678D01*
X013404Y002872D01*
X007449Y002872D01*
X007400Y003906D02*
X006662Y004644D01*
X006650Y004650D01*
X007400Y003906D02*
X012124Y003906D01*
X012124Y003758D01*
X012124Y003906D02*
X012912Y003906D01*
X014339Y005333D01*
X014339Y005431D01*
X015422Y005431D02*
X013355Y003365D01*
X012813Y004152D02*
X011189Y004152D01*
X010697Y004644D01*
X010650Y004650D01*
X012813Y004152D02*
X013109Y004447D01*
X013109Y004743D01*
X016898Y008532D01*
X017390Y008532D01*
X016012Y009664D02*
X016504Y010156D01*
X016849Y010156D01*
X017144Y010451D01*
X017144Y014142D01*
X017636Y014634D01*
X017650Y014650D01*
X015717Y016258D02*
X015717Y018571D01*
X014487Y019802D01*
X013896Y019802D01*
X014800Y018400D02*
X014831Y018374D01*
X014831Y017095D01*
X014979Y016947D01*
X014979Y016652D01*
X014142Y015815D01*
X014142Y015176D01*
X013650Y014683D01*
X013650Y014650D01*
X013699Y014634D01*
X016603Y011731D01*
X016603Y010697D01*
X016650Y010650D01*
X016012Y009664D02*
X015668Y009664D01*
X015650Y009650D01*
X014191Y016406D02*
X013650Y016947D01*
X013404Y016947D01*
X014339Y016800D02*
X014585Y016800D01*
X014339Y016800D02*
X012813Y018325D01*
X012813Y018374D01*
X012800Y018400D01*
X008187Y015914D02*
X006613Y017489D01*
X006416Y017489D01*
X005038Y018867D01*
X005038Y019556D01*
X002872Y019556D01*
X002823Y019506D01*
X002676Y019506D01*
X002183Y019014D01*
X002183Y018916D01*
X002150Y018900D01*
X002650Y018900D02*
X002676Y018916D01*
X002676Y019014D01*
X002971Y019309D01*
X004496Y019309D01*
X004644Y019162D01*
X004644Y018916D01*
X006317Y017243D01*
X005225Y015544D02*
X005235Y015520D01*
X005776Y014979D01*
X005973Y014979D01*
X006465Y014290D02*
X006268Y014093D01*
X004004Y016701D02*
X002872Y015569D01*
X002863Y015544D01*
X004004Y016701D02*
X004004Y016898D01*
X005431Y019014D02*
X006317Y019014D01*
X005431Y019014D02*
X005431Y019703D01*
X005185Y019949D01*
X004890Y019949D01*
X004841Y019900D01*
X002676Y019900D01*
D18*
X002676Y019900D03*
X004644Y019162D03*
X005038Y019556D03*
X005431Y019014D03*
X006317Y019014D03*
X006367Y016849D03*
X005973Y014979D03*
X006268Y014093D03*
X007105Y013109D03*
X007744Y012124D03*
X008827Y011042D03*
X009959Y011337D03*
X010894Y010943D03*
X011337Y009221D03*
X009713Y007351D03*
X009122Y007302D03*
X010254Y006957D03*
X012124Y003758D03*
X013355Y003365D03*
X014339Y005431D03*
X015422Y005431D03*
X016209Y005973D03*
X015815Y006367D03*
X017390Y008532D03*
X015717Y016258D03*
X014585Y016800D03*
X014191Y016406D03*
X013404Y016947D03*
X013896Y019802D03*
X004004Y016898D03*
X007449Y002872D03*
D19*
X007650Y005650D02*
X007744Y005678D01*
X008630Y005678D01*
X008650Y005650D01*
X008729Y005678D01*
X009615Y005678D01*
X009650Y005650D01*
X009713Y005678D01*
X010648Y005678D01*
X010650Y005650D01*
X010746Y005678D01*
X011632Y005678D01*
X011650Y005650D01*
X011731Y005678D01*
X012617Y005678D01*
X012650Y005650D01*
X012715Y005678D01*
X013650Y005678D01*
X017095Y009122D01*
X017833Y009122D01*
X018178Y009467D01*
X018178Y010008D01*
X017636Y010550D01*
X017650Y010650D01*
X017685Y010697D01*
X017685Y013945D01*
X018178Y014437D01*
X018178Y015126D01*
X017685Y015619D01*
X017650Y015650D01*
X017587Y015619D01*
X016701Y015619D01*
X016650Y015650D01*
X016603Y015668D01*
X015717Y015668D01*
X015650Y015650D01*
X015619Y015668D01*
X015274Y015668D01*
X015274Y018571D01*
X014979Y018867D01*
X014880Y018867D01*
X014800Y018900D01*
X014782Y018916D01*
X014782Y019063D01*
X014487Y019359D01*
X013109Y019359D01*
X012813Y019063D01*
X012813Y018916D01*
X012800Y018900D01*
X013650Y015650D02*
X013650Y015619D01*
X013109Y015077D01*
X013109Y014487D01*
X015619Y011977D01*
X015619Y010697D01*
X015650Y010650D01*
X015668Y010550D01*
X015668Y010402D01*
X014388Y009122D01*
X014388Y008650D01*
X014388Y007597D01*
X012961Y006170D01*
X004152Y006170D01*
X003660Y005678D01*
X003650Y005650D01*
X004650Y005650D02*
X004693Y005678D01*
X005628Y005678D01*
X005650Y005650D01*
X005727Y005678D01*
X006613Y005678D01*
X006650Y005650D01*
X006711Y005678D01*
X007646Y005678D01*
X007650Y005650D01*
X008680Y008483D02*
X009713Y009516D01*
X009713Y010008D01*
X009221Y010500D01*
X009193Y010544D01*
X006416Y014831D02*
X004201Y012617D01*
X002085Y014733D01*
X002075Y014756D01*
X003650Y014756D02*
X003660Y014733D01*
X004152Y014241D01*
X004693Y014241D01*
X005185Y014733D01*
X005225Y014756D01*
X006416Y014831D02*
X006416Y015126D01*
X004201Y017341D01*
X003069Y017341D01*
X002183Y018227D01*
X002183Y018374D01*
X002150Y018400D01*
X004150Y018400D02*
X004152Y018374D01*
X004250Y018374D01*
X005727Y016898D01*
X004201Y012617D02*
X002134Y010550D01*
X002107Y010544D01*
X002134Y010451D01*
X002134Y009762D01*
X002107Y009756D01*
X014650Y015650D02*
X014683Y015668D01*
X015274Y015668D01*
D20*
X016652Y012998D03*
X014977Y011398D03*
X016277Y008673D03*
X014977Y007898D03*
X017227Y007398D03*
X016502Y003948D03*
X008680Y008483D03*
X007002Y008948D03*
X006677Y007498D03*
X005502Y012448D03*
X002502Y012448D03*
X005727Y016898D03*
X010002Y012948D03*
D21*
X009650Y014150D02*
X012150Y011650D01*
X012650Y011650D01*
X012650Y008650D02*
X014388Y008650D01*
X009650Y014150D02*
X009650Y015650D01*
X010650Y015650D02*
X010650Y018150D01*
X011400Y018900D01*
X012800Y018900D01*
D22*
X012809Y018909D02*
X012791Y018909D01*
X012791Y019268D01*
X012763Y019268D01*
X012692Y019254D01*
X012625Y019226D01*
X012565Y019186D01*
X012514Y019135D01*
X012473Y019074D01*
X012446Y019007D01*
X012431Y018936D01*
X012431Y018909D01*
X012791Y018909D01*
X012791Y018891D01*
X012431Y018891D01*
X012431Y018864D01*
X012446Y018793D01*
X012467Y018741D01*
X012413Y018688D01*
X012413Y018112D01*
X012512Y018014D01*
X012804Y018014D01*
X013522Y017295D01*
X013477Y017314D01*
X013331Y017314D01*
X013196Y017258D01*
X013093Y017155D01*
X013037Y017020D01*
X013037Y016874D01*
X013093Y016739D01*
X013196Y016636D01*
X013331Y016580D01*
X013477Y016580D01*
X013612Y016636D01*
X013626Y016650D01*
X013824Y016451D01*
X013824Y016333D01*
X013880Y016198D01*
X013984Y016095D01*
X014066Y016061D01*
X014048Y016043D01*
X013970Y015964D01*
X013836Y016098D01*
X013464Y016098D01*
X013202Y015836D01*
X013202Y015547D01*
X012883Y015228D01*
X012842Y015130D01*
X012842Y014434D01*
X012883Y014336D01*
X012958Y014261D01*
X015352Y011866D01*
X015352Y010986D01*
X015202Y010836D01*
X015202Y010464D01*
X015278Y010389D01*
X014237Y009348D01*
X014162Y009273D01*
X014122Y009175D01*
X014122Y008898D01*
X013078Y008898D01*
X013078Y008995D01*
X013013Y009153D01*
X012893Y009273D01*
X012735Y009338D01*
X012565Y009338D01*
X012407Y009273D01*
X012287Y009153D01*
X012222Y008995D01*
X012222Y008305D01*
X012287Y008147D01*
X012407Y008027D01*
X012565Y007962D01*
X012735Y007962D01*
X012893Y008027D01*
X013013Y008147D01*
X013078Y008305D01*
X013078Y008402D01*
X014122Y008402D01*
X014122Y007707D01*
X012851Y006436D01*
X010055Y006436D01*
X010209Y006590D01*
X010327Y006590D01*
X010462Y006646D01*
X010565Y006749D01*
X010621Y006884D01*
X010621Y007030D01*
X010565Y007165D01*
X010462Y007268D01*
X010327Y007324D01*
X010181Y007324D01*
X010080Y007282D01*
X010080Y007424D01*
X010024Y007559D01*
X009921Y007662D01*
X009786Y007718D01*
X009640Y007718D01*
X009505Y007662D01*
X009402Y007559D01*
X009397Y007546D01*
X009330Y007613D01*
X009195Y007668D01*
X009077Y007668D01*
X008927Y007818D01*
X010235Y009127D01*
X010235Y010001D01*
X010970Y009266D01*
X010970Y009148D01*
X011026Y009013D01*
X011129Y008910D01*
X011264Y008854D01*
X011410Y008854D01*
X011545Y008910D01*
X011648Y009013D01*
X011704Y009148D01*
X011704Y009294D01*
X011648Y009429D01*
X011545Y009532D01*
X011410Y009588D01*
X011291Y009588D01*
X010481Y010398D01*
X010481Y010594D01*
X010084Y010992D01*
X010167Y011026D01*
X010270Y011129D01*
X010304Y011212D01*
X010527Y010989D01*
X010527Y010870D01*
X010583Y010736D01*
X010686Y010632D01*
X010821Y010576D01*
X010967Y010576D01*
X011102Y010632D01*
X011205Y010736D01*
X011261Y010870D01*
X011261Y011016D01*
X011205Y011151D01*
X011102Y011254D01*
X010967Y011310D01*
X010849Y011310D01*
X008415Y013744D01*
X008415Y016008D01*
X008281Y016141D01*
X006707Y017716D01*
X006510Y017716D01*
X005557Y018669D01*
X005639Y018703D01*
X005723Y018787D01*
X006026Y018787D01*
X006110Y018703D01*
X006244Y018647D01*
X006390Y018647D01*
X006525Y018703D01*
X006628Y018806D01*
X006684Y018941D01*
X006684Y019087D01*
X006628Y019222D01*
X006525Y019325D01*
X006390Y019381D01*
X006244Y019381D01*
X006110Y019325D01*
X006026Y019241D01*
X005723Y019241D01*
X005659Y019306D01*
X005659Y019797D01*
X005526Y019930D01*
X005456Y020000D01*
X013581Y020000D01*
X013529Y019875D01*
X013529Y019729D01*
X013585Y019594D01*
X013688Y019491D01*
X013823Y019435D01*
X013969Y019435D01*
X014104Y019491D01*
X014188Y019574D01*
X014393Y019574D01*
X014710Y019257D01*
X014692Y019254D01*
X014625Y019226D01*
X014565Y019186D01*
X014562Y019183D01*
X014518Y019227D01*
X014376Y019286D01*
X014223Y019286D01*
X014081Y019227D01*
X014050Y019196D01*
X014018Y019227D01*
X013876Y019286D01*
X013723Y019286D01*
X013581Y019227D01*
X013550Y019196D01*
X013518Y019227D01*
X013376Y019286D01*
X013223Y019286D01*
X013081Y019227D01*
X013037Y019183D01*
X013034Y019186D01*
X012974Y019226D01*
X012907Y019254D01*
X012836Y019268D01*
X012809Y019268D01*
X012809Y018909D01*
X012809Y018979D02*
X012791Y018979D01*
X012791Y019077D02*
X012809Y019077D01*
X012809Y019176D02*
X012791Y019176D01*
X013193Y019274D02*
X006576Y019274D01*
X006648Y019176D02*
X012555Y019176D01*
X012475Y019077D02*
X006684Y019077D01*
X006684Y018979D02*
X012440Y018979D01*
X012431Y018880D02*
X006659Y018880D01*
X006603Y018782D02*
X012450Y018782D01*
X012413Y018683D02*
X006477Y018683D01*
X006158Y018683D02*
X005591Y018683D01*
X005641Y018585D02*
X012413Y018585D01*
X012413Y018486D02*
X005740Y018486D01*
X005838Y018388D02*
X012413Y018388D01*
X012413Y018289D02*
X005937Y018289D01*
X006035Y018191D02*
X012413Y018191D01*
X012434Y018092D02*
X006134Y018092D01*
X006232Y017994D02*
X012824Y017994D01*
X012922Y017895D02*
X006331Y017895D01*
X006429Y017797D02*
X013021Y017797D01*
X013119Y017698D02*
X006724Y017698D01*
X006823Y017600D02*
X013218Y017600D01*
X013316Y017501D02*
X006921Y017501D01*
X007020Y017403D02*
X013415Y017403D01*
X013501Y017304D02*
X013513Y017304D01*
X013307Y017304D02*
X007118Y017304D01*
X007217Y017206D02*
X013143Y017206D01*
X013073Y017107D02*
X007315Y017107D01*
X007414Y017009D02*
X013037Y017009D01*
X013037Y016910D02*
X007512Y016910D01*
X007611Y016812D02*
X013063Y016812D01*
X013119Y016713D02*
X007709Y016713D01*
X007808Y016615D02*
X013249Y016615D01*
X013559Y016615D02*
X013661Y016615D01*
X013760Y016516D02*
X007906Y016516D01*
X008005Y016418D02*
X009556Y016418D01*
X009557Y016418D02*
X009385Y016347D01*
X009253Y016215D01*
X009182Y016043D01*
X009182Y015257D01*
X009253Y015085D01*
X009385Y014953D01*
X009402Y014946D01*
X009402Y014101D01*
X009440Y014009D01*
X011940Y011509D01*
X012009Y011440D01*
X012101Y011402D01*
X012222Y011402D01*
X012222Y011305D01*
X012287Y011147D01*
X012407Y011027D01*
X012565Y010962D01*
X012735Y010962D01*
X012893Y011027D01*
X013013Y011147D01*
X013078Y011305D01*
X013078Y011995D01*
X013013Y012153D01*
X012893Y012273D01*
X012735Y012338D01*
X012565Y012338D01*
X012407Y012273D01*
X012287Y012153D01*
X012222Y011995D01*
X012222Y011929D01*
X009898Y014253D01*
X009898Y014946D01*
X009915Y014953D01*
X010047Y015085D01*
X010118Y015257D01*
X010118Y016043D01*
X010047Y016215D01*
X009915Y016347D01*
X009743Y016418D01*
X009557Y016418D01*
X009744Y016418D02*
X013824Y016418D01*
X013830Y016319D02*
X010908Y016319D01*
X010886Y016335D02*
X010823Y016367D01*
X010755Y016389D01*
X010700Y016398D01*
X010700Y015700D01*
X011100Y015700D01*
X011100Y015985D01*
X011089Y016055D01*
X011067Y016123D01*
X011035Y016186D01*
X010993Y016243D01*
X010943Y016293D01*
X010886Y016335D01*
X011010Y016221D02*
X013871Y016221D01*
X013956Y016122D02*
X011067Y016122D01*
X011094Y016024D02*
X013390Y016024D01*
X013291Y015925D02*
X011100Y015925D01*
X011100Y015827D02*
X013202Y015827D01*
X013202Y015728D02*
X011100Y015728D01*
X011100Y015600D02*
X010700Y015600D01*
X010700Y015700D01*
X010600Y015700D01*
X010600Y016398D01*
X010545Y016389D01*
X010477Y016367D01*
X010414Y016335D01*
X010357Y016293D01*
X010307Y016243D01*
X010265Y016186D01*
X010233Y016123D01*
X010211Y016055D01*
X010200Y015985D01*
X010200Y015700D01*
X010600Y015700D01*
X010600Y015600D01*
X010700Y015600D01*
X010700Y014902D01*
X010755Y014911D01*
X010823Y014933D01*
X010886Y014965D01*
X010943Y015007D01*
X010993Y015057D01*
X011035Y015114D01*
X011067Y015177D01*
X011089Y015245D01*
X011100Y015315D01*
X011100Y015600D01*
X011100Y015531D02*
X013186Y015531D01*
X013202Y015630D02*
X010700Y015630D01*
X010700Y015728D02*
X010600Y015728D01*
X010600Y015630D02*
X010118Y015630D01*
X010200Y015600D02*
X010200Y015315D01*
X010211Y015245D01*
X010233Y015177D01*
X010265Y015114D01*
X010307Y015057D01*
X010357Y015007D01*
X010414Y014965D01*
X010477Y014933D01*
X010545Y014911D01*
X010600Y014902D01*
X010600Y015600D01*
X010200Y015600D01*
X010200Y015531D02*
X010118Y015531D01*
X010118Y015433D02*
X010200Y015433D01*
X010200Y015334D02*
X010118Y015334D01*
X010109Y015236D02*
X010214Y015236D01*
X010253Y015137D02*
X010068Y015137D01*
X010001Y015039D02*
X010325Y015039D01*
X010463Y014940D02*
X009898Y014940D01*
X009898Y014842D02*
X012842Y014842D01*
X012842Y014940D02*
X010837Y014940D01*
X010700Y014940D02*
X010600Y014940D01*
X010600Y015039D02*
X010700Y015039D01*
X010700Y015137D02*
X010600Y015137D01*
X010600Y015236D02*
X010700Y015236D01*
X010700Y015334D02*
X010600Y015334D01*
X010600Y015433D02*
X010700Y015433D01*
X010700Y015531D02*
X010600Y015531D01*
X010600Y015827D02*
X010700Y015827D01*
X010700Y015925D02*
X010600Y015925D01*
X010600Y016024D02*
X010700Y016024D01*
X010700Y016122D02*
X010600Y016122D01*
X010600Y016221D02*
X010700Y016221D01*
X010700Y016319D02*
X010600Y016319D01*
X010392Y016319D02*
X009943Y016319D01*
X010041Y016221D02*
X010290Y016221D01*
X010233Y016122D02*
X010085Y016122D01*
X010118Y016024D02*
X010206Y016024D01*
X010200Y015925D02*
X010118Y015925D01*
X010118Y015827D02*
X010200Y015827D01*
X010200Y015728D02*
X010118Y015728D01*
X009402Y014940D02*
X008415Y014940D01*
X008415Y014842D02*
X009402Y014842D01*
X009402Y014743D02*
X008415Y014743D01*
X008415Y014645D02*
X009402Y014645D01*
X009402Y014546D02*
X008415Y014546D01*
X008415Y014448D02*
X009402Y014448D01*
X009402Y014349D02*
X008415Y014349D01*
X008415Y014251D02*
X009402Y014251D01*
X009402Y014152D02*
X008415Y014152D01*
X008415Y014054D02*
X009421Y014054D01*
X009494Y013955D02*
X008415Y013955D01*
X008415Y013857D02*
X009593Y013857D01*
X009691Y013758D02*
X008415Y013758D01*
X008499Y013660D02*
X009790Y013660D01*
X009888Y013561D02*
X008598Y013561D01*
X008696Y013463D02*
X009987Y013463D01*
X010085Y013364D02*
X008795Y013364D01*
X008893Y013266D02*
X010184Y013266D01*
X010282Y013167D02*
X008992Y013167D01*
X009090Y013069D02*
X010381Y013069D01*
X010479Y012970D02*
X009189Y012970D01*
X009287Y012872D02*
X010578Y012872D01*
X010676Y012773D02*
X009386Y012773D01*
X009484Y012675D02*
X010775Y012675D01*
X010873Y012576D02*
X009583Y012576D01*
X009681Y012478D02*
X010972Y012478D01*
X011070Y012379D02*
X009780Y012379D01*
X009878Y012281D02*
X011169Y012281D01*
X011267Y012182D02*
X009977Y012182D01*
X010075Y012084D02*
X011366Y012084D01*
X011464Y011985D02*
X010174Y011985D01*
X010272Y011887D02*
X011563Y011887D01*
X011661Y011788D02*
X010371Y011788D01*
X010469Y011690D02*
X011760Y011690D01*
X011858Y011591D02*
X010568Y011591D01*
X010666Y011493D02*
X011957Y011493D01*
X012222Y011394D02*
X010765Y011394D01*
X011002Y011296D02*
X012226Y011296D01*
X012267Y011197D02*
X011159Y011197D01*
X011227Y011099D02*
X012336Y011099D01*
X012473Y011000D02*
X011261Y011000D01*
X011261Y010902D02*
X015268Y010902D01*
X015202Y010803D02*
X011233Y010803D01*
X011174Y010705D02*
X015202Y010705D01*
X015202Y010606D02*
X011038Y010606D01*
X010750Y010606D02*
X010470Y010606D01*
X010481Y010508D02*
X015202Y010508D01*
X015257Y010409D02*
X010481Y010409D01*
X010569Y010311D02*
X015199Y010311D01*
X015101Y010212D02*
X010667Y010212D01*
X010766Y010114D02*
X015002Y010114D01*
X014904Y010015D02*
X010864Y010015D01*
X010963Y009917D02*
X014805Y009917D01*
X014707Y009818D02*
X011061Y009818D01*
X011160Y009720D02*
X014608Y009720D01*
X014510Y009621D02*
X011258Y009621D01*
X011554Y009523D02*
X014411Y009523D01*
X014313Y009424D02*
X011650Y009424D01*
X011691Y009326D02*
X012534Y009326D01*
X012362Y009227D02*
X011704Y009227D01*
X011696Y009129D02*
X012277Y009129D01*
X012236Y009030D02*
X011655Y009030D01*
X011566Y008932D02*
X012222Y008932D01*
X012222Y008833D02*
X009942Y008833D01*
X010040Y008932D02*
X011108Y008932D01*
X011019Y009030D02*
X010139Y009030D01*
X010235Y009129D02*
X010978Y009129D01*
X010970Y009227D02*
X010235Y009227D01*
X010235Y009326D02*
X010911Y009326D01*
X010813Y009424D02*
X010235Y009424D01*
X010235Y009523D02*
X010714Y009523D01*
X010616Y009621D02*
X010235Y009621D01*
X010235Y009720D02*
X010517Y009720D01*
X010419Y009818D02*
X010235Y009818D01*
X010235Y009917D02*
X010320Y009917D01*
X009781Y009917D02*
X009609Y009917D01*
X009639Y009845D02*
X009571Y010009D01*
X009446Y010134D01*
X009382Y010160D01*
X009417Y010178D01*
X009472Y010218D01*
X009519Y010265D01*
X009559Y010320D01*
X009589Y010380D01*
X009610Y010444D01*
X009615Y010474D01*
X009781Y010308D01*
X009781Y009315D01*
X008606Y008140D01*
X007873Y008872D01*
X007873Y009381D01*
X007996Y009504D01*
X008012Y009543D01*
X008028Y009504D01*
X008154Y009379D01*
X008317Y009311D01*
X008494Y009311D01*
X008658Y009379D01*
X008783Y009504D01*
X008800Y009543D01*
X008816Y009504D01*
X008941Y009379D01*
X009105Y009311D01*
X009282Y009311D01*
X009446Y009379D01*
X009571Y009504D01*
X009639Y009668D01*
X009639Y009845D01*
X009639Y009818D02*
X009781Y009818D01*
X009781Y009720D02*
X009639Y009720D01*
X009619Y009621D02*
X009781Y009621D01*
X009781Y009523D02*
X009578Y009523D01*
X009491Y009424D02*
X009781Y009424D01*
X009781Y009326D02*
X009317Y009326D01*
X009070Y009326D02*
X008529Y009326D01*
X008703Y009424D02*
X008896Y009424D01*
X008808Y009523D02*
X008791Y009523D01*
X008282Y009326D02*
X007873Y009326D01*
X007873Y009227D02*
X009693Y009227D01*
X009595Y009129D02*
X007873Y009129D01*
X007873Y009030D02*
X009496Y009030D01*
X009398Y008932D02*
X007873Y008932D01*
X007912Y008833D02*
X009299Y008833D01*
X009201Y008735D02*
X008011Y008735D01*
X008109Y008636D02*
X009102Y008636D01*
X009004Y008538D02*
X008208Y008538D01*
X008306Y008439D02*
X008905Y008439D01*
X008807Y008341D02*
X008405Y008341D01*
X008503Y008242D02*
X008708Y008242D01*
X008610Y008144D02*
X008602Y008144D01*
X008255Y007848D02*
X007470Y007848D01*
X007372Y007947D02*
X008156Y007947D01*
X008058Y008045D02*
X007273Y008045D01*
X007175Y008144D02*
X007959Y008144D01*
X007861Y008242D02*
X007076Y008242D01*
X006978Y008341D02*
X007762Y008341D01*
X007664Y008439D02*
X006879Y008439D01*
X006781Y008538D02*
X007565Y008538D01*
X007467Y008636D02*
X006682Y008636D01*
X006584Y008735D02*
X007419Y008735D01*
X007419Y008684D02*
X008379Y007724D01*
X008512Y007591D01*
X008756Y007347D01*
X008756Y007229D01*
X008794Y007135D01*
X008183Y007135D01*
X006007Y009311D01*
X006132Y009311D01*
X006296Y009379D01*
X006421Y009504D01*
X006437Y009543D01*
X006454Y009504D01*
X006579Y009379D01*
X006743Y009311D01*
X006920Y009311D01*
X007083Y009379D01*
X007209Y009504D01*
X007225Y009543D01*
X007241Y009504D01*
X007366Y009379D01*
X007419Y009357D01*
X007419Y008684D01*
X007419Y008833D02*
X006485Y008833D01*
X006387Y008932D02*
X007419Y008932D01*
X007419Y009030D02*
X006288Y009030D01*
X006190Y009129D02*
X007419Y009129D01*
X007419Y009227D02*
X006091Y009227D01*
X006167Y009326D02*
X006708Y009326D01*
X006534Y009424D02*
X006341Y009424D01*
X006429Y009523D02*
X006446Y009523D01*
X006955Y009326D02*
X007419Y009326D01*
X007321Y009424D02*
X007129Y009424D01*
X007216Y009523D02*
X007233Y009523D01*
X007916Y009424D02*
X008108Y009424D01*
X008021Y009523D02*
X008004Y009523D01*
X007980Y010505D02*
X007657Y010505D01*
X007657Y010582D01*
X008367Y010582D01*
X008367Y010505D01*
X007980Y010505D01*
X008012Y010712D02*
X007984Y010768D01*
X007944Y010822D01*
X007897Y010870D01*
X007842Y010909D01*
X007782Y010940D01*
X007719Y010960D01*
X007657Y010970D01*
X007657Y010582D01*
X007580Y010582D01*
X007580Y010505D01*
X007192Y010505D01*
X006870Y010505D01*
X006870Y010582D01*
X007580Y010582D01*
X007580Y010970D01*
X007518Y010960D01*
X007455Y010940D01*
X007395Y010909D01*
X007340Y010870D01*
X007293Y010822D01*
X007253Y010768D01*
X007225Y010712D01*
X007196Y010768D01*
X007157Y010822D01*
X007109Y010870D01*
X007055Y010909D01*
X006995Y010940D01*
X006931Y010960D01*
X006870Y010970D01*
X006870Y010582D01*
X006793Y010582D01*
X006793Y010970D01*
X006731Y010960D01*
X006667Y010940D01*
X006607Y010909D01*
X006553Y010870D01*
X006505Y010822D01*
X006466Y010768D01*
X006437Y010712D01*
X006409Y010768D01*
X006370Y010822D01*
X006322Y010870D01*
X006268Y010909D01*
X006208Y010940D01*
X006144Y010960D01*
X006082Y010970D01*
X006082Y010582D01*
X006793Y010582D01*
X006793Y010505D01*
X006405Y010505D01*
X006082Y010505D01*
X006082Y010582D01*
X006005Y010582D01*
X006005Y010505D01*
X005617Y010505D01*
X005295Y010505D01*
X005295Y010582D01*
X006005Y010582D01*
X006005Y010970D01*
X005944Y010960D01*
X005880Y010940D01*
X005820Y010909D01*
X005765Y010870D01*
X005718Y010822D01*
X005678Y010768D01*
X005650Y010712D01*
X005622Y010768D01*
X005582Y010822D01*
X005535Y010870D01*
X005480Y010909D01*
X005420Y010940D01*
X005356Y010960D01*
X005295Y010970D01*
X005295Y010582D01*
X005218Y010582D01*
X005218Y010505D01*
X004830Y010505D01*
X004507Y010505D01*
X004507Y010582D01*
X004430Y010582D01*
X004430Y010505D01*
X004043Y010505D01*
X003720Y010505D01*
X003720Y010582D01*
X004430Y010582D01*
X004430Y010970D01*
X004369Y010960D01*
X004305Y010940D01*
X004245Y010909D01*
X004191Y010870D01*
X004143Y010822D01*
X004104Y010768D01*
X004075Y010712D01*
X004047Y010768D01*
X004007Y010822D01*
X003960Y010870D01*
X003905Y010909D01*
X003845Y010940D01*
X003782Y010960D01*
X003720Y010970D01*
X003720Y010582D01*
X003643Y010582D01*
X003643Y010505D01*
X003255Y010505D01*
X002933Y010505D01*
X002933Y010582D01*
X003643Y010582D01*
X003643Y010970D01*
X003581Y010960D01*
X003518Y010940D01*
X003458Y010909D01*
X003403Y010870D01*
X003356Y010822D01*
X003316Y010768D01*
X003288Y010712D01*
X003259Y010768D01*
X003220Y010822D01*
X003172Y010870D01*
X003118Y010909D01*
X003058Y010940D01*
X002994Y010960D01*
X002933Y010970D01*
X002933Y010582D01*
X002856Y010582D01*
X002856Y010894D01*
X004352Y012391D01*
X004427Y012466D01*
X005925Y013963D01*
X005957Y013885D01*
X006060Y013782D01*
X006195Y013726D01*
X006341Y013726D01*
X006476Y013782D01*
X006564Y013870D01*
X006980Y013454D01*
X006897Y013420D01*
X006794Y013316D01*
X006738Y013182D01*
X006738Y013036D01*
X006794Y012901D01*
X006897Y012798D01*
X007032Y012742D01*
X007178Y012742D01*
X007298Y012791D01*
X007619Y012470D01*
X007537Y012435D01*
X007433Y012332D01*
X007378Y012197D01*
X007378Y012051D01*
X007433Y011917D01*
X007537Y011813D01*
X007672Y011758D01*
X007790Y011758D01*
X008460Y011087D01*
X008460Y010969D01*
X008461Y010967D01*
X008444Y010970D01*
X008444Y010582D01*
X008367Y010582D01*
X008367Y010970D01*
X008306Y010960D01*
X008242Y010940D01*
X008182Y010909D01*
X008128Y010870D01*
X008080Y010822D01*
X008041Y010768D01*
X008012Y010712D01*
X007958Y010803D02*
X008066Y010803D01*
X008172Y010902D02*
X007853Y010902D01*
X007657Y010902D02*
X007580Y010902D01*
X007580Y010803D02*
X007657Y010803D01*
X007657Y010705D02*
X007580Y010705D01*
X007580Y010606D02*
X007657Y010606D01*
X007657Y010508D02*
X008367Y010508D01*
X008444Y010508D02*
X009155Y010508D01*
X009155Y010505D02*
X008767Y010505D01*
X008444Y010505D01*
X008444Y010582D01*
X009155Y010582D01*
X009155Y010505D01*
X009232Y010505D01*
X009232Y010202D01*
X009155Y010202D01*
X009155Y010505D01*
X009155Y010409D02*
X009232Y010409D01*
X009232Y010311D02*
X009155Y010311D01*
X009155Y010212D02*
X009232Y010212D01*
X009464Y010212D02*
X009781Y010212D01*
X009781Y010114D02*
X009466Y010114D01*
X009564Y010015D02*
X009781Y010015D01*
X009778Y010311D02*
X009552Y010311D01*
X009599Y010409D02*
X009680Y010409D01*
X010174Y010902D02*
X010527Y010902D01*
X010516Y011000D02*
X010104Y011000D01*
X010239Y011099D02*
X010418Y011099D01*
X010319Y011197D02*
X010298Y011197D01*
X010273Y010803D02*
X010555Y010803D01*
X010614Y010705D02*
X010371Y010705D01*
X011870Y012281D02*
X012426Y012281D01*
X012317Y012182D02*
X011969Y012182D01*
X012067Y012084D02*
X012258Y012084D01*
X012222Y011985D02*
X012166Y011985D01*
X011772Y012379D02*
X014839Y012379D01*
X014741Y012478D02*
X011673Y012478D01*
X011575Y012576D02*
X014642Y012576D01*
X014544Y012675D02*
X011476Y012675D01*
X011378Y012773D02*
X014445Y012773D01*
X014347Y012872D02*
X011279Y012872D01*
X011181Y012970D02*
X014248Y012970D01*
X014150Y013069D02*
X011082Y013069D01*
X010984Y013167D02*
X014051Y013167D01*
X013953Y013266D02*
X010885Y013266D01*
X010787Y013364D02*
X013854Y013364D01*
X013756Y013463D02*
X010688Y013463D01*
X010590Y013561D02*
X013657Y013561D01*
X013559Y013660D02*
X010491Y013660D01*
X010393Y013758D02*
X013460Y013758D01*
X013362Y013857D02*
X010294Y013857D01*
X010196Y013955D02*
X013263Y013955D01*
X013165Y014054D02*
X010097Y014054D01*
X009999Y014152D02*
X013066Y014152D01*
X012968Y014251D02*
X009900Y014251D01*
X009898Y014349D02*
X012877Y014349D01*
X012842Y014448D02*
X009898Y014448D01*
X009898Y014546D02*
X012842Y014546D01*
X012842Y014645D02*
X009898Y014645D01*
X009898Y014743D02*
X012842Y014743D01*
X012842Y015039D02*
X010975Y015039D01*
X011047Y015137D02*
X012845Y015137D01*
X012890Y015236D02*
X011086Y015236D01*
X011100Y015334D02*
X012989Y015334D01*
X013087Y015433D02*
X011100Y015433D01*
X009299Y015039D02*
X008415Y015039D01*
X008415Y015137D02*
X009232Y015137D01*
X009191Y015236D02*
X008415Y015236D01*
X008415Y015334D02*
X009182Y015334D01*
X009182Y015433D02*
X008415Y015433D01*
X008415Y015531D02*
X009182Y015531D01*
X009182Y015630D02*
X008415Y015630D01*
X008415Y015728D02*
X009182Y015728D01*
X009182Y015827D02*
X008415Y015827D01*
X008415Y015925D02*
X009182Y015925D01*
X009182Y016024D02*
X008399Y016024D01*
X008300Y016122D02*
X009215Y016122D01*
X009259Y016221D02*
X008202Y016221D01*
X008103Y016319D02*
X009357Y016319D01*
X007714Y015721D02*
X007714Y013362D01*
X006786Y014290D01*
X006938Y014442D01*
X006938Y015319D01*
X006805Y015452D01*
X004219Y018038D01*
X004257Y018046D01*
X004324Y018074D01*
X004385Y018114D01*
X004436Y018165D01*
X004476Y018226D01*
X004504Y018293D01*
X004518Y018364D01*
X004518Y018376D01*
X006000Y016894D01*
X006000Y016776D01*
X006056Y016641D01*
X006159Y016538D01*
X006294Y016482D01*
X006440Y016482D01*
X006574Y016538D01*
X006678Y016641D01*
X006712Y016724D01*
X007714Y015721D01*
X007707Y015728D02*
X006529Y015728D01*
X006431Y015827D02*
X007609Y015827D01*
X007510Y015925D02*
X006332Y015925D01*
X006234Y016024D02*
X007412Y016024D01*
X007313Y016122D02*
X006135Y016122D01*
X006037Y016221D02*
X007215Y016221D01*
X007116Y016319D02*
X005938Y016319D01*
X005840Y016418D02*
X007018Y016418D01*
X006919Y016516D02*
X006522Y016516D01*
X006651Y016615D02*
X006821Y016615D01*
X006722Y016713D02*
X006707Y016713D01*
X006211Y016516D02*
X005741Y016516D01*
X005643Y016615D02*
X006082Y016615D01*
X006026Y016713D02*
X005544Y016713D01*
X005446Y016812D02*
X006000Y016812D01*
X005984Y016910D02*
X005347Y016910D01*
X005249Y017009D02*
X005886Y017009D01*
X005787Y017107D02*
X005150Y017107D01*
X005052Y017206D02*
X005689Y017206D01*
X005590Y017304D02*
X004953Y017304D01*
X004855Y017403D02*
X005492Y017403D01*
X005393Y017501D02*
X004756Y017501D01*
X004658Y017600D02*
X005295Y017600D01*
X005196Y017698D02*
X004559Y017698D01*
X004461Y017797D02*
X005098Y017797D01*
X004999Y017895D02*
X004362Y017895D01*
X004264Y017994D02*
X004901Y017994D01*
X004802Y018092D02*
X004352Y018092D01*
X004453Y018191D02*
X004704Y018191D01*
X004605Y018289D02*
X004502Y018289D01*
X004159Y018289D02*
X004141Y018289D01*
X004141Y018191D02*
X004159Y018191D01*
X004141Y018116D02*
X004141Y018391D01*
X004159Y018391D01*
X004159Y018098D01*
X004141Y018116D01*
X004141Y018388D02*
X004159Y018388D01*
X003720Y017895D02*
X002892Y017895D01*
X002794Y017994D02*
X003621Y017994D01*
X003601Y018014D02*
X004007Y017607D01*
X003180Y017607D01*
X002744Y018043D01*
X002757Y018046D01*
X002824Y018074D01*
X002885Y018114D01*
X002900Y018129D01*
X002915Y018114D01*
X002976Y018074D01*
X003043Y018046D01*
X003114Y018032D01*
X003141Y018032D01*
X003141Y018391D01*
X002782Y018391D01*
X002659Y018391D01*
X002659Y018409D01*
X003141Y018409D01*
X003141Y018391D01*
X003159Y018391D01*
X003159Y018032D01*
X003186Y018032D01*
X003257Y018046D01*
X003324Y018074D01*
X003385Y018114D01*
X003387Y018117D01*
X003431Y018073D01*
X003573Y018014D01*
X003601Y018014D01*
X003412Y018092D02*
X003352Y018092D01*
X003159Y018092D02*
X003141Y018092D01*
X003141Y018191D02*
X003159Y018191D01*
X003159Y018289D02*
X003141Y018289D01*
X003141Y018388D02*
X003159Y018388D01*
X002948Y018092D02*
X002852Y018092D01*
X002991Y017797D02*
X003818Y017797D01*
X003917Y017698D02*
X003089Y017698D01*
X002729Y017304D02*
X001300Y017304D01*
X001300Y017206D02*
X002828Y017206D01*
X002843Y017190D02*
X002918Y017115D01*
X003016Y017074D01*
X003680Y017074D01*
X003637Y016971D01*
X003637Y016825D01*
X003687Y016705D01*
X002965Y015983D01*
X002951Y015989D01*
X002774Y015989D01*
X002610Y015921D01*
X002485Y015796D01*
X002469Y015757D01*
X002453Y015796D01*
X002327Y015921D01*
X002164Y015989D01*
X001987Y015989D01*
X001823Y015921D01*
X001698Y015796D01*
X001630Y015632D01*
X001630Y015455D01*
X001698Y015291D01*
X001823Y015166D01*
X001862Y015150D01*
X001823Y015134D01*
X001698Y015009D01*
X001630Y014845D01*
X001630Y014668D01*
X001698Y014504D01*
X001823Y014379D01*
X001987Y014311D01*
X002130Y014311D01*
X003824Y012617D01*
X002196Y010989D01*
X002195Y010989D01*
X002018Y010989D01*
X001854Y010921D01*
X001729Y010796D01*
X001661Y010632D01*
X001661Y010455D01*
X001729Y010291D01*
X001854Y010166D01*
X001868Y010161D01*
X001868Y010139D01*
X001854Y010134D01*
X001729Y010009D01*
X001661Y009845D01*
X001661Y009668D01*
X001729Y009504D01*
X001854Y009379D01*
X002018Y009311D01*
X002195Y009311D01*
X002359Y009379D01*
X002484Y009504D01*
X002500Y009543D01*
X002517Y009504D01*
X002642Y009379D01*
X002806Y009311D01*
X002983Y009311D01*
X003146Y009379D01*
X003272Y009504D01*
X003288Y009543D01*
X003304Y009504D01*
X003429Y009379D01*
X003593Y009311D01*
X003770Y009311D01*
X003784Y009317D01*
X006665Y006436D01*
X004099Y006436D01*
X004001Y006396D01*
X003703Y006098D01*
X003464Y006098D01*
X003202Y005836D01*
X003202Y005464D01*
X003464Y005202D01*
X003836Y005202D01*
X004098Y005464D01*
X004098Y005739D01*
X004262Y005903D01*
X004295Y005903D01*
X004220Y005828D01*
X004220Y005690D01*
X004610Y005690D01*
X004610Y005610D01*
X004690Y005610D01*
X004690Y005690D01*
X005080Y005690D01*
X005080Y005828D01*
X005005Y005903D01*
X005295Y005903D01*
X005220Y005828D01*
X005220Y005690D01*
X005610Y005690D01*
X005610Y005610D01*
X005690Y005610D01*
X005690Y005690D01*
X006080Y005690D01*
X006080Y005828D01*
X006005Y005903D01*
X006295Y005903D01*
X006220Y005828D01*
X006220Y005690D01*
X006610Y005690D01*
X006610Y005610D01*
X006220Y005610D01*
X006220Y005472D01*
X006350Y005342D01*
X006238Y005230D01*
X005971Y004963D01*
X005836Y005098D01*
X005464Y005098D01*
X005202Y004836D01*
X005202Y004464D01*
X005464Y004202D01*
X005836Y004202D01*
X005965Y004331D01*
X006076Y004220D01*
X007158Y003137D01*
X007195Y003137D01*
X007138Y003080D01*
X007082Y002945D01*
X007082Y002799D01*
X007138Y002665D01*
X007241Y002561D01*
X007376Y002506D01*
X007522Y002506D01*
X007657Y002561D01*
X007741Y002645D01*
X013498Y002645D01*
X013631Y002778D01*
X013631Y002778D01*
X016303Y005450D01*
X016436Y005583D01*
X016436Y005681D01*
X020000Y005681D01*
X020000Y005583D02*
X016435Y005583D01*
X016436Y005681D02*
X016520Y005765D01*
X016576Y005900D01*
X016576Y006046D01*
X016520Y006181D01*
X016417Y006284D01*
X016282Y006340D01*
X016182Y006340D01*
X016182Y006440D01*
X016126Y006574D01*
X016023Y006678D01*
X015888Y006733D01*
X015742Y006733D01*
X015608Y006678D01*
X015504Y006574D01*
X015449Y006440D01*
X015449Y006321D01*
X014684Y005557D01*
X014650Y005639D01*
X014547Y005742D01*
X014464Y005777D01*
X016992Y008305D01*
X017099Y008305D01*
X017182Y008221D01*
X017317Y008165D01*
X017463Y008165D01*
X017598Y008221D01*
X017701Y008324D01*
X017757Y008459D01*
X017757Y008605D01*
X017701Y008740D01*
X017598Y008843D01*
X017463Y008899D01*
X017317Y008899D01*
X017182Y008843D01*
X017099Y008759D01*
X016804Y008759D01*
X013015Y004970D01*
X012989Y004944D01*
X012836Y005098D01*
X012464Y005098D01*
X012202Y004836D01*
X012202Y004464D01*
X012287Y004379D01*
X012013Y004379D01*
X012098Y004464D01*
X012098Y004836D01*
X011836Y005098D01*
X011464Y005098D01*
X011202Y004836D01*
X011202Y004464D01*
X011287Y004379D01*
X011283Y004379D01*
X011098Y004564D01*
X011098Y004836D01*
X010836Y005098D01*
X010464Y005098D01*
X010202Y004836D01*
X010202Y004464D01*
X010464Y004202D01*
X010818Y004202D01*
X010887Y004133D01*
X007494Y004133D01*
X007098Y004529D01*
X007098Y004836D01*
X007025Y004909D01*
X007109Y004909D01*
X007202Y004816D01*
X007202Y004464D01*
X007464Y004202D01*
X007836Y004202D01*
X008098Y004464D01*
X008098Y004836D01*
X007836Y005098D01*
X007563Y005098D01*
X007297Y005363D01*
X006971Y005363D01*
X007080Y005472D01*
X007080Y005610D01*
X006690Y005610D01*
X006690Y005690D01*
X007080Y005690D01*
X007080Y005828D01*
X007005Y005903D01*
X007295Y005903D01*
X007220Y005828D01*
X007220Y005690D01*
X007610Y005690D01*
X007610Y005610D01*
X007690Y005610D01*
X007690Y005690D01*
X008080Y005690D01*
X008080Y005828D01*
X008005Y005903D01*
X008295Y005903D01*
X008220Y005828D01*
X008220Y005690D01*
X008610Y005690D01*
X008610Y005610D01*
X008690Y005610D01*
X008690Y005690D01*
X009080Y005690D01*
X009080Y005828D01*
X009005Y005903D01*
X009295Y005903D01*
X009220Y005828D01*
X009220Y005690D01*
X009610Y005690D01*
X009610Y005610D01*
X009690Y005610D01*
X009690Y005690D01*
X010080Y005690D01*
X010080Y005828D01*
X010005Y005903D01*
X010295Y005903D01*
X010220Y005828D01*
X010220Y005690D01*
X010610Y005690D01*
X010610Y005610D01*
X010690Y005610D01*
X010690Y005690D01*
X011080Y005690D01*
X011080Y005828D01*
X011005Y005903D01*
X011295Y005903D01*
X011220Y005828D01*
X011220Y005690D01*
X011610Y005690D01*
X011610Y005610D01*
X011690Y005610D01*
X011690Y005690D01*
X012080Y005690D01*
X012080Y005828D01*
X012005Y005903D01*
X012295Y005903D01*
X012220Y005828D01*
X012220Y005690D01*
X012610Y005690D01*
X012610Y005610D01*
X012690Y005610D01*
X012690Y005690D01*
X013080Y005690D01*
X013080Y005828D01*
X013005Y005903D01*
X013014Y005903D01*
X013112Y005944D01*
X014614Y007446D01*
X014655Y007544D01*
X014655Y009012D01*
X015202Y009559D01*
X015202Y009464D01*
X015464Y009202D01*
X015836Y009202D01*
X016070Y009437D01*
X016106Y009437D01*
X016202Y009532D01*
X016202Y009464D01*
X016464Y009202D01*
X016836Y009202D01*
X017098Y009464D01*
X017098Y009836D01*
X016974Y009960D01*
X017238Y010224D01*
X017353Y010339D01*
X017472Y010220D01*
X017610Y010220D01*
X017610Y010610D01*
X017690Y010610D01*
X017690Y010690D01*
X017610Y010690D01*
X017610Y011080D01*
X017472Y011080D01*
X017371Y010979D01*
X017371Y014048D01*
X017525Y014202D01*
X017836Y014202D01*
X018098Y014464D01*
X018098Y014836D01*
X017836Y015098D01*
X017464Y015098D01*
X017202Y014836D01*
X017202Y014521D01*
X016917Y014236D01*
X016917Y011017D01*
X016836Y011098D01*
X016830Y011098D01*
X016830Y011825D01*
X014098Y014557D01*
X014098Y014810D01*
X014369Y015081D01*
X014369Y015323D01*
X014472Y015220D01*
X014610Y015220D01*
X014610Y015610D01*
X014690Y015610D01*
X014690Y015690D01*
X015080Y015690D01*
X015080Y015828D01*
X014828Y016080D01*
X014728Y016080D01*
X015206Y016558D01*
X015206Y017041D01*
X015073Y017174D01*
X015058Y017189D01*
X015058Y018112D01*
X015127Y018181D01*
X015186Y018323D01*
X015186Y018477D01*
X015127Y018619D01*
X015083Y018663D01*
X015086Y018665D01*
X015126Y018726D01*
X015154Y018793D01*
X015157Y018810D01*
X015490Y018477D01*
X015490Y016550D01*
X015406Y016466D01*
X015350Y016331D01*
X015350Y016185D01*
X015406Y016050D01*
X015424Y016032D01*
X015220Y015828D01*
X015220Y015690D01*
X015610Y015690D01*
X015610Y015610D01*
X015690Y015610D01*
X015690Y015690D01*
X016080Y015690D01*
X016080Y015828D01*
X015943Y015965D01*
X016028Y016050D01*
X016084Y016185D01*
X016084Y016331D01*
X016028Y016466D01*
X015944Y016550D01*
X015944Y018665D01*
X015811Y018798D01*
X014609Y020000D01*
X020000Y020000D01*
X020000Y001300D01*
X001300Y001300D01*
X001300Y020000D01*
X002320Y020000D01*
X002309Y019973D01*
X002309Y019827D01*
X002365Y019692D01*
X002452Y019604D01*
X002448Y019600D01*
X002134Y019286D01*
X002073Y019286D01*
X001931Y019227D01*
X001823Y019119D01*
X001764Y018977D01*
X001764Y018823D01*
X001803Y018727D01*
X001764Y018688D01*
X001764Y018112D01*
X001862Y018014D01*
X002020Y018014D01*
X002843Y017190D01*
X002937Y017107D02*
X001300Y017107D01*
X001300Y017009D02*
X003653Y017009D01*
X003637Y016910D02*
X001300Y016910D01*
X001300Y016812D02*
X003643Y016812D01*
X003684Y016713D02*
X001300Y016713D01*
X001300Y016615D02*
X003596Y016615D01*
X003498Y016516D02*
X001300Y016516D01*
X001300Y016418D02*
X003399Y016418D01*
X003301Y016319D02*
X001300Y016319D01*
X001300Y016221D02*
X003202Y016221D01*
X003104Y016122D02*
X001300Y016122D01*
X001300Y016024D02*
X003005Y016024D01*
X002620Y015925D02*
X002318Y015925D01*
X002422Y015827D02*
X002516Y015827D01*
X001832Y015925D02*
X001300Y015925D01*
X001300Y015827D02*
X001728Y015827D01*
X001670Y015728D02*
X001300Y015728D01*
X001300Y015630D02*
X001630Y015630D01*
X001630Y015531D02*
X001300Y015531D01*
X001300Y015433D02*
X001639Y015433D01*
X001680Y015334D02*
X001300Y015334D01*
X001300Y015236D02*
X001754Y015236D01*
X001831Y015137D02*
X001300Y015137D01*
X001300Y015039D02*
X001728Y015039D01*
X001669Y014940D02*
X001300Y014940D01*
X001300Y014842D02*
X001630Y014842D01*
X001630Y014743D02*
X001300Y014743D01*
X001300Y014645D02*
X001640Y014645D01*
X001680Y014546D02*
X001300Y014546D01*
X001300Y014448D02*
X001754Y014448D01*
X001895Y014349D02*
X001300Y014349D01*
X001300Y014251D02*
X002190Y014251D01*
X002289Y014152D02*
X001300Y014152D01*
X001300Y014054D02*
X002387Y014054D01*
X002486Y013955D02*
X001300Y013955D01*
X001300Y013857D02*
X002584Y013857D01*
X002683Y013758D02*
X001300Y013758D01*
X001300Y013660D02*
X002781Y013660D01*
X002880Y013561D02*
X001300Y013561D01*
X001300Y013463D02*
X002978Y013463D01*
X003077Y013364D02*
X001300Y013364D01*
X001300Y013266D02*
X003175Y013266D01*
X003274Y013167D02*
X001300Y013167D01*
X001300Y013069D02*
X003372Y013069D01*
X003471Y012970D02*
X001300Y012970D01*
X001300Y012872D02*
X003569Y012872D01*
X003668Y012773D02*
X001300Y012773D01*
X001300Y012675D02*
X003766Y012675D01*
X003784Y012576D02*
X001300Y012576D01*
X001300Y012478D02*
X003685Y012478D01*
X003587Y012379D02*
X001300Y012379D01*
X001300Y012281D02*
X003488Y012281D01*
X003390Y012182D02*
X001300Y012182D01*
X001300Y012084D02*
X003291Y012084D01*
X003193Y011985D02*
X001300Y011985D01*
X001300Y011887D02*
X003094Y011887D01*
X002996Y011788D02*
X001300Y011788D01*
X001300Y011690D02*
X002897Y011690D01*
X002799Y011591D02*
X001300Y011591D01*
X001300Y011493D02*
X002700Y011493D01*
X002602Y011394D02*
X001300Y011394D01*
X001300Y011296D02*
X002503Y011296D01*
X002405Y011197D02*
X001300Y011197D01*
X001300Y011099D02*
X002306Y011099D01*
X002208Y011000D02*
X001300Y011000D01*
X001300Y010902D02*
X001835Y010902D01*
X001736Y010803D02*
X001300Y010803D01*
X001300Y010705D02*
X001691Y010705D01*
X001661Y010606D02*
X001300Y010606D01*
X001300Y010508D02*
X001661Y010508D01*
X001681Y010409D02*
X001300Y010409D01*
X001300Y010311D02*
X001721Y010311D01*
X001809Y010212D02*
X001300Y010212D01*
X001300Y010114D02*
X001834Y010114D01*
X001736Y010015D02*
X001300Y010015D01*
X001300Y009917D02*
X001691Y009917D01*
X001661Y009818D02*
X001300Y009818D01*
X001300Y009720D02*
X001661Y009720D01*
X001681Y009621D02*
X001300Y009621D01*
X001300Y009523D02*
X001722Y009523D01*
X001809Y009424D02*
X001300Y009424D01*
X001300Y009326D02*
X001983Y009326D01*
X002230Y009326D02*
X002771Y009326D01*
X002597Y009424D02*
X002404Y009424D01*
X002492Y009523D02*
X002509Y009523D01*
X003018Y009326D02*
X003558Y009326D01*
X003384Y009424D02*
X003192Y009424D01*
X003279Y009523D02*
X003296Y009523D01*
X003874Y009227D02*
X001300Y009227D01*
X001300Y009129D02*
X003972Y009129D01*
X004071Y009030D02*
X001300Y009030D01*
X001300Y008932D02*
X004169Y008932D01*
X004268Y008833D02*
X001300Y008833D01*
X001300Y008735D02*
X004366Y008735D01*
X004465Y008636D02*
X001300Y008636D01*
X001300Y008538D02*
X004563Y008538D01*
X004662Y008439D02*
X001300Y008439D01*
X001300Y008341D02*
X004760Y008341D01*
X004859Y008242D02*
X001300Y008242D01*
X001300Y008144D02*
X004957Y008144D01*
X005056Y008045D02*
X001300Y008045D01*
X001300Y007947D02*
X005154Y007947D01*
X005253Y007848D02*
X001300Y007848D01*
X001300Y007750D02*
X005351Y007750D01*
X005450Y007651D02*
X001300Y007651D01*
X001300Y007553D02*
X005548Y007553D01*
X005647Y007454D02*
X001300Y007454D01*
X001300Y007356D02*
X005745Y007356D01*
X005844Y007257D02*
X001300Y007257D01*
X001300Y007159D02*
X005942Y007159D01*
X006041Y007060D02*
X001300Y007060D01*
X001300Y006962D02*
X006139Y006962D01*
X006238Y006863D02*
X001300Y006863D01*
X001300Y006765D02*
X006336Y006765D01*
X006435Y006666D02*
X001300Y006666D01*
X001300Y006568D02*
X006533Y006568D01*
X006632Y006469D02*
X001300Y006469D01*
X001300Y006371D02*
X003976Y006371D01*
X003877Y006272D02*
X001300Y006272D01*
X001300Y006174D02*
X003779Y006174D01*
X003441Y006075D02*
X001300Y006075D01*
X001300Y005977D02*
X003343Y005977D01*
X003244Y005878D02*
X001300Y005878D01*
X001300Y005780D02*
X003202Y005780D01*
X003202Y005681D02*
X001300Y005681D01*
X001300Y005583D02*
X003202Y005583D01*
X003202Y005484D02*
X001300Y005484D01*
X001300Y005386D02*
X003281Y005386D01*
X003379Y005287D02*
X001300Y005287D01*
X001300Y005189D02*
X006196Y005189D01*
X006294Y005287D02*
X005895Y005287D01*
X005828Y005220D02*
X006080Y005472D01*
X006080Y005610D01*
X005690Y005610D01*
X005690Y005220D01*
X005828Y005220D01*
X005844Y005090D02*
X006097Y005090D01*
X005999Y004992D02*
X005942Y004992D01*
X005690Y005287D02*
X005610Y005287D01*
X005610Y005220D02*
X005610Y005610D01*
X005220Y005610D01*
X005220Y005472D01*
X005472Y005220D01*
X005610Y005220D01*
X005610Y005386D02*
X005690Y005386D01*
X005690Y005484D02*
X005610Y005484D01*
X005610Y005583D02*
X005690Y005583D01*
X005690Y005681D02*
X006610Y005681D01*
X006690Y005681D02*
X007610Y005681D01*
X007610Y005610D02*
X007220Y005610D01*
X007220Y005472D01*
X007472Y005220D01*
X007610Y005220D01*
X007610Y005610D01*
X007610Y005583D02*
X007690Y005583D01*
X007690Y005610D02*
X007690Y005220D01*
X007828Y005220D01*
X008080Y005472D01*
X008080Y005610D01*
X007690Y005610D01*
X007690Y005681D02*
X008610Y005681D01*
X008610Y005610D02*
X008220Y005610D01*
X008220Y005472D01*
X008472Y005220D01*
X008610Y005220D01*
X008610Y005610D01*
X008610Y005583D02*
X008690Y005583D01*
X008690Y005610D02*
X008690Y005220D01*
X008828Y005220D01*
X009080Y005472D01*
X009080Y005610D01*
X008690Y005610D01*
X008690Y005681D02*
X009610Y005681D01*
X009610Y005610D02*
X009220Y005610D01*
X009220Y005472D01*
X009472Y005220D01*
X009610Y005220D01*
X009610Y005610D01*
X009610Y005583D02*
X009690Y005583D01*
X009690Y005610D02*
X009690Y005220D01*
X009828Y005220D01*
X010080Y005472D01*
X010080Y005610D01*
X009690Y005610D01*
X009690Y005681D02*
X010610Y005681D01*
X010610Y005610D02*
X010220Y005610D01*
X010220Y005472D01*
X010472Y005220D01*
X010610Y005220D01*
X010610Y005610D01*
X010610Y005583D02*
X010690Y005583D01*
X010690Y005610D02*
X010690Y005220D01*
X010828Y005220D01*
X011080Y005472D01*
X011080Y005610D01*
X010690Y005610D01*
X010690Y005681D02*
X011610Y005681D01*
X011610Y005610D02*
X011220Y005610D01*
X011220Y005472D01*
X011472Y005220D01*
X011610Y005220D01*
X011610Y005610D01*
X011610Y005583D02*
X011690Y005583D01*
X011690Y005610D02*
X011690Y005220D01*
X011828Y005220D01*
X012080Y005472D01*
X012080Y005610D01*
X011690Y005610D01*
X011690Y005681D02*
X012610Y005681D01*
X012610Y005610D02*
X012220Y005610D01*
X012220Y005472D01*
X012472Y005220D01*
X012610Y005220D01*
X012610Y005610D01*
X012610Y005583D02*
X012690Y005583D01*
X012690Y005610D02*
X012690Y005220D01*
X012828Y005220D01*
X013080Y005472D01*
X013080Y005610D01*
X012690Y005610D01*
X012690Y005681D02*
X013726Y005681D01*
X013824Y005780D02*
X013080Y005780D01*
X013030Y005878D02*
X013923Y005878D01*
X014021Y005977D02*
X013145Y005977D01*
X013243Y006075D02*
X014120Y006075D01*
X014218Y006174D02*
X013342Y006174D01*
X013440Y006272D02*
X014317Y006272D01*
X014415Y006371D02*
X013539Y006371D01*
X013637Y006469D02*
X014514Y006469D01*
X014612Y006568D02*
X013736Y006568D01*
X013834Y006666D02*
X014711Y006666D01*
X014809Y006765D02*
X013933Y006765D01*
X014031Y006863D02*
X014908Y006863D01*
X015006Y006962D02*
X014130Y006962D01*
X014228Y007060D02*
X015105Y007060D01*
X015203Y007159D02*
X014327Y007159D01*
X014425Y007257D02*
X015302Y007257D01*
X015400Y007356D02*
X014524Y007356D01*
X014618Y007454D02*
X015499Y007454D01*
X015597Y007553D02*
X014655Y007553D01*
X014655Y007651D02*
X015696Y007651D01*
X015794Y007750D02*
X014655Y007750D01*
X014655Y007848D02*
X015893Y007848D01*
X015991Y007947D02*
X014655Y007947D01*
X014655Y008045D02*
X016090Y008045D01*
X016188Y008144D02*
X014655Y008144D01*
X014655Y008242D02*
X016287Y008242D01*
X016385Y008341D02*
X014655Y008341D01*
X014655Y008439D02*
X016484Y008439D01*
X016582Y008538D02*
X014655Y008538D01*
X014655Y008636D02*
X016681Y008636D01*
X016779Y008735D02*
X014655Y008735D01*
X014655Y008833D02*
X017172Y008833D01*
X017608Y008833D02*
X020000Y008833D01*
X020000Y008735D02*
X017703Y008735D01*
X017744Y008636D02*
X020000Y008636D01*
X020000Y008538D02*
X017757Y008538D01*
X017749Y008439D02*
X020000Y008439D01*
X020000Y008341D02*
X017708Y008341D01*
X017619Y008242D02*
X020000Y008242D01*
X020000Y008144D02*
X016831Y008144D01*
X016929Y008242D02*
X017161Y008242D01*
X016732Y008045D02*
X020000Y008045D01*
X020000Y007947D02*
X016634Y007947D01*
X016535Y007848D02*
X020000Y007848D01*
X020000Y007750D02*
X016437Y007750D01*
X016338Y007651D02*
X020000Y007651D01*
X020000Y007553D02*
X016240Y007553D01*
X016141Y007454D02*
X020000Y007454D01*
X020000Y007356D02*
X016043Y007356D01*
X015944Y007257D02*
X020000Y007257D01*
X020000Y007159D02*
X015846Y007159D01*
X015747Y007060D02*
X020000Y007060D01*
X020000Y006962D02*
X015649Y006962D01*
X015550Y006863D02*
X020000Y006863D01*
X020000Y006765D02*
X015452Y006765D01*
X015353Y006666D02*
X015596Y006666D01*
X015502Y006568D02*
X015255Y006568D01*
X015156Y006469D02*
X015461Y006469D01*
X015449Y006371D02*
X015058Y006371D01*
X014959Y006272D02*
X015400Y006272D01*
X015301Y006174D02*
X014861Y006174D01*
X014762Y006075D02*
X015203Y006075D01*
X015104Y005977D02*
X014664Y005977D01*
X014565Y005878D02*
X015006Y005878D01*
X014907Y005780D02*
X014467Y005780D01*
X014608Y005681D02*
X014809Y005681D01*
X014710Y005583D02*
X014673Y005583D01*
X015549Y004696D02*
X020000Y004696D01*
X020000Y004598D02*
X015450Y004598D01*
X015352Y004499D02*
X020000Y004499D01*
X020000Y004401D02*
X015253Y004401D01*
X015155Y004302D02*
X020000Y004302D01*
X020000Y004204D02*
X015056Y004204D01*
X014958Y004105D02*
X020000Y004105D01*
X020000Y004007D02*
X014859Y004007D01*
X014761Y003908D02*
X020000Y003908D01*
X020000Y003810D02*
X014662Y003810D01*
X014564Y003711D02*
X020000Y003711D01*
X020000Y003613D02*
X014465Y003613D01*
X014367Y003514D02*
X020000Y003514D01*
X020000Y003416D02*
X014268Y003416D01*
X014170Y003317D02*
X020000Y003317D01*
X020000Y003219D02*
X014071Y003219D01*
X013973Y003120D02*
X020000Y003120D01*
X020000Y003022D02*
X013874Y003022D01*
X013776Y002923D02*
X020000Y002923D01*
X020000Y002825D02*
X013677Y002825D01*
X013579Y002726D02*
X020000Y002726D01*
X020000Y002628D02*
X007723Y002628D01*
X007579Y002529D02*
X020000Y002529D01*
X020000Y002431D02*
X001300Y002431D01*
X001300Y002529D02*
X007320Y002529D01*
X007175Y002628D02*
X001300Y002628D01*
X001300Y002726D02*
X007113Y002726D01*
X007082Y002825D02*
X001300Y002825D01*
X001300Y002923D02*
X007082Y002923D01*
X007114Y003022D02*
X001300Y003022D01*
X001300Y003120D02*
X007178Y003120D01*
X007077Y003219D02*
X001300Y003219D01*
X001300Y003317D02*
X006979Y003317D01*
X006880Y003416D02*
X001300Y003416D01*
X001300Y003514D02*
X006782Y003514D01*
X006683Y003613D02*
X001300Y003613D01*
X001300Y003711D02*
X006585Y003711D01*
X006486Y003810D02*
X001300Y003810D01*
X001300Y003908D02*
X006388Y003908D01*
X006289Y004007D02*
X001300Y004007D01*
X001300Y004105D02*
X006191Y004105D01*
X006092Y004204D02*
X005837Y004204D01*
X005936Y004302D02*
X005994Y004302D01*
X005463Y004204D02*
X004837Y004204D01*
X004836Y004202D02*
X005098Y004464D01*
X005098Y004836D01*
X004836Y005098D01*
X004464Y005098D01*
X004202Y004836D01*
X004202Y004464D01*
X004464Y004202D01*
X004836Y004202D01*
X004936Y004302D02*
X005364Y004302D01*
X005266Y004401D02*
X005034Y004401D01*
X005098Y004499D02*
X005202Y004499D01*
X005202Y004598D02*
X005098Y004598D01*
X005098Y004696D02*
X005202Y004696D01*
X005202Y004795D02*
X005098Y004795D01*
X005041Y004893D02*
X005259Y004893D01*
X005358Y004992D02*
X004942Y004992D01*
X004844Y005090D02*
X005456Y005090D01*
X005405Y005287D02*
X004895Y005287D01*
X004828Y005220D02*
X005080Y005472D01*
X005080Y005610D01*
X004690Y005610D01*
X004690Y005220D01*
X004828Y005220D01*
X004690Y005287D02*
X004610Y005287D01*
X004610Y005220D02*
X004610Y005610D01*
X004220Y005610D01*
X004220Y005472D01*
X004472Y005220D01*
X004610Y005220D01*
X004610Y005386D02*
X004690Y005386D01*
X004690Y005484D02*
X004610Y005484D01*
X004610Y005583D02*
X004690Y005583D01*
X004690Y005681D02*
X005610Y005681D01*
X005270Y005878D02*
X005030Y005878D01*
X005080Y005780D02*
X005220Y005780D01*
X005220Y005583D02*
X005080Y005583D01*
X005080Y005484D02*
X005220Y005484D01*
X005306Y005386D02*
X004994Y005386D01*
X004610Y005681D02*
X004098Y005681D01*
X004098Y005583D02*
X004220Y005583D01*
X004220Y005484D02*
X004098Y005484D01*
X004019Y005386D02*
X004306Y005386D01*
X004405Y005287D02*
X003921Y005287D01*
X003836Y005098D02*
X003464Y005098D01*
X003202Y004836D01*
X003202Y004464D01*
X003464Y004202D01*
X003836Y004202D01*
X004098Y004464D01*
X004098Y004836D01*
X003836Y005098D01*
X003844Y005090D02*
X004456Y005090D01*
X004358Y004992D02*
X003942Y004992D01*
X004041Y004893D02*
X004259Y004893D01*
X004202Y004795D02*
X004098Y004795D01*
X004098Y004696D02*
X004202Y004696D01*
X004202Y004598D02*
X004098Y004598D01*
X004098Y004499D02*
X004202Y004499D01*
X004266Y004401D02*
X004034Y004401D01*
X003936Y004302D02*
X004364Y004302D01*
X004463Y004204D02*
X003837Y004204D01*
X003463Y004204D02*
X001300Y004204D01*
X001300Y004302D02*
X003364Y004302D01*
X003266Y004401D02*
X001300Y004401D01*
X001300Y004499D02*
X003202Y004499D01*
X003202Y004598D02*
X001300Y004598D01*
X001300Y004696D02*
X003202Y004696D01*
X003202Y004795D02*
X001300Y004795D01*
X001300Y004893D02*
X003259Y004893D01*
X003358Y004992D02*
X001300Y004992D01*
X001300Y005090D02*
X003456Y005090D01*
X004139Y005780D02*
X004220Y005780D01*
X004237Y005878D02*
X004270Y005878D01*
X006030Y005878D02*
X006270Y005878D01*
X006220Y005780D02*
X006080Y005780D01*
X006080Y005583D02*
X006220Y005583D01*
X006220Y005484D02*
X006080Y005484D01*
X005994Y005386D02*
X006306Y005386D01*
X006994Y005386D02*
X007306Y005386D01*
X007374Y005287D02*
X007405Y005287D01*
X007472Y005189D02*
X013233Y005189D01*
X013332Y005287D02*
X012895Y005287D01*
X012994Y005386D02*
X013430Y005386D01*
X013529Y005484D02*
X013080Y005484D01*
X013080Y005583D02*
X013627Y005583D01*
X013135Y005090D02*
X012844Y005090D01*
X012942Y004992D02*
X013036Y004992D01*
X012690Y005287D02*
X012610Y005287D01*
X012610Y005386D02*
X012690Y005386D01*
X012690Y005484D02*
X012610Y005484D01*
X012405Y005287D02*
X011895Y005287D01*
X011994Y005386D02*
X012306Y005386D01*
X012220Y005484D02*
X012080Y005484D01*
X012080Y005583D02*
X012220Y005583D01*
X012220Y005780D02*
X012080Y005780D01*
X012030Y005878D02*
X012270Y005878D01*
X011690Y005484D02*
X011610Y005484D01*
X011610Y005386D02*
X011690Y005386D01*
X011690Y005287D02*
X011610Y005287D01*
X011405Y005287D02*
X010895Y005287D01*
X010994Y005386D02*
X011306Y005386D01*
X011220Y005484D02*
X011080Y005484D01*
X011080Y005583D02*
X011220Y005583D01*
X011220Y005780D02*
X011080Y005780D01*
X011030Y005878D02*
X011270Y005878D01*
X010690Y005484D02*
X010610Y005484D01*
X010610Y005386D02*
X010690Y005386D01*
X010690Y005287D02*
X010610Y005287D01*
X010405Y005287D02*
X009895Y005287D01*
X009994Y005386D02*
X010306Y005386D01*
X010220Y005484D02*
X010080Y005484D01*
X010080Y005583D02*
X010220Y005583D01*
X010220Y005780D02*
X010080Y005780D01*
X010030Y005878D02*
X010270Y005878D01*
X010088Y006469D02*
X012883Y006469D01*
X012982Y006568D02*
X010186Y006568D01*
X010482Y006666D02*
X013080Y006666D01*
X013179Y006765D02*
X010572Y006765D01*
X010612Y006863D02*
X013277Y006863D01*
X013376Y006962D02*
X010621Y006962D01*
X010609Y007060D02*
X013474Y007060D01*
X013573Y007159D02*
X010568Y007159D01*
X010473Y007257D02*
X013671Y007257D01*
X013770Y007356D02*
X010080Y007356D01*
X010067Y007454D02*
X013868Y007454D01*
X013967Y007553D02*
X010027Y007553D01*
X009932Y007651D02*
X014065Y007651D01*
X014122Y007750D02*
X008996Y007750D01*
X008957Y007848D02*
X014122Y007848D01*
X014122Y007947D02*
X009055Y007947D01*
X009154Y008045D02*
X012390Y008045D01*
X012291Y008144D02*
X009252Y008144D01*
X009351Y008242D02*
X012248Y008242D01*
X012222Y008341D02*
X009449Y008341D01*
X009548Y008439D02*
X012222Y008439D01*
X012222Y008538D02*
X009646Y008538D01*
X009745Y008636D02*
X012222Y008636D01*
X012222Y008735D02*
X009843Y008735D01*
X009494Y007651D02*
X009237Y007651D01*
X009390Y007553D02*
X009399Y007553D01*
X008747Y007356D02*
X007963Y007356D01*
X007864Y007454D02*
X008649Y007454D01*
X008550Y007553D02*
X007766Y007553D01*
X007667Y007651D02*
X008452Y007651D01*
X008353Y007750D02*
X007569Y007750D01*
X007222Y007454D02*
X006289Y007454D01*
X006191Y007553D02*
X007123Y007553D01*
X007025Y007651D02*
X006092Y007651D01*
X005994Y007750D02*
X006926Y007750D01*
X006828Y007848D02*
X005895Y007848D01*
X005797Y007947D02*
X006729Y007947D01*
X006631Y008045D02*
X005698Y008045D01*
X005600Y008144D02*
X006532Y008144D01*
X006434Y008242D02*
X005501Y008242D01*
X005403Y008341D02*
X006335Y008341D01*
X006237Y008439D02*
X005304Y008439D01*
X005206Y008538D02*
X006138Y008538D01*
X006040Y008636D02*
X005107Y008636D01*
X005009Y008735D02*
X005941Y008735D01*
X005843Y008833D02*
X004910Y008833D01*
X004812Y008932D02*
X005744Y008932D01*
X005646Y009030D02*
X004713Y009030D01*
X004615Y009129D02*
X005547Y009129D01*
X005449Y009227D02*
X004516Y009227D01*
X004557Y009311D02*
X004432Y009311D01*
X007002Y006741D01*
X007934Y006741D01*
X005359Y009317D01*
X005345Y009311D01*
X005168Y009311D01*
X005004Y009379D01*
X004879Y009504D01*
X004863Y009543D01*
X004846Y009504D01*
X004721Y009379D01*
X004557Y009311D01*
X004592Y009326D02*
X005133Y009326D01*
X004959Y009424D02*
X004766Y009424D01*
X004854Y009523D02*
X004871Y009523D01*
X005218Y010508D02*
X004507Y010508D01*
X004507Y010582D02*
X005218Y010582D01*
X005218Y010970D01*
X005156Y010960D01*
X005092Y010940D01*
X005032Y010909D01*
X004978Y010870D01*
X004930Y010822D01*
X004891Y010768D01*
X004863Y010712D01*
X004834Y010768D01*
X004795Y010822D01*
X004747Y010870D01*
X004693Y010909D01*
X004633Y010940D01*
X004569Y010960D01*
X004507Y010970D01*
X004507Y010582D01*
X004507Y010606D02*
X004430Y010606D01*
X004430Y010508D02*
X003720Y010508D01*
X003643Y010508D02*
X002933Y010508D01*
X002933Y010606D02*
X002856Y010606D01*
X002856Y010705D02*
X002933Y010705D01*
X002933Y010803D02*
X002856Y010803D01*
X002863Y010902D02*
X002933Y010902D01*
X002962Y011000D02*
X008460Y011000D01*
X008449Y011099D02*
X003060Y011099D01*
X003159Y011197D02*
X008351Y011197D01*
X008252Y011296D02*
X003257Y011296D01*
X003356Y011394D02*
X008154Y011394D01*
X008055Y011493D02*
X003454Y011493D01*
X003553Y011591D02*
X007957Y011591D01*
X007858Y011690D02*
X003651Y011690D01*
X003750Y011788D02*
X007598Y011788D01*
X007464Y011887D02*
X003848Y011887D01*
X003947Y011985D02*
X007405Y011985D01*
X007378Y012084D02*
X004045Y012084D01*
X004144Y012182D02*
X007378Y012182D01*
X007412Y012281D02*
X004242Y012281D01*
X004341Y012379D02*
X007480Y012379D01*
X007611Y012478D02*
X004439Y012478D01*
X004538Y012576D02*
X007513Y012576D01*
X007414Y012675D02*
X004636Y012675D01*
X004735Y012773D02*
X006956Y012773D01*
X006823Y012872D02*
X004833Y012872D01*
X004932Y012970D02*
X006765Y012970D01*
X006738Y013069D02*
X005030Y013069D01*
X005129Y013167D02*
X006738Y013167D01*
X006773Y013266D02*
X005227Y013266D01*
X005326Y013364D02*
X006841Y013364D01*
X006971Y013463D02*
X005424Y013463D01*
X005523Y013561D02*
X006872Y013561D01*
X006774Y013660D02*
X005621Y013660D01*
X005720Y013758D02*
X006118Y013758D01*
X005986Y013857D02*
X005818Y013857D01*
X005917Y013955D02*
X005928Y013955D01*
X005557Y014349D02*
X005354Y014349D01*
X005325Y014340D02*
X005389Y014360D01*
X005449Y014391D01*
X005503Y014430D01*
X005551Y014478D01*
X005590Y014532D01*
X005621Y014592D01*
X005641Y014656D01*
X005651Y014718D01*
X005263Y014718D01*
X005263Y014330D01*
X005325Y014340D01*
X005263Y014349D02*
X005186Y014349D01*
X005186Y014330D02*
X005186Y014718D01*
X004883Y014718D01*
X004883Y014795D01*
X005186Y014795D01*
X005186Y014718D01*
X005263Y014718D01*
X005263Y014795D01*
X005639Y014795D01*
X005661Y014772D01*
X005662Y014771D01*
X005765Y014668D01*
X005843Y014635D01*
X004201Y012993D01*
X002824Y014371D01*
X002824Y014718D01*
X002901Y014718D01*
X002901Y014795D01*
X003611Y014795D01*
X003611Y014718D01*
X003224Y014718D01*
X002901Y014718D01*
X002901Y014330D01*
X002963Y014340D01*
X003027Y014360D01*
X003086Y014391D01*
X003141Y014430D01*
X003188Y014478D01*
X003228Y014532D01*
X003256Y014588D01*
X003285Y014532D01*
X003324Y014478D01*
X003372Y014430D01*
X003426Y014391D01*
X003486Y014360D01*
X003550Y014340D01*
X003611Y014330D01*
X003611Y014718D01*
X003689Y014718D01*
X003689Y014330D01*
X003750Y014340D01*
X003814Y014360D01*
X003874Y014391D01*
X003928Y014430D01*
X003976Y014478D01*
X004015Y014532D01*
X004033Y014568D01*
X004060Y014504D01*
X004185Y014379D01*
X004349Y014311D01*
X004526Y014311D01*
X004690Y014379D01*
X004815Y014504D01*
X004841Y014568D01*
X004859Y014532D01*
X004899Y014478D01*
X004947Y014430D01*
X005001Y014391D01*
X005061Y014360D01*
X005125Y014340D01*
X005186Y014330D01*
X005096Y014349D02*
X004618Y014349D01*
X004758Y014448D02*
X004929Y014448D01*
X004853Y014546D02*
X004832Y014546D01*
X004883Y014743D02*
X005186Y014743D01*
X005263Y014743D02*
X005690Y014743D01*
X005638Y014645D02*
X005821Y014645D01*
X005754Y014546D02*
X005597Y014546D01*
X005655Y014448D02*
X005520Y014448D01*
X005458Y014251D02*
X002944Y014251D01*
X002901Y014349D02*
X002846Y014349D01*
X002824Y014448D02*
X002901Y014448D01*
X002901Y014546D02*
X002824Y014546D01*
X002824Y014645D02*
X002901Y014645D01*
X002901Y014743D02*
X003611Y014743D01*
X003611Y014645D02*
X003689Y014645D01*
X003689Y014546D02*
X003611Y014546D01*
X003611Y014448D02*
X003689Y014448D01*
X003689Y014349D02*
X003611Y014349D01*
X003521Y014349D02*
X002991Y014349D01*
X003158Y014448D02*
X003355Y014448D01*
X003278Y014546D02*
X003235Y014546D01*
X003043Y014152D02*
X005360Y014152D01*
X005261Y014054D02*
X003141Y014054D01*
X003240Y013955D02*
X005163Y013955D01*
X005064Y013857D02*
X003338Y013857D01*
X003437Y013758D02*
X004966Y013758D01*
X004867Y013660D02*
X003535Y013660D01*
X003634Y013561D02*
X004769Y013561D01*
X004670Y013463D02*
X003732Y013463D01*
X003831Y013364D02*
X004572Y013364D01*
X004473Y013266D02*
X003929Y013266D01*
X004028Y013167D02*
X004375Y013167D01*
X004276Y013069D02*
X004126Y013069D01*
X004257Y014349D02*
X003779Y014349D01*
X003945Y014448D02*
X004116Y014448D01*
X004043Y014546D02*
X004022Y014546D01*
X005186Y014546D02*
X005263Y014546D01*
X005263Y014448D02*
X005186Y014448D01*
X005186Y014645D02*
X005263Y014645D01*
X006418Y013758D02*
X006675Y013758D01*
X006577Y013857D02*
X006551Y013857D01*
X006924Y014152D02*
X007714Y014152D01*
X007714Y014054D02*
X007022Y014054D01*
X007121Y013955D02*
X007714Y013955D01*
X007714Y013857D02*
X007219Y013857D01*
X007318Y013758D02*
X007714Y013758D01*
X007714Y013660D02*
X007416Y013660D01*
X007515Y013561D02*
X007714Y013561D01*
X007714Y013463D02*
X007613Y013463D01*
X007712Y013364D02*
X007714Y013364D01*
X007316Y012773D02*
X007253Y012773D01*
X006825Y014251D02*
X007714Y014251D01*
X007714Y014349D02*
X006845Y014349D01*
X006938Y014448D02*
X007714Y014448D01*
X007714Y014546D02*
X006938Y014546D01*
X006938Y014645D02*
X007714Y014645D01*
X007714Y014743D02*
X006938Y014743D01*
X006938Y014842D02*
X007714Y014842D01*
X007714Y014940D02*
X006938Y014940D01*
X006938Y015039D02*
X007714Y015039D01*
X007714Y015137D02*
X006938Y015137D01*
X006938Y015236D02*
X007714Y015236D01*
X007714Y015334D02*
X006923Y015334D01*
X006825Y015433D02*
X007714Y015433D01*
X007714Y015531D02*
X006726Y015531D01*
X006628Y015630D02*
X007714Y015630D01*
X006031Y018782D02*
X005718Y018782D01*
X005690Y019274D02*
X006058Y019274D01*
X006224Y019373D02*
X005659Y019373D01*
X005659Y019471D02*
X013735Y019471D01*
X013609Y019570D02*
X005659Y019570D01*
X005659Y019668D02*
X013554Y019668D01*
X013529Y019767D02*
X005659Y019767D01*
X005591Y019865D02*
X013529Y019865D01*
X013566Y019964D02*
X005492Y019964D01*
X006411Y019373D02*
X014594Y019373D01*
X014496Y019471D02*
X014057Y019471D01*
X014183Y019570D02*
X014397Y019570D01*
X014406Y019274D02*
X014693Y019274D01*
X015040Y019570D02*
X020000Y019570D01*
X020000Y019668D02*
X014941Y019668D01*
X014843Y019767D02*
X020000Y019767D01*
X020000Y019865D02*
X014744Y019865D01*
X014646Y019964D02*
X020000Y019964D01*
X020000Y019471D02*
X015138Y019471D01*
X015237Y019373D02*
X020000Y019373D01*
X020000Y019274D02*
X015335Y019274D01*
X015434Y019176D02*
X020000Y019176D01*
X020000Y019077D02*
X015532Y019077D01*
X015631Y018979D02*
X020000Y018979D01*
X020000Y018880D02*
X015729Y018880D01*
X015828Y018782D02*
X020000Y018782D01*
X020000Y018683D02*
X015926Y018683D01*
X015944Y018585D02*
X020000Y018585D01*
X020000Y018486D02*
X015944Y018486D01*
X015944Y018388D02*
X020000Y018388D01*
X020000Y018289D02*
X015944Y018289D01*
X015944Y018191D02*
X020000Y018191D01*
X020000Y018092D02*
X015944Y018092D01*
X015944Y017994D02*
X020000Y017994D01*
X020000Y017895D02*
X015944Y017895D01*
X015944Y017797D02*
X020000Y017797D01*
X020000Y017698D02*
X015944Y017698D01*
X015944Y017600D02*
X020000Y017600D01*
X020000Y017501D02*
X015944Y017501D01*
X015944Y017403D02*
X020000Y017403D01*
X020000Y017304D02*
X015944Y017304D01*
X015944Y017206D02*
X020000Y017206D01*
X020000Y017107D02*
X015944Y017107D01*
X015944Y017009D02*
X020000Y017009D01*
X020000Y016910D02*
X015944Y016910D01*
X015944Y016812D02*
X020000Y016812D01*
X020000Y016713D02*
X015944Y016713D01*
X015944Y016615D02*
X020000Y016615D01*
X020000Y016516D02*
X015978Y016516D01*
X016048Y016418D02*
X020000Y016418D01*
X020000Y016319D02*
X016084Y016319D01*
X016084Y016221D02*
X020000Y016221D01*
X020000Y016122D02*
X016058Y016122D01*
X016001Y016024D02*
X016415Y016024D01*
X016472Y016080D02*
X016220Y015828D01*
X016220Y015690D01*
X016610Y015690D01*
X016610Y016080D01*
X016472Y016080D01*
X016610Y016024D02*
X016690Y016024D01*
X016690Y016080D02*
X016828Y016080D01*
X017080Y015828D01*
X017080Y015690D01*
X016690Y015690D01*
X016690Y015610D01*
X017080Y015610D01*
X017080Y015472D01*
X016828Y015220D01*
X016690Y015220D01*
X016690Y015610D01*
X016610Y015610D01*
X016610Y015220D01*
X016472Y015220D01*
X016220Y015472D01*
X016220Y015610D01*
X016610Y015610D01*
X016610Y015690D01*
X016690Y015690D01*
X016690Y016080D01*
X016690Y015925D02*
X016610Y015925D01*
X016610Y015827D02*
X016690Y015827D01*
X016690Y015728D02*
X016610Y015728D01*
X016610Y015630D02*
X015690Y015630D01*
X015690Y015610D02*
X016080Y015610D01*
X016080Y015472D01*
X015828Y015220D01*
X015690Y015220D01*
X015690Y015610D01*
X015690Y015531D02*
X015610Y015531D01*
X015610Y015610D02*
X015610Y015220D01*
X015472Y015220D01*
X015220Y015472D01*
X015220Y015610D01*
X015610Y015610D01*
X015610Y015630D02*
X014690Y015630D01*
X014690Y015610D02*
X015080Y015610D01*
X015080Y015472D01*
X014828Y015220D01*
X014690Y015220D01*
X014690Y015610D01*
X014690Y015531D02*
X014610Y015531D01*
X014610Y015433D02*
X014690Y015433D01*
X014690Y015334D02*
X014610Y015334D01*
X014610Y015236D02*
X014690Y015236D01*
X014844Y015236D02*
X015456Y015236D01*
X015464Y015098D02*
X015202Y014836D01*
X015202Y014464D01*
X015464Y014202D01*
X015836Y014202D01*
X016098Y014464D01*
X016098Y014836D01*
X015836Y015098D01*
X015464Y015098D01*
X015405Y015039D02*
X014895Y015039D01*
X014836Y015098D02*
X014464Y015098D01*
X014202Y014836D01*
X014202Y014464D01*
X014464Y014202D01*
X014836Y014202D01*
X015098Y014464D01*
X015098Y014836D01*
X014836Y015098D01*
X014994Y014940D02*
X015306Y014940D01*
X015208Y014842D02*
X015092Y014842D01*
X015098Y014743D02*
X015202Y014743D01*
X015202Y014645D02*
X015098Y014645D01*
X015098Y014546D02*
X015202Y014546D01*
X015219Y014448D02*
X015081Y014448D01*
X014983Y014349D02*
X015317Y014349D01*
X015416Y014251D02*
X014884Y014251D01*
X014601Y014054D02*
X016917Y014054D01*
X016917Y014152D02*
X014503Y014152D01*
X014416Y014251D02*
X014404Y014251D01*
X014317Y014349D02*
X014306Y014349D01*
X014219Y014448D02*
X014207Y014448D01*
X014202Y014546D02*
X014109Y014546D01*
X014098Y014645D02*
X014202Y014645D01*
X014202Y014743D02*
X014098Y014743D01*
X014129Y014842D02*
X014208Y014842D01*
X014228Y014940D02*
X014306Y014940D01*
X014326Y015039D02*
X014405Y015039D01*
X014369Y015137D02*
X020000Y015137D01*
X020000Y015039D02*
X017895Y015039D01*
X017994Y014940D02*
X020000Y014940D01*
X020000Y014842D02*
X018092Y014842D01*
X018098Y014743D02*
X020000Y014743D01*
X020000Y014645D02*
X018098Y014645D01*
X018098Y014546D02*
X020000Y014546D01*
X020000Y014448D02*
X018081Y014448D01*
X017983Y014349D02*
X020000Y014349D01*
X020000Y014251D02*
X017884Y014251D01*
X017475Y014152D02*
X020000Y014152D01*
X020000Y014054D02*
X017377Y014054D01*
X017371Y013955D02*
X020000Y013955D01*
X020000Y013857D02*
X017371Y013857D01*
X017371Y013758D02*
X020000Y013758D01*
X020000Y013660D02*
X017371Y013660D01*
X017371Y013561D02*
X020000Y013561D01*
X020000Y013463D02*
X017371Y013463D01*
X017371Y013364D02*
X020000Y013364D01*
X020000Y013266D02*
X017371Y013266D01*
X017371Y013167D02*
X020000Y013167D01*
X020000Y013069D02*
X017371Y013069D01*
X017371Y012970D02*
X020000Y012970D01*
X020000Y012872D02*
X017371Y012872D01*
X017371Y012773D02*
X020000Y012773D01*
X020000Y012675D02*
X017371Y012675D01*
X017371Y012576D02*
X020000Y012576D01*
X020000Y012478D02*
X017371Y012478D01*
X017371Y012379D02*
X020000Y012379D01*
X020000Y012281D02*
X017371Y012281D01*
X017371Y012182D02*
X020000Y012182D01*
X020000Y012084D02*
X017371Y012084D01*
X017371Y011985D02*
X020000Y011985D01*
X020000Y011887D02*
X017371Y011887D01*
X017371Y011788D02*
X020000Y011788D01*
X020000Y011690D02*
X017371Y011690D01*
X017371Y011591D02*
X020000Y011591D01*
X020000Y011493D02*
X017371Y011493D01*
X017371Y011394D02*
X020000Y011394D01*
X020000Y011296D02*
X017371Y011296D01*
X017371Y011197D02*
X020000Y011197D01*
X020000Y011099D02*
X017371Y011099D01*
X017371Y011000D02*
X017392Y011000D01*
X017610Y011000D02*
X017690Y011000D01*
X017690Y011080D02*
X017690Y010690D01*
X018080Y010690D01*
X018080Y010828D01*
X017828Y011080D01*
X017690Y011080D01*
X017690Y010902D02*
X017610Y010902D01*
X017610Y010803D02*
X017690Y010803D01*
X017690Y010705D02*
X017610Y010705D01*
X017610Y010606D02*
X017690Y010606D01*
X017690Y010610D02*
X017690Y010220D01*
X017828Y010220D01*
X018080Y010472D01*
X018080Y010610D01*
X017690Y010610D01*
X017690Y010508D02*
X017610Y010508D01*
X017610Y010409D02*
X017690Y010409D01*
X017690Y010311D02*
X017610Y010311D01*
X017381Y010311D02*
X017325Y010311D01*
X017226Y010212D02*
X020000Y010212D01*
X020000Y010114D02*
X017128Y010114D01*
X017029Y010015D02*
X017381Y010015D01*
X017464Y010098D02*
X017202Y009836D01*
X017202Y009464D01*
X017464Y009202D01*
X017836Y009202D01*
X018098Y009464D01*
X018098Y009836D01*
X017836Y010098D01*
X017464Y010098D01*
X017283Y009917D02*
X017017Y009917D01*
X017098Y009818D02*
X017202Y009818D01*
X017202Y009720D02*
X017098Y009720D01*
X017098Y009621D02*
X017202Y009621D01*
X017202Y009523D02*
X017098Y009523D01*
X017058Y009424D02*
X017242Y009424D01*
X017341Y009326D02*
X016959Y009326D01*
X016861Y009227D02*
X017439Y009227D01*
X017861Y009227D02*
X020000Y009227D01*
X020000Y009129D02*
X014771Y009129D01*
X014870Y009227D02*
X015439Y009227D01*
X015341Y009326D02*
X014968Y009326D01*
X015067Y009424D02*
X015242Y009424D01*
X015202Y009523D02*
X015165Y009523D01*
X014673Y009030D02*
X020000Y009030D01*
X020000Y008932D02*
X014655Y008932D01*
X014122Y008932D02*
X013078Y008932D01*
X013064Y009030D02*
X014122Y009030D01*
X014122Y009129D02*
X013023Y009129D01*
X012938Y009227D02*
X014143Y009227D01*
X014214Y009326D02*
X012766Y009326D01*
X013078Y008341D02*
X014122Y008341D01*
X014122Y008242D02*
X013052Y008242D01*
X013009Y008144D02*
X014122Y008144D01*
X014122Y008045D02*
X012910Y008045D01*
X012827Y011000D02*
X015352Y011000D01*
X015352Y011099D02*
X012964Y011099D01*
X013033Y011197D02*
X015352Y011197D01*
X015352Y011296D02*
X013074Y011296D01*
X013078Y011394D02*
X015352Y011394D01*
X015352Y011493D02*
X013078Y011493D01*
X013078Y011591D02*
X015352Y011591D01*
X015352Y011690D02*
X013078Y011690D01*
X013078Y011788D02*
X015352Y011788D01*
X015332Y011887D02*
X013078Y011887D01*
X013078Y011985D02*
X015233Y011985D01*
X015135Y012084D02*
X013042Y012084D01*
X012983Y012182D02*
X015036Y012182D01*
X014938Y012281D02*
X012874Y012281D01*
X014700Y013955D02*
X016917Y013955D01*
X016917Y013857D02*
X014798Y013857D01*
X014897Y013758D02*
X016917Y013758D01*
X016917Y013660D02*
X014995Y013660D01*
X015094Y013561D02*
X016917Y013561D01*
X016917Y013463D02*
X015192Y013463D01*
X015291Y013364D02*
X016917Y013364D01*
X016917Y013266D02*
X015389Y013266D01*
X015488Y013167D02*
X016917Y013167D01*
X016917Y013069D02*
X015586Y013069D01*
X015685Y012970D02*
X016917Y012970D01*
X016917Y012872D02*
X015783Y012872D01*
X015882Y012773D02*
X016917Y012773D01*
X016917Y012675D02*
X015980Y012675D01*
X016079Y012576D02*
X016917Y012576D01*
X016917Y012478D02*
X016177Y012478D01*
X016276Y012379D02*
X016917Y012379D01*
X016917Y012281D02*
X016374Y012281D01*
X016473Y012182D02*
X016917Y012182D01*
X016917Y012084D02*
X016571Y012084D01*
X016670Y011985D02*
X016917Y011985D01*
X016917Y011887D02*
X016768Y011887D01*
X016830Y011788D02*
X016917Y011788D01*
X016917Y011690D02*
X016830Y011690D01*
X016830Y011591D02*
X016917Y011591D01*
X016917Y011493D02*
X016830Y011493D01*
X016830Y011394D02*
X016917Y011394D01*
X016917Y011296D02*
X016830Y011296D01*
X016830Y011197D02*
X016917Y011197D01*
X016917Y011099D02*
X016830Y011099D01*
X017908Y011000D02*
X020000Y011000D01*
X020000Y010902D02*
X018007Y010902D01*
X018080Y010803D02*
X020000Y010803D01*
X020000Y010705D02*
X018080Y010705D01*
X018080Y010606D02*
X020000Y010606D01*
X020000Y010508D02*
X018080Y010508D01*
X018017Y010409D02*
X020000Y010409D01*
X020000Y010311D02*
X017919Y010311D01*
X017919Y010015D02*
X020000Y010015D01*
X020000Y009917D02*
X018017Y009917D01*
X018098Y009818D02*
X020000Y009818D01*
X020000Y009720D02*
X018098Y009720D01*
X018098Y009621D02*
X020000Y009621D01*
X020000Y009523D02*
X018098Y009523D01*
X018058Y009424D02*
X020000Y009424D01*
X020000Y009326D02*
X017959Y009326D01*
X016439Y009227D02*
X015861Y009227D01*
X015959Y009326D02*
X016341Y009326D01*
X016242Y009424D02*
X016058Y009424D01*
X016192Y009523D02*
X016202Y009523D01*
X016035Y006666D02*
X020000Y006666D01*
X020000Y006568D02*
X016129Y006568D01*
X016170Y006469D02*
X020000Y006469D01*
X020000Y006371D02*
X016182Y006371D01*
X016429Y006272D02*
X020000Y006272D01*
X020000Y006174D02*
X016523Y006174D01*
X016564Y006075D02*
X020000Y006075D01*
X020000Y005977D02*
X016576Y005977D01*
X016567Y005878D02*
X020000Y005878D01*
X020000Y005780D02*
X016526Y005780D01*
X016337Y005484D02*
X020000Y005484D01*
X020000Y005386D02*
X016238Y005386D01*
X016303Y005450D02*
X016303Y005450D01*
X016140Y005287D02*
X020000Y005287D01*
X020000Y005189D02*
X016041Y005189D01*
X015943Y005090D02*
X020000Y005090D01*
X020000Y004992D02*
X015844Y004992D01*
X015746Y004893D02*
X020000Y004893D01*
X020000Y004795D02*
X015647Y004795D01*
X012456Y005090D02*
X011844Y005090D01*
X011942Y004992D02*
X012358Y004992D01*
X012259Y004893D02*
X012041Y004893D01*
X012098Y004795D02*
X012202Y004795D01*
X012202Y004696D02*
X012098Y004696D01*
X012098Y004598D02*
X012202Y004598D01*
X012202Y004499D02*
X012098Y004499D01*
X012034Y004401D02*
X012266Y004401D01*
X011456Y005090D02*
X010844Y005090D01*
X010942Y004992D02*
X011358Y004992D01*
X011259Y004893D02*
X011041Y004893D01*
X011098Y004795D02*
X011202Y004795D01*
X011202Y004696D02*
X011098Y004696D01*
X011098Y004598D02*
X011202Y004598D01*
X011202Y004499D02*
X011164Y004499D01*
X011262Y004401D02*
X011266Y004401D01*
X010463Y004204D02*
X009837Y004204D01*
X009836Y004202D02*
X010098Y004464D01*
X010098Y004836D01*
X009836Y005098D01*
X009464Y005098D01*
X009202Y004836D01*
X009202Y004464D01*
X009464Y004202D01*
X009836Y004202D01*
X009936Y004302D02*
X010364Y004302D01*
X010266Y004401D02*
X010034Y004401D01*
X010098Y004499D02*
X010202Y004499D01*
X010202Y004598D02*
X010098Y004598D01*
X010098Y004696D02*
X010202Y004696D01*
X010202Y004795D02*
X010098Y004795D01*
X010041Y004893D02*
X010259Y004893D01*
X010358Y004992D02*
X009942Y004992D01*
X009844Y005090D02*
X010456Y005090D01*
X009690Y005287D02*
X009610Y005287D01*
X009610Y005386D02*
X009690Y005386D01*
X009690Y005484D02*
X009610Y005484D01*
X009405Y005287D02*
X008895Y005287D01*
X008994Y005386D02*
X009306Y005386D01*
X009220Y005484D02*
X009080Y005484D01*
X009080Y005583D02*
X009220Y005583D01*
X009220Y005780D02*
X009080Y005780D01*
X009030Y005878D02*
X009270Y005878D01*
X008690Y005484D02*
X008610Y005484D01*
X008610Y005386D02*
X008690Y005386D01*
X008690Y005287D02*
X008610Y005287D01*
X008405Y005287D02*
X007895Y005287D01*
X007994Y005386D02*
X008306Y005386D01*
X008220Y005484D02*
X008080Y005484D01*
X008080Y005583D02*
X008220Y005583D01*
X008220Y005780D02*
X008080Y005780D01*
X008030Y005878D02*
X008270Y005878D01*
X007690Y005484D02*
X007610Y005484D01*
X007610Y005386D02*
X007690Y005386D01*
X007690Y005287D02*
X007610Y005287D01*
X007844Y005090D02*
X008456Y005090D01*
X008464Y005098D02*
X008202Y004836D01*
X008202Y004464D01*
X008464Y004202D01*
X008836Y004202D01*
X009098Y004464D01*
X009098Y004836D01*
X008836Y005098D01*
X008464Y005098D01*
X008358Y004992D02*
X007942Y004992D01*
X008041Y004893D02*
X008259Y004893D01*
X008202Y004795D02*
X008098Y004795D01*
X008098Y004696D02*
X008202Y004696D01*
X008202Y004598D02*
X008098Y004598D01*
X008098Y004499D02*
X008202Y004499D01*
X008266Y004401D02*
X008034Y004401D01*
X007936Y004302D02*
X008364Y004302D01*
X008463Y004204D02*
X007837Y004204D01*
X007463Y004204D02*
X007424Y004204D01*
X007364Y004302D02*
X007325Y004302D01*
X007266Y004401D02*
X007227Y004401D01*
X007202Y004499D02*
X007128Y004499D01*
X007098Y004598D02*
X007202Y004598D01*
X007202Y004696D02*
X007098Y004696D01*
X007098Y004795D02*
X007202Y004795D01*
X007125Y004893D02*
X007041Y004893D01*
X007080Y005484D02*
X007220Y005484D01*
X007220Y005583D02*
X007080Y005583D01*
X007080Y005780D02*
X007220Y005780D01*
X007270Y005878D02*
X007030Y005878D01*
X006979Y006765D02*
X007911Y006765D01*
X007813Y006863D02*
X006880Y006863D01*
X006782Y006962D02*
X007714Y006962D01*
X007616Y007060D02*
X006683Y007060D01*
X006585Y007159D02*
X007517Y007159D01*
X007419Y007257D02*
X006486Y007257D01*
X006388Y007356D02*
X007320Y007356D01*
X008061Y007257D02*
X008756Y007257D01*
X008785Y007159D02*
X008160Y007159D01*
X008844Y005090D02*
X009456Y005090D01*
X009358Y004992D02*
X008942Y004992D01*
X009041Y004893D02*
X009259Y004893D01*
X009202Y004795D02*
X009098Y004795D01*
X009098Y004696D02*
X009202Y004696D01*
X009202Y004598D02*
X009098Y004598D01*
X009098Y004499D02*
X009202Y004499D01*
X009266Y004401D02*
X009034Y004401D01*
X008936Y004302D02*
X009364Y004302D01*
X009463Y004204D02*
X008837Y004204D01*
X008444Y010606D02*
X008367Y010606D01*
X008367Y010705D02*
X008444Y010705D01*
X008444Y010803D02*
X008367Y010803D01*
X008367Y010902D02*
X008444Y010902D01*
X007580Y010508D02*
X006870Y010508D01*
X006793Y010508D02*
X006082Y010508D01*
X006005Y010508D02*
X005295Y010508D01*
X005295Y010606D02*
X005218Y010606D01*
X005218Y010705D02*
X005295Y010705D01*
X005295Y010803D02*
X005218Y010803D01*
X005218Y010902D02*
X005295Y010902D01*
X005491Y010902D02*
X005809Y010902D01*
X005704Y010803D02*
X005596Y010803D01*
X006005Y010803D02*
X006082Y010803D01*
X006082Y010705D02*
X006005Y010705D01*
X006005Y010606D02*
X006082Y010606D01*
X006383Y010803D02*
X006492Y010803D01*
X006597Y010902D02*
X006278Y010902D01*
X006082Y010902D02*
X006005Y010902D01*
X006793Y010902D02*
X006870Y010902D01*
X006870Y010803D02*
X006793Y010803D01*
X006793Y010705D02*
X006870Y010705D01*
X006870Y010606D02*
X006793Y010606D01*
X007065Y010902D02*
X007384Y010902D01*
X007279Y010803D02*
X007171Y010803D01*
X005022Y010902D02*
X004703Y010902D01*
X004808Y010803D02*
X004917Y010803D01*
X004507Y010803D02*
X004430Y010803D01*
X004430Y010705D02*
X004507Y010705D01*
X004507Y010902D02*
X004430Y010902D01*
X004235Y010902D02*
X003916Y010902D01*
X004021Y010803D02*
X004129Y010803D01*
X003720Y010803D02*
X003643Y010803D01*
X003643Y010705D02*
X003720Y010705D01*
X003720Y010606D02*
X003643Y010606D01*
X003643Y010902D02*
X003720Y010902D01*
X003447Y010902D02*
X003128Y010902D01*
X003234Y010803D02*
X003342Y010803D01*
X002631Y017403D02*
X001300Y017403D01*
X001300Y017501D02*
X002532Y017501D01*
X002434Y017600D02*
X001300Y017600D01*
X001300Y017698D02*
X002335Y017698D01*
X002237Y017797D02*
X001300Y017797D01*
X001300Y017895D02*
X002138Y017895D01*
X002040Y017994D02*
X001300Y017994D01*
X001300Y018092D02*
X001784Y018092D01*
X001764Y018191D02*
X001300Y018191D01*
X001300Y018289D02*
X001764Y018289D01*
X001764Y018388D02*
X001300Y018388D01*
X001300Y018486D02*
X001764Y018486D01*
X001764Y018585D02*
X001300Y018585D01*
X001300Y018683D02*
X001764Y018683D01*
X001781Y018782D02*
X001300Y018782D01*
X001300Y018880D02*
X001764Y018880D01*
X001764Y018979D02*
X001300Y018979D01*
X001300Y019077D02*
X001805Y019077D01*
X001879Y019176D02*
X001300Y019176D01*
X001300Y019274D02*
X002044Y019274D01*
X002221Y019373D02*
X001300Y019373D01*
X001300Y019471D02*
X002319Y019471D01*
X002418Y019570D02*
X001300Y019570D01*
X001300Y019668D02*
X002389Y019668D01*
X002334Y019767D02*
X001300Y019767D01*
X001300Y019865D02*
X002309Y019865D01*
X002309Y019964D02*
X001300Y019964D01*
X013406Y019274D02*
X013693Y019274D01*
X013906Y019274D02*
X014193Y019274D01*
X015097Y018683D02*
X015284Y018683D01*
X015382Y018585D02*
X015141Y018585D01*
X015182Y018486D02*
X015481Y018486D01*
X015490Y018388D02*
X015186Y018388D01*
X015172Y018289D02*
X015490Y018289D01*
X015490Y018191D02*
X015131Y018191D01*
X015058Y018092D02*
X015490Y018092D01*
X015490Y017994D02*
X015058Y017994D01*
X015058Y017895D02*
X015490Y017895D01*
X015490Y017797D02*
X015058Y017797D01*
X015058Y017698D02*
X015490Y017698D01*
X015490Y017600D02*
X015058Y017600D01*
X015058Y017501D02*
X015490Y017501D01*
X015490Y017403D02*
X015058Y017403D01*
X015058Y017304D02*
X015490Y017304D01*
X015490Y017206D02*
X015058Y017206D01*
X015140Y017107D02*
X015490Y017107D01*
X015490Y017009D02*
X015206Y017009D01*
X015206Y016910D02*
X015490Y016910D01*
X015490Y016812D02*
X015206Y016812D01*
X015206Y016713D02*
X015490Y016713D01*
X015490Y016615D02*
X015206Y016615D01*
X015164Y016516D02*
X015456Y016516D01*
X015386Y016418D02*
X015066Y016418D01*
X014967Y016319D02*
X015350Y016319D01*
X015350Y016221D02*
X014869Y016221D01*
X014770Y016122D02*
X015376Y016122D01*
X015415Y016024D02*
X014885Y016024D01*
X014983Y015925D02*
X015317Y015925D01*
X015220Y015827D02*
X015080Y015827D01*
X015080Y015728D02*
X015220Y015728D01*
X015220Y015531D02*
X015080Y015531D01*
X015041Y015433D02*
X015259Y015433D01*
X015358Y015334D02*
X014942Y015334D01*
X014456Y015236D02*
X014369Y015236D01*
X014029Y016024D02*
X013910Y016024D01*
X015610Y015433D02*
X015690Y015433D01*
X015690Y015334D02*
X015610Y015334D01*
X015610Y015236D02*
X015690Y015236D01*
X015844Y015236D02*
X016456Y015236D01*
X016464Y015098D02*
X016202Y014836D01*
X016202Y014464D01*
X016464Y014202D01*
X016836Y014202D01*
X017098Y014464D01*
X017098Y014836D01*
X016836Y015098D01*
X016464Y015098D01*
X016405Y015039D02*
X015895Y015039D01*
X015994Y014940D02*
X016306Y014940D01*
X016208Y014842D02*
X016092Y014842D01*
X016098Y014743D02*
X016202Y014743D01*
X016202Y014645D02*
X016098Y014645D01*
X016098Y014546D02*
X016202Y014546D01*
X016219Y014448D02*
X016081Y014448D01*
X015983Y014349D02*
X016317Y014349D01*
X016416Y014251D02*
X015884Y014251D01*
X016884Y014251D02*
X016931Y014251D01*
X016983Y014349D02*
X017030Y014349D01*
X017081Y014448D02*
X017128Y014448D01*
X017098Y014546D02*
X017202Y014546D01*
X017202Y014645D02*
X017098Y014645D01*
X017098Y014743D02*
X017202Y014743D01*
X017208Y014842D02*
X017092Y014842D01*
X016994Y014940D02*
X017306Y014940D01*
X017405Y015039D02*
X016895Y015039D01*
X016844Y015236D02*
X017456Y015236D01*
X017472Y015220D02*
X017220Y015472D01*
X017220Y015610D01*
X017610Y015610D01*
X017690Y015610D01*
X017690Y015690D01*
X018080Y015690D01*
X018080Y015828D01*
X017828Y016080D01*
X017690Y016080D01*
X017690Y015690D01*
X017610Y015690D01*
X017610Y016080D01*
X017472Y016080D01*
X017220Y015828D01*
X017220Y015690D01*
X017610Y015690D01*
X017610Y015610D01*
X017610Y015220D01*
X017472Y015220D01*
X017610Y015236D02*
X017690Y015236D01*
X017690Y015220D02*
X017828Y015220D01*
X018080Y015472D01*
X018080Y015610D01*
X017690Y015610D01*
X017690Y015220D01*
X017690Y015334D02*
X017610Y015334D01*
X017610Y015433D02*
X017690Y015433D01*
X017690Y015531D02*
X017610Y015531D01*
X017610Y015630D02*
X016690Y015630D01*
X016690Y015531D02*
X016610Y015531D01*
X016610Y015433D02*
X016690Y015433D01*
X016690Y015334D02*
X016610Y015334D01*
X016610Y015236D02*
X016690Y015236D01*
X016942Y015334D02*
X017358Y015334D01*
X017259Y015433D02*
X017041Y015433D01*
X017080Y015531D02*
X017220Y015531D01*
X017220Y015728D02*
X017080Y015728D01*
X017080Y015827D02*
X017220Y015827D01*
X017317Y015925D02*
X016983Y015925D01*
X016885Y016024D02*
X017415Y016024D01*
X017610Y016024D02*
X017690Y016024D01*
X017690Y015925D02*
X017610Y015925D01*
X017610Y015827D02*
X017690Y015827D01*
X017690Y015728D02*
X017610Y015728D01*
X017690Y015630D02*
X020000Y015630D01*
X020000Y015728D02*
X018080Y015728D01*
X018080Y015827D02*
X020000Y015827D01*
X020000Y015925D02*
X017983Y015925D01*
X017885Y016024D02*
X020000Y016024D01*
X020000Y015531D02*
X018080Y015531D01*
X018041Y015433D02*
X020000Y015433D01*
X020000Y015334D02*
X017942Y015334D01*
X017844Y015236D02*
X020000Y015236D01*
X016358Y015334D02*
X015942Y015334D01*
X016041Y015433D02*
X016259Y015433D01*
X016220Y015531D02*
X016080Y015531D01*
X016080Y015728D02*
X016220Y015728D01*
X016220Y015827D02*
X016080Y015827D01*
X015983Y015925D02*
X016317Y015925D01*
X015185Y018782D02*
X015149Y018782D01*
X020000Y002332D02*
X001300Y002332D01*
X001300Y002234D02*
X020000Y002234D01*
X020000Y002135D02*
X001300Y002135D01*
X001300Y002037D02*
X020000Y002037D01*
X020000Y001938D02*
X001300Y001938D01*
X001300Y001840D02*
X020000Y001840D01*
X020000Y001741D02*
X001300Y001741D01*
X001300Y001643D02*
X020000Y001643D01*
X020000Y001544D02*
X001300Y001544D01*
X001300Y001446D02*
X020000Y001446D01*
X020000Y001347D02*
X001300Y001347D01*
M02*
