%
M48
M72
T01C0.0120
T02C0.0197
T03C0.0236
T04C0.0320
T05C0.0354
T06C0.0360
T07C0.0400
%
T01
X14585Y16800
X4644Y19162
X4004Y16898
X9959Y11337
X9713Y7351
X15815Y6367
X13404Y16947
X14191Y16406
X2676Y19900
X5431Y19014
X6317Y19014
X7744Y12124
X8827Y11042
X15422Y5431
X13355Y3365
X5038Y19556
X14339Y5431
X10894Y10943
X12124Y3758
X10254Y6957
X16209Y5973
X7449Y2872
X6268Y14093
X11337Y9221
X13896Y19802
X15717Y16258
X6367Y16849
X5973Y14979
X9122Y7302
X7105Y13109
X17390Y8532
T02
X5727Y16898
X8680Y8483
X17227Y7398
X14977Y7898
X14977Y11398
X16652Y12998
X2502Y12448
X5502Y12448
X7002Y8948
X6677Y7498
X10002Y12948
X16502Y3948
X16277Y8673
T03
X12800Y18400
X12800Y18900
X13300Y18400
X13300Y18900
X13800Y18400
X13800Y18900
X14300Y18400
X14300Y18900
X14800Y18400
X14800Y18900
X2150Y18400
X2150Y18900
X2650Y18400
X2650Y18900
X3150Y18400
X3150Y18900
X3650Y18400
X3650Y18900
X4150Y18400
X4150Y18900
T04
X12650Y8650
X12650Y11650
T05
X2075Y14756
X2075Y15544
X2863Y14756
X2863Y15544
X3650Y14756
X3650Y15544
X4437Y14756
X4437Y15544
X5225Y14756
X5225Y15544
X2107Y9756
X2107Y10544
X2894Y9756
X2894Y10544
X3681Y9756
X3681Y10544
X4469Y9756
X4469Y10544
X5256Y9756
X5256Y10544
X6044Y9756
X6044Y10544
X6831Y9756
X6831Y10544
X7619Y9756
X7619Y10544
X8406Y9756
X8406Y10544
X9193Y9756
X9193Y10544
T06
X13650Y14650
X13650Y15650
X14650Y14650
X14650Y15650
X15650Y14650
X15650Y15650
X16650Y14650
X16650Y15650
X17650Y14650
X17650Y15650
X15650Y9650
X15650Y10650
X16650Y9650
X16650Y10650
X17650Y9650
X17650Y10650
X3650Y4650
X3650Y5650
X4650Y4650
X4650Y5650
X5650Y4650
X5650Y5650
X6650Y4650
X6650Y5650
X7650Y4650
X7650Y5650
X8650Y4650
X8650Y5650
X9650Y4650
X9650Y5650
X10650Y4650
X10650Y5650
X11650Y4650
X11650Y5650
X12650Y4650
X12650Y5650
T07
X9650Y15650
X10650Y15650
M30
