G75*
%MOIN*%
%OFA0B0*%
%FSLAX25Y25*%
%IPPOS*%
%LPD*%
%AMOC8*
5,1,8,0,0,1.08239X$1,22.5*
%
%ADD10C,0.00000*%
%ADD11R,0.04362X0.04362*%
%ADD12C,0.04362*%
%ADD13OC8,0.06000*%
%ADD14C,0.05200*%
%ADD15C,0.06000*%
%ADD16C,0.01181*%
%ADD17C,0.03169*%
%ADD18C,0.01969*%
D10*
X0011984Y0006984D02*
X0011984Y0196984D01*
X0201984Y0196984D01*
X0201984Y0006984D01*
X0011984Y0006984D01*
D11*
X0128480Y0179484D03*
D12*
X0133480Y0179484D03*
X0138480Y0179484D03*
X0138480Y0184484D03*
X0133480Y0184484D03*
X0128480Y0184484D03*
X0143480Y0184484D03*
X0148480Y0184484D03*
X0148480Y0179484D03*
X0143480Y0179484D03*
D13*
X0146984Y0151984D03*
X0136984Y0151984D03*
X0136984Y0141984D03*
X0146984Y0141984D03*
X0156984Y0141984D03*
X0156984Y0151984D03*
X0166984Y0151984D03*
X0176984Y0151984D03*
X0176984Y0141984D03*
X0166984Y0141984D03*
X0166984Y0101984D03*
X0166984Y0091984D03*
X0176984Y0091984D03*
X0176984Y0101984D03*
X0156984Y0101984D03*
X0156984Y0091984D03*
X0146984Y0091984D03*
X0136984Y0091984D03*
X0136984Y0101984D03*
X0146984Y0101984D03*
X0141984Y0051984D03*
X0141984Y0041984D03*
X0131984Y0041984D03*
X0121984Y0041984D03*
X0121984Y0051984D03*
X0131984Y0051984D03*
X0111984Y0051984D03*
X0111984Y0041984D03*
X0101984Y0041984D03*
X0101984Y0051984D03*
X0091984Y0051984D03*
X0091984Y0041984D03*
X0081984Y0041984D03*
X0081984Y0051984D03*
X0071984Y0051984D03*
X0071984Y0041984D03*
X0061984Y0041984D03*
X0061984Y0051984D03*
X0056984Y0091984D03*
X0056984Y0101984D03*
X0046984Y0101984D03*
X0046984Y0091984D03*
X0036984Y0091984D03*
X0036984Y0101984D03*
X0066984Y0101984D03*
X0066984Y0091984D03*
X0076984Y0091984D03*
X0076984Y0101984D03*
X0056984Y0141984D03*
X0046984Y0141984D03*
X0036984Y0141984D03*
X0036984Y0151984D03*
X0046984Y0151984D03*
X0056984Y0151984D03*
X0151984Y0051984D03*
X0151984Y0041984D03*
D14*
X0106984Y0079384D02*
X0106984Y0084584D01*
X0106984Y0109384D02*
X0106984Y0114584D01*
D15*
X0101984Y0148984D02*
X0101984Y0154984D01*
X0091984Y0154984D02*
X0091984Y0148984D01*
D16*
X0066984Y0116984D02*
X0051984Y0131984D01*
X0051984Y0139898D01*
X0052142Y0140055D01*
X0052142Y0143598D01*
X0047024Y0148717D01*
X0047024Y0151866D01*
X0046984Y0151984D01*
X0046984Y0141984D02*
X0047024Y0141630D01*
X0047024Y0102260D01*
X0046984Y0101984D01*
X0047024Y0101472D01*
X0047024Y0099717D01*
X0041799Y0094492D01*
X0041799Y0042222D01*
X0055909Y0028112D01*
X0102124Y0028112D01*
X0114959Y0035549D02*
X0121433Y0042024D01*
X0121984Y0041984D01*
X0122220Y0042024D01*
X0124370Y0042024D01*
X0129488Y0047142D01*
X0154717Y0047142D01*
X0156866Y0049291D01*
X0156866Y0081787D01*
X0147024Y0091630D01*
X0146984Y0091984D01*
X0142049Y0093992D02*
X0145199Y0097142D01*
X0162142Y0097142D01*
X0166984Y0101984D01*
X0166709Y0101866D01*
X0171827Y0096748D01*
X0171827Y0089699D01*
X0174726Y0086799D01*
X0179163Y0086799D01*
X0185569Y0093205D01*
X0185569Y0155659D01*
X0152748Y0188480D01*
X0146630Y0188480D01*
X0143480Y0185331D01*
X0143480Y0184484D01*
X0138756Y0184543D02*
X0138480Y0184484D01*
X0138756Y0184543D02*
X0138756Y0185724D01*
X0143874Y0190843D01*
X0158929Y0190843D01*
X0192931Y0156841D01*
X0192931Y0074620D01*
X0154610Y0036299D01*
X0137394Y0036299D01*
X0132063Y0041630D01*
X0131984Y0041984D01*
X0114959Y0035549D02*
X0059516Y0035549D01*
X0050760Y0044305D01*
X0050760Y0074085D01*
X0062091Y0085415D01*
X0062091Y0094742D01*
X0057260Y0099573D01*
X0057260Y0101866D01*
X0056984Y0101984D01*
X0066709Y0102260D02*
X0066984Y0102535D01*
X0066984Y0116984D01*
X0066709Y0102260D02*
X0066984Y0101984D01*
X0067102Y0101472D01*
X0071827Y0096748D01*
X0071827Y0090055D01*
X0067102Y0085331D01*
X0067102Y0050041D01*
X0070252Y0046892D01*
X0074152Y0046892D01*
X0079020Y0042024D01*
X0081669Y0042024D01*
X0081984Y0041984D01*
X0102142Y0061709D02*
X0137969Y0061709D01*
X0142049Y0065789D01*
X0142049Y0093992D01*
X0136984Y0091984D02*
X0136787Y0091787D01*
X0136787Y0091630D01*
X0136756Y0091630D01*
X0120258Y0091632D01*
X0106984Y0066984D02*
X0091984Y0081984D01*
X0091984Y0086984D01*
X0076984Y0101984D01*
X0081669Y0082181D02*
X0102142Y0061709D01*
X0106984Y0066984D02*
X0136732Y0066984D01*
X0136894Y0067146D01*
X0172077Y0100041D02*
X0172077Y0104478D01*
X0137181Y0138874D01*
X0137181Y0141630D01*
X0136984Y0141984D01*
X0155185Y0157091D02*
X0169321Y0157091D01*
X0171970Y0154441D01*
X0171970Y0147392D01*
X0177339Y0142024D01*
X0176984Y0141984D01*
X0156984Y0141984D02*
X0156984Y0130083D01*
X0165077Y0121990D01*
X0172077Y0100041D02*
X0176945Y0095173D01*
X0176945Y0092024D01*
X0176984Y0091984D01*
X0155185Y0157091D02*
X0133638Y0178638D01*
X0133638Y0179425D01*
X0133480Y0179484D01*
X0138480Y0179484D02*
X0138480Y0177488D01*
X0145766Y0170203D01*
X0164264Y0170203D01*
X0036984Y0101984D02*
X0036787Y0102260D01*
X0036193Y0102854D01*
X0026126Y0102854D01*
D17*
X0026126Y0102854D03*
X0048654Y0081919D03*
X0061904Y0071919D03*
X0071904Y0076919D03*
X0081669Y0082181D03*
X0096904Y0101919D03*
X0120258Y0091632D03*
X0115404Y0072169D03*
X0136894Y0067146D03*
X0167654Y0071669D03*
X0181904Y0076919D03*
X0165077Y0121990D03*
X0146904Y0121919D03*
X0136904Y0131919D03*
X0164264Y0170203D03*
X0157654Y0176669D03*
X0132654Y0171669D03*
X0061904Y0131919D03*
X0051904Y0119669D03*
X0036904Y0126919D03*
X0034654Y0069669D03*
X0102124Y0028112D03*
D18*
X0106431Y0026654D02*
X0200000Y0026654D01*
X0200000Y0024687D02*
X0105116Y0024687D01*
X0104694Y0024266D02*
X0105970Y0025542D01*
X0106661Y0027210D01*
X0106661Y0029015D01*
X0105970Y0030682D01*
X0104694Y0031958D01*
X0103026Y0032649D01*
X0101222Y0032649D01*
X0099554Y0031958D01*
X0098278Y0030682D01*
X0098273Y0030671D01*
X0056969Y0030671D01*
X0044358Y0043282D01*
X0044358Y0087561D01*
X0044920Y0087000D01*
X0046968Y0087000D01*
X0046968Y0091968D01*
X0047000Y0091968D01*
X0047000Y0087000D01*
X0049049Y0087000D01*
X0051968Y0089920D01*
X0051968Y0091968D01*
X0047000Y0091968D01*
X0047000Y0092000D01*
X0051968Y0092000D01*
X0051968Y0094049D01*
X0049049Y0096968D01*
X0047895Y0096968D01*
X0047942Y0097016D01*
X0049042Y0097016D01*
X0051953Y0099926D01*
X0051953Y0104042D01*
X0049583Y0106412D01*
X0049583Y0131095D01*
X0049815Y0130535D01*
X0050535Y0129815D01*
X0064425Y0115924D01*
X0064425Y0106452D01*
X0062016Y0104042D01*
X0062016Y0099926D01*
X0064926Y0097016D01*
X0067940Y0097016D01*
X0068003Y0096953D01*
X0064926Y0096953D01*
X0064213Y0096239D01*
X0063540Y0096912D01*
X0061239Y0099213D01*
X0061953Y0099926D01*
X0061953Y0104042D01*
X0059042Y0106953D01*
X0054926Y0106953D01*
X0052016Y0104042D01*
X0052016Y0099926D01*
X0054926Y0097016D01*
X0056198Y0097016D01*
X0056245Y0096968D01*
X0054920Y0096968D01*
X0052000Y0094049D01*
X0052000Y0092000D01*
X0056968Y0092000D01*
X0056968Y0091968D01*
X0057000Y0091968D01*
X0057000Y0087000D01*
X0059049Y0087000D01*
X0059531Y0087483D01*
X0059531Y0086475D01*
X0049310Y0076254D01*
X0048590Y0075534D01*
X0048201Y0074594D01*
X0048201Y0043796D01*
X0048590Y0042856D01*
X0057346Y0034100D01*
X0058066Y0033380D01*
X0059007Y0032990D01*
X0115468Y0032990D01*
X0116408Y0033380D01*
X0120044Y0037016D01*
X0124042Y0037016D01*
X0126953Y0039926D01*
X0126953Y0040987D01*
X0127016Y0041050D01*
X0127016Y0039926D01*
X0129926Y0037016D01*
X0133058Y0037016D01*
X0135944Y0034130D01*
X0136885Y0033740D01*
X0155119Y0033740D01*
X0156060Y0034130D01*
X0156780Y0034850D01*
X0195101Y0073170D01*
X0195490Y0074111D01*
X0195490Y0157350D01*
X0195101Y0158290D01*
X0194381Y0159010D01*
X0160379Y0193012D01*
X0159438Y0193402D01*
X0143365Y0193402D01*
X0142424Y0193012D01*
X0141705Y0192292D01*
X0138046Y0188634D01*
X0137655Y0188634D01*
X0136130Y0188002D01*
X0135980Y0187853D01*
X0135831Y0188002D01*
X0134306Y0188634D01*
X0132655Y0188634D01*
X0131130Y0188002D01*
X0130959Y0187832D01*
X0130663Y0188047D01*
X0130079Y0188344D01*
X0129456Y0188547D01*
X0128808Y0188650D01*
X0128480Y0188650D01*
X0128152Y0188650D01*
X0127505Y0188547D01*
X0126881Y0188344D01*
X0126297Y0188047D01*
X0125767Y0187661D01*
X0125303Y0187198D01*
X0124918Y0186667D01*
X0124620Y0186083D01*
X0124418Y0185460D01*
X0124315Y0184812D01*
X0124315Y0184484D01*
X0124315Y0184156D01*
X0124418Y0183509D01*
X0124620Y0182885D01*
X0124659Y0182809D01*
X0124331Y0182481D01*
X0124331Y0176488D01*
X0125484Y0175335D01*
X0131477Y0175335D01*
X0131822Y0175680D01*
X0132655Y0175335D01*
X0133322Y0175335D01*
X0153016Y0155641D01*
X0153304Y0155353D01*
X0152000Y0154049D01*
X0152000Y0152000D01*
X0156968Y0152000D01*
X0156968Y0151968D01*
X0157000Y0151968D01*
X0157000Y0147000D01*
X0159049Y0147000D01*
X0161968Y0149920D01*
X0161968Y0151968D01*
X0157000Y0151968D01*
X0157000Y0152000D01*
X0161968Y0152000D01*
X0161968Y0154049D01*
X0161486Y0154531D01*
X0162483Y0154531D01*
X0162000Y0154049D01*
X0162000Y0152000D01*
X0166968Y0152000D01*
X0166968Y0151968D01*
X0167000Y0151968D01*
X0167000Y0147000D01*
X0169049Y0147000D01*
X0169411Y0147363D01*
X0169411Y0146883D01*
X0169623Y0146372D01*
X0169042Y0146953D01*
X0164926Y0146953D01*
X0162016Y0144042D01*
X0162016Y0139926D01*
X0164926Y0137016D01*
X0169042Y0137016D01*
X0171953Y0139926D01*
X0171953Y0143790D01*
X0172016Y0143727D01*
X0172016Y0139926D01*
X0174926Y0137016D01*
X0179042Y0137016D01*
X0181953Y0139926D01*
X0181953Y0144042D01*
X0179042Y0146953D01*
X0176028Y0146953D01*
X0175981Y0147000D01*
X0176968Y0147000D01*
X0176968Y0151968D01*
X0177000Y0151968D01*
X0177000Y0147000D01*
X0179049Y0147000D01*
X0181968Y0149920D01*
X0181968Y0151968D01*
X0177000Y0151968D01*
X0177000Y0152000D01*
X0176968Y0152000D01*
X0176968Y0156968D01*
X0174920Y0156968D01*
X0173991Y0156040D01*
X0173420Y0156610D01*
X0170770Y0159260D01*
X0169830Y0159650D01*
X0156245Y0159650D01*
X0148251Y0167644D01*
X0160413Y0167644D01*
X0160417Y0167633D01*
X0161694Y0166356D01*
X0163361Y0165666D01*
X0165166Y0165666D01*
X0166834Y0166356D01*
X0168110Y0167633D01*
X0168657Y0168953D01*
X0183010Y0154599D01*
X0183010Y0094265D01*
X0181953Y0093208D01*
X0181953Y0094042D01*
X0179042Y0096953D01*
X0178784Y0096953D01*
X0178737Y0097000D01*
X0179049Y0097000D01*
X0181968Y0099920D01*
X0181968Y0101968D01*
X0177000Y0101968D01*
X0177000Y0102000D01*
X0176968Y0102000D01*
X0176968Y0106968D01*
X0174920Y0106968D01*
X0174064Y0106113D01*
X0173880Y0106294D01*
X0173526Y0106648D01*
X0173517Y0106651D01*
X0140864Y0138837D01*
X0141953Y0139926D01*
X0141953Y0144042D01*
X0139042Y0146953D01*
X0134926Y0146953D01*
X0132016Y0144042D01*
X0132016Y0139926D01*
X0134926Y0137016D01*
X0135420Y0137016D01*
X0135732Y0136705D01*
X0135740Y0136701D01*
X0165921Y0106953D01*
X0164926Y0106953D01*
X0162016Y0104042D01*
X0162016Y0100635D01*
X0161953Y0100572D01*
X0161953Y0104042D01*
X0159042Y0106953D01*
X0154926Y0106953D01*
X0152016Y0104042D01*
X0152016Y0099926D01*
X0152241Y0099701D01*
X0151727Y0099701D01*
X0151953Y0099926D01*
X0151953Y0104042D01*
X0149937Y0106058D01*
X0149937Y0112572D01*
X0149487Y0113657D01*
X0129937Y0133207D01*
X0129937Y0145761D01*
X0133059Y0148883D01*
X0134926Y0147016D01*
X0139042Y0147016D01*
X0141953Y0149926D01*
X0141953Y0154042D01*
X0139042Y0156953D01*
X0134926Y0156953D01*
X0132792Y0154819D01*
X0131279Y0154819D01*
X0130194Y0154369D01*
X0125312Y0149487D01*
X0124481Y0148657D01*
X0124031Y0147572D01*
X0124031Y0131397D01*
X0124481Y0130312D01*
X0125312Y0129481D01*
X0144031Y0110761D01*
X0144031Y0109113D01*
X0142407Y0110737D01*
X0141322Y0111187D01*
X0117647Y0111187D01*
X0116562Y0110737D01*
X0105312Y0099487D01*
X0104481Y0098657D01*
X0104031Y0097572D01*
X0104031Y0088092D01*
X0103111Y0087172D01*
X0102416Y0085493D01*
X0102416Y0078476D01*
X0103111Y0076796D01*
X0104396Y0075511D01*
X0106076Y0074816D01*
X0107893Y0074816D01*
X0109572Y0075511D01*
X0110857Y0076796D01*
X0111553Y0078476D01*
X0111553Y0085493D01*
X0110857Y0087172D01*
X0109937Y0088092D01*
X0109937Y0095761D01*
X0119457Y0105281D01*
X0133233Y0105281D01*
X0132000Y0104049D01*
X0132000Y0102000D01*
X0136968Y0102000D01*
X0136968Y0101968D01*
X0137000Y0101968D01*
X0137000Y0097000D01*
X0139049Y0097000D01*
X0141968Y0099920D01*
X0141968Y0101968D01*
X0137000Y0101968D01*
X0137000Y0102000D01*
X0141968Y0102000D01*
X0141968Y0102824D01*
X0142016Y0102777D01*
X0142016Y0099926D01*
X0143190Y0098752D01*
X0143029Y0098591D01*
X0140600Y0096162D01*
X0140600Y0096162D01*
X0140217Y0095778D01*
X0139042Y0096953D01*
X0134926Y0096953D01*
X0132163Y0094190D01*
X0124109Y0094190D01*
X0124104Y0094202D01*
X0122828Y0095478D01*
X0121160Y0096169D01*
X0119355Y0096169D01*
X0117688Y0095478D01*
X0116412Y0094202D01*
X0115721Y0092534D01*
X0115721Y0090729D01*
X0116412Y0089062D01*
X0117688Y0087786D01*
X0119355Y0087095D01*
X0121160Y0087095D01*
X0122828Y0087786D01*
X0124104Y0089062D01*
X0124109Y0089072D01*
X0132871Y0089071D01*
X0134926Y0087016D01*
X0139042Y0087016D01*
X0139490Y0087464D01*
X0139490Y0070965D01*
X0139464Y0070992D01*
X0137796Y0071683D01*
X0135991Y0071683D01*
X0134324Y0070992D01*
X0133047Y0069716D01*
X0132976Y0069543D01*
X0108044Y0069543D01*
X0094543Y0083044D01*
X0094543Y0087493D01*
X0094154Y0088434D01*
X0081953Y0100635D01*
X0081953Y0104042D01*
X0079042Y0106953D01*
X0074926Y0106953D01*
X0072016Y0104042D01*
X0072016Y0100178D01*
X0071953Y0100241D01*
X0071953Y0104042D01*
X0069543Y0106452D01*
X0069543Y0117493D01*
X0069154Y0118434D01*
X0054543Y0133044D01*
X0054543Y0137399D01*
X0054926Y0137016D01*
X0059042Y0137016D01*
X0061953Y0139926D01*
X0061953Y0144042D01*
X0059042Y0146953D01*
X0054926Y0146953D01*
X0053666Y0145693D01*
X0053591Y0145768D01*
X0050693Y0148666D01*
X0051953Y0149926D01*
X0051953Y0154042D01*
X0049042Y0156953D01*
X0044926Y0156953D01*
X0042016Y0154042D01*
X0042016Y0149926D01*
X0044926Y0147016D01*
X0045105Y0147016D01*
X0045168Y0146953D01*
X0044926Y0146953D01*
X0042016Y0144042D01*
X0042016Y0139926D01*
X0044465Y0137477D01*
X0044465Y0106491D01*
X0042016Y0104042D01*
X0042016Y0099926D01*
X0042815Y0099127D01*
X0040350Y0096662D01*
X0039842Y0096153D01*
X0039042Y0096953D01*
X0034926Y0096953D01*
X0032016Y0094042D01*
X0032016Y0089926D01*
X0034926Y0087016D01*
X0039042Y0087016D01*
X0039240Y0087214D01*
X0039240Y0041713D01*
X0039630Y0040773D01*
X0053740Y0026663D01*
X0054460Y0025943D01*
X0055400Y0025553D01*
X0098273Y0025553D01*
X0098278Y0025542D01*
X0099554Y0024266D01*
X0101222Y0023575D01*
X0103026Y0023575D01*
X0104694Y0024266D01*
X0106661Y0028621D02*
X0200000Y0028621D01*
X0200000Y0030588D02*
X0106009Y0030588D01*
X0103253Y0032555D02*
X0200000Y0032555D01*
X0200000Y0034522D02*
X0156453Y0034522D01*
X0158420Y0036489D02*
X0200000Y0036489D01*
X0200000Y0038456D02*
X0160387Y0038456D01*
X0162354Y0040424D02*
X0200000Y0040424D01*
X0200000Y0042391D02*
X0164321Y0042391D01*
X0166288Y0044358D02*
X0200000Y0044358D01*
X0200000Y0046325D02*
X0168255Y0046325D01*
X0170222Y0048292D02*
X0200000Y0048292D01*
X0200000Y0050259D02*
X0172189Y0050259D01*
X0174156Y0052226D02*
X0200000Y0052226D01*
X0200000Y0054193D02*
X0176123Y0054193D01*
X0178090Y0056160D02*
X0200000Y0056160D01*
X0200000Y0058127D02*
X0180057Y0058127D01*
X0182024Y0060094D02*
X0200000Y0060094D01*
X0200000Y0062061D02*
X0183991Y0062061D01*
X0185958Y0064028D02*
X0200000Y0064028D01*
X0200000Y0065995D02*
X0187925Y0065995D01*
X0189892Y0067962D02*
X0200000Y0067962D01*
X0200000Y0069929D02*
X0191859Y0069929D01*
X0193826Y0071896D02*
X0200000Y0071896D01*
X0200000Y0073863D02*
X0195387Y0073863D01*
X0195490Y0075830D02*
X0200000Y0075830D01*
X0200000Y0077797D02*
X0195490Y0077797D01*
X0195490Y0079764D02*
X0200000Y0079764D01*
X0200000Y0081731D02*
X0195490Y0081731D01*
X0195490Y0083698D02*
X0200000Y0083698D01*
X0200000Y0085665D02*
X0195490Y0085665D01*
X0195490Y0087632D02*
X0200000Y0087632D01*
X0200000Y0089599D02*
X0195490Y0089599D01*
X0195490Y0091566D02*
X0200000Y0091566D01*
X0200000Y0093533D02*
X0195490Y0093533D01*
X0195490Y0095500D02*
X0200000Y0095500D01*
X0200000Y0097467D02*
X0195490Y0097467D01*
X0195490Y0099434D02*
X0200000Y0099434D01*
X0200000Y0101401D02*
X0195490Y0101401D01*
X0195490Y0103368D02*
X0200000Y0103368D01*
X0200000Y0105335D02*
X0195490Y0105335D01*
X0195490Y0107302D02*
X0200000Y0107302D01*
X0200000Y0109269D02*
X0195490Y0109269D01*
X0195490Y0111236D02*
X0200000Y0111236D01*
X0200000Y0113203D02*
X0195490Y0113203D01*
X0195490Y0115170D02*
X0200000Y0115170D01*
X0200000Y0117137D02*
X0195490Y0117137D01*
X0195490Y0119104D02*
X0200000Y0119104D01*
X0200000Y0121071D02*
X0195490Y0121071D01*
X0195490Y0123038D02*
X0200000Y0123038D01*
X0200000Y0125005D02*
X0195490Y0125005D01*
X0195490Y0126972D02*
X0200000Y0126972D01*
X0200000Y0128939D02*
X0195490Y0128939D01*
X0195490Y0130906D02*
X0200000Y0130906D01*
X0200000Y0132873D02*
X0195490Y0132873D01*
X0195490Y0134840D02*
X0200000Y0134840D01*
X0200000Y0136807D02*
X0195490Y0136807D01*
X0195490Y0138774D02*
X0200000Y0138774D01*
X0200000Y0140741D02*
X0195490Y0140741D01*
X0195490Y0142708D02*
X0200000Y0142708D01*
X0200000Y0144675D02*
X0195490Y0144675D01*
X0195490Y0146642D02*
X0200000Y0146642D01*
X0200000Y0148609D02*
X0195490Y0148609D01*
X0195490Y0150576D02*
X0200000Y0150576D01*
X0200000Y0152543D02*
X0195490Y0152543D01*
X0195490Y0154510D02*
X0200000Y0154510D01*
X0200000Y0156477D02*
X0195490Y0156477D01*
X0194946Y0158444D02*
X0200000Y0158444D01*
X0200000Y0160411D02*
X0192979Y0160411D01*
X0191012Y0162378D02*
X0200000Y0162378D01*
X0200000Y0164345D02*
X0189045Y0164345D01*
X0187078Y0166312D02*
X0200000Y0166312D01*
X0200000Y0168280D02*
X0185111Y0168280D01*
X0183144Y0170247D02*
X0200000Y0170247D01*
X0200000Y0172214D02*
X0181177Y0172214D01*
X0179210Y0174181D02*
X0200000Y0174181D01*
X0200000Y0176148D02*
X0177243Y0176148D01*
X0175276Y0178115D02*
X0200000Y0178115D01*
X0200000Y0180082D02*
X0173309Y0180082D01*
X0171342Y0182049D02*
X0200000Y0182049D01*
X0200000Y0184016D02*
X0169375Y0184016D01*
X0167408Y0185983D02*
X0200000Y0185983D01*
X0200000Y0187950D02*
X0165441Y0187950D01*
X0163474Y0189917D02*
X0200000Y0189917D01*
X0200000Y0191884D02*
X0161507Y0191884D01*
X0157869Y0188283D02*
X0190372Y0155781D01*
X0190372Y0075680D01*
X0156953Y0042261D01*
X0156953Y0044042D01*
X0156065Y0044930D01*
X0156166Y0044972D01*
X0159036Y0047842D01*
X0159425Y0048782D01*
X0159425Y0082296D01*
X0159036Y0083237D01*
X0155257Y0087016D01*
X0159042Y0087016D01*
X0161953Y0089926D01*
X0161953Y0094042D01*
X0161412Y0094583D01*
X0162556Y0094583D01*
X0162016Y0094042D01*
X0162016Y0089926D01*
X0164926Y0087016D01*
X0169042Y0087016D01*
X0169967Y0087940D01*
X0170377Y0087529D01*
X0173277Y0084630D01*
X0174217Y0084240D01*
X0179672Y0084240D01*
X0180613Y0084630D01*
X0181333Y0085350D01*
X0187738Y0091755D01*
X0188128Y0092696D01*
X0188128Y0156168D01*
X0187738Y0157109D01*
X0187018Y0157829D01*
X0156564Y0188283D01*
X0157869Y0188283D01*
X0158203Y0187950D02*
X0156898Y0187950D01*
X0158865Y0185983D02*
X0160170Y0185983D01*
X0160832Y0184016D02*
X0162137Y0184016D01*
X0162799Y0182049D02*
X0164104Y0182049D01*
X0164766Y0180082D02*
X0166071Y0180082D01*
X0166733Y0178115D02*
X0168038Y0178115D01*
X0168700Y0176148D02*
X0170005Y0176148D01*
X0170667Y0174181D02*
X0171972Y0174181D01*
X0172634Y0172214D02*
X0173939Y0172214D01*
X0174601Y0170247D02*
X0175906Y0170247D01*
X0176568Y0168280D02*
X0177873Y0168280D01*
X0178535Y0166312D02*
X0179840Y0166312D01*
X0180502Y0164345D02*
X0181807Y0164345D01*
X0182469Y0162378D02*
X0183774Y0162378D01*
X0184436Y0160411D02*
X0185741Y0160411D01*
X0186403Y0158444D02*
X0187708Y0158444D01*
X0188000Y0156477D02*
X0189675Y0156477D01*
X0190372Y0154510D02*
X0188128Y0154510D01*
X0188128Y0152543D02*
X0190372Y0152543D01*
X0190372Y0150576D02*
X0188128Y0150576D01*
X0188128Y0148609D02*
X0190372Y0148609D01*
X0190372Y0146642D02*
X0188128Y0146642D01*
X0188128Y0144675D02*
X0190372Y0144675D01*
X0190372Y0142708D02*
X0188128Y0142708D01*
X0188128Y0140741D02*
X0190372Y0140741D01*
X0190372Y0138774D02*
X0188128Y0138774D01*
X0188128Y0136807D02*
X0190372Y0136807D01*
X0190372Y0134840D02*
X0188128Y0134840D01*
X0188128Y0132873D02*
X0190372Y0132873D01*
X0190372Y0130906D02*
X0188128Y0130906D01*
X0188128Y0128939D02*
X0190372Y0128939D01*
X0190372Y0126972D02*
X0188128Y0126972D01*
X0188128Y0125005D02*
X0190372Y0125005D01*
X0190372Y0123038D02*
X0188128Y0123038D01*
X0188128Y0121071D02*
X0190372Y0121071D01*
X0190372Y0119104D02*
X0188128Y0119104D01*
X0188128Y0117137D02*
X0190372Y0117137D01*
X0190372Y0115170D02*
X0188128Y0115170D01*
X0188128Y0113203D02*
X0190372Y0113203D01*
X0190372Y0111236D02*
X0188128Y0111236D01*
X0188128Y0109269D02*
X0190372Y0109269D01*
X0190372Y0107302D02*
X0188128Y0107302D01*
X0188128Y0105335D02*
X0190372Y0105335D01*
X0190372Y0103368D02*
X0188128Y0103368D01*
X0188128Y0101401D02*
X0190372Y0101401D01*
X0190372Y0099434D02*
X0188128Y0099434D01*
X0188128Y0097467D02*
X0190372Y0097467D01*
X0190372Y0095500D02*
X0188128Y0095500D01*
X0188128Y0093533D02*
X0190372Y0093533D01*
X0190372Y0091566D02*
X0187549Y0091566D01*
X0185582Y0089599D02*
X0190372Y0089599D01*
X0190372Y0087632D02*
X0183615Y0087632D01*
X0181648Y0085665D02*
X0190372Y0085665D01*
X0190372Y0083698D02*
X0158575Y0083698D01*
X0159425Y0081731D02*
X0190372Y0081731D01*
X0190372Y0079764D02*
X0159425Y0079764D01*
X0159425Y0077797D02*
X0190372Y0077797D01*
X0190372Y0075830D02*
X0159425Y0075830D01*
X0159425Y0073863D02*
X0188555Y0073863D01*
X0186588Y0071896D02*
X0159425Y0071896D01*
X0159425Y0069929D02*
X0184621Y0069929D01*
X0182654Y0067962D02*
X0159425Y0067962D01*
X0159425Y0065995D02*
X0180687Y0065995D01*
X0178720Y0064028D02*
X0159425Y0064028D01*
X0159425Y0062061D02*
X0176753Y0062061D01*
X0174786Y0060094D02*
X0159425Y0060094D01*
X0159425Y0058127D02*
X0172819Y0058127D01*
X0170852Y0056160D02*
X0159425Y0056160D01*
X0159425Y0054193D02*
X0168885Y0054193D01*
X0166918Y0052226D02*
X0159425Y0052226D01*
X0159425Y0050259D02*
X0164951Y0050259D01*
X0162984Y0048292D02*
X0159222Y0048292D01*
X0157518Y0046325D02*
X0161017Y0046325D01*
X0159050Y0044358D02*
X0156637Y0044358D01*
X0156953Y0042391D02*
X0157083Y0042391D01*
X0151968Y0051968D02*
X0147000Y0051968D01*
X0147000Y0049920D01*
X0147219Y0049701D01*
X0146750Y0049701D01*
X0146968Y0049920D01*
X0146968Y0051968D01*
X0142000Y0051968D01*
X0142000Y0052000D01*
X0141968Y0052000D01*
X0141968Y0051968D01*
X0137000Y0051968D01*
X0137000Y0049920D01*
X0137219Y0049701D01*
X0136750Y0049701D01*
X0136968Y0049920D01*
X0136968Y0051968D01*
X0132000Y0051968D01*
X0132000Y0052000D01*
X0131968Y0052000D01*
X0131968Y0051968D01*
X0127000Y0051968D01*
X0127000Y0049920D01*
X0127824Y0049096D01*
X0127319Y0048591D01*
X0124861Y0046134D01*
X0124042Y0046953D01*
X0119926Y0046953D01*
X0117016Y0044042D01*
X0117016Y0041225D01*
X0116953Y0041162D01*
X0116953Y0044042D01*
X0114042Y0046953D01*
X0109926Y0046953D01*
X0107016Y0044042D01*
X0107016Y0039926D01*
X0108834Y0038108D01*
X0105135Y0038108D01*
X0106953Y0039926D01*
X0106953Y0044042D01*
X0104042Y0046953D01*
X0099926Y0046953D01*
X0097016Y0044042D01*
X0097016Y0039926D01*
X0098834Y0038108D01*
X0095135Y0038108D01*
X0096953Y0039926D01*
X0096953Y0044042D01*
X0094042Y0046953D01*
X0089926Y0046953D01*
X0087016Y0044042D01*
X0087016Y0039926D01*
X0088834Y0038108D01*
X0085135Y0038108D01*
X0086953Y0039926D01*
X0086953Y0044042D01*
X0084042Y0046953D01*
X0079926Y0046953D01*
X0078818Y0045844D01*
X0076321Y0048341D01*
X0075856Y0048807D01*
X0076968Y0049920D01*
X0076968Y0051968D01*
X0072000Y0051968D01*
X0072000Y0052000D01*
X0071968Y0052000D01*
X0071968Y0056968D01*
X0069920Y0056968D01*
X0069661Y0056710D01*
X0069661Y0084271D01*
X0073276Y0087886D01*
X0073655Y0088265D01*
X0074920Y0087000D01*
X0076968Y0087000D01*
X0076968Y0091968D01*
X0077000Y0091968D01*
X0077000Y0087000D01*
X0079049Y0087000D01*
X0081968Y0089920D01*
X0081968Y0091968D01*
X0077000Y0091968D01*
X0077000Y0092000D01*
X0081968Y0092000D01*
X0081968Y0093381D01*
X0089425Y0085924D01*
X0089425Y0081475D01*
X0089815Y0080535D01*
X0090535Y0079815D01*
X0105535Y0064815D01*
X0106475Y0064425D01*
X0133198Y0064425D01*
X0133355Y0064268D01*
X0103202Y0064268D01*
X0086202Y0081268D01*
X0086206Y0081279D01*
X0086206Y0083084D01*
X0085516Y0084751D01*
X0084239Y0086027D01*
X0082572Y0086718D01*
X0080767Y0086718D01*
X0079099Y0086027D01*
X0077823Y0084751D01*
X0077132Y0083084D01*
X0077132Y0081279D01*
X0077823Y0079611D01*
X0079099Y0078335D01*
X0080767Y0077644D01*
X0082572Y0077644D01*
X0082583Y0077649D01*
X0099972Y0060259D01*
X0100692Y0059539D01*
X0101633Y0059150D01*
X0138478Y0059150D01*
X0139418Y0059539D01*
X0143499Y0063620D01*
X0144219Y0064340D01*
X0144608Y0065280D01*
X0144608Y0087334D01*
X0144926Y0087016D01*
X0148019Y0087016D01*
X0154307Y0080727D01*
X0154307Y0056710D01*
X0154049Y0056968D01*
X0152000Y0056968D01*
X0152000Y0052000D01*
X0151968Y0052000D01*
X0151968Y0051968D01*
X0151984Y0051984D02*
X0151748Y0052260D01*
X0142693Y0052260D01*
X0141984Y0051984D01*
X0141906Y0052260D01*
X0132850Y0052260D01*
X0131984Y0051984D01*
X0131669Y0052260D01*
X0122614Y0052260D01*
X0121984Y0051984D01*
X0121827Y0052260D01*
X0112772Y0052260D01*
X0111984Y0051984D01*
X0111984Y0052260D01*
X0102929Y0052260D01*
X0101984Y0051984D01*
X0101748Y0052260D01*
X0092693Y0052260D01*
X0091984Y0051984D01*
X0091906Y0052260D01*
X0082850Y0052260D01*
X0081984Y0051984D01*
X0081669Y0052260D01*
X0076945Y0052260D01*
X0076945Y0091630D01*
X0076984Y0091984D01*
X0076968Y0092000D02*
X0076968Y0096968D01*
X0074920Y0096968D01*
X0074386Y0096435D01*
X0074386Y0097257D01*
X0074174Y0097768D01*
X0074926Y0097016D01*
X0078334Y0097016D01*
X0078381Y0096968D01*
X0077000Y0096968D01*
X0077000Y0092000D01*
X0076968Y0092000D01*
X0076968Y0091566D02*
X0077000Y0091566D01*
X0076968Y0093533D02*
X0077000Y0093533D01*
X0076968Y0095500D02*
X0077000Y0095500D01*
X0074475Y0097467D02*
X0074299Y0097467D01*
X0072016Y0101401D02*
X0071953Y0101401D01*
X0071953Y0103368D02*
X0072016Y0103368D01*
X0073309Y0105335D02*
X0070660Y0105335D01*
X0069543Y0107302D02*
X0102902Y0107302D01*
X0103111Y0106796D02*
X0104396Y0105511D01*
X0106076Y0104816D01*
X0107893Y0104816D01*
X0109572Y0105511D01*
X0110857Y0106796D01*
X0111553Y0108476D01*
X0111553Y0115493D01*
X0110857Y0117172D01*
X0109937Y0118092D01*
X0109937Y0121931D01*
X0110001Y0123719D01*
X0109038Y0127275D01*
X0107066Y0130387D01*
X0104261Y0132776D01*
X0104261Y0132776D01*
X0100875Y0134228D01*
X0099614Y0134361D01*
X0098890Y0134757D01*
X0097042Y0136361D01*
X0095719Y0138420D01*
X0095027Y0140767D01*
X0094937Y0141990D01*
X0094937Y0144910D01*
X0096196Y0146170D01*
X0096953Y0147996D01*
X0096953Y0155973D01*
X0096196Y0157799D01*
X0094799Y0159196D01*
X0092973Y0159953D01*
X0090996Y0159953D01*
X0089170Y0159196D01*
X0087772Y0157799D01*
X0087016Y0155973D01*
X0087016Y0147996D01*
X0087772Y0146170D01*
X0089031Y0144910D01*
X0089031Y0142568D01*
X0089030Y0142566D01*
X0089031Y0141980D01*
X0089031Y0141397D01*
X0089033Y0141394D01*
X0089036Y0139896D01*
X0090213Y0135902D01*
X0090213Y0135902D01*
X0092465Y0132398D01*
X0095610Y0129669D01*
X0095610Y0129669D01*
X0097412Y0128842D01*
X0097841Y0128609D01*
X0097943Y0128598D01*
X0098037Y0128556D01*
X0098472Y0128539D01*
X0099351Y0128379D01*
X0101074Y0127640D01*
X0102502Y0126424D01*
X0103506Y0124840D01*
X0103996Y0123030D01*
X0104031Y0122138D01*
X0104031Y0122037D01*
X0104012Y0121503D01*
X0104031Y0121452D01*
X0104031Y0118092D01*
X0103111Y0117172D01*
X0102416Y0115493D01*
X0102416Y0108476D01*
X0103111Y0106796D01*
X0104822Y0105335D02*
X0080660Y0105335D01*
X0081953Y0103368D02*
X0109192Y0103368D01*
X0109147Y0105335D02*
X0111159Y0105335D01*
X0111067Y0107302D02*
X0113126Y0107302D01*
X0111553Y0109269D02*
X0115093Y0109269D01*
X0111553Y0111236D02*
X0143557Y0111236D01*
X0143875Y0109269D02*
X0144031Y0109269D01*
X0146984Y0111984D02*
X0126984Y0131984D01*
X0126984Y0146984D01*
X0131866Y0151866D01*
X0136787Y0151866D01*
X0136906Y0151984D01*
X0136984Y0151984D01*
X0140636Y0148609D02*
X0143310Y0148609D01*
X0142000Y0149920D02*
X0144920Y0147000D01*
X0146968Y0147000D01*
X0146968Y0151968D01*
X0147000Y0151968D01*
X0147000Y0147000D01*
X0149049Y0147000D01*
X0151968Y0149920D01*
X0151968Y0151968D01*
X0147000Y0151968D01*
X0147000Y0152000D01*
X0151968Y0152000D01*
X0151968Y0154049D01*
X0149049Y0156968D01*
X0147000Y0156968D01*
X0147000Y0152000D01*
X0146968Y0152000D01*
X0146968Y0151968D01*
X0142000Y0151968D01*
X0142000Y0149920D01*
X0142000Y0150576D02*
X0141953Y0150576D01*
X0142000Y0152000D02*
X0146968Y0152000D01*
X0146968Y0156968D01*
X0144920Y0156968D01*
X0142000Y0154049D01*
X0142000Y0152000D01*
X0142000Y0152543D02*
X0141953Y0152543D01*
X0141485Y0154510D02*
X0142462Y0154510D01*
X0144429Y0156477D02*
X0139518Y0156477D01*
X0134451Y0156477D02*
X0106740Y0156477D01*
X0106846Y0156151D02*
X0106603Y0156898D01*
X0106247Y0157597D01*
X0105786Y0158231D01*
X0105231Y0158786D01*
X0104597Y0159247D01*
X0103898Y0159603D01*
X0103151Y0159846D01*
X0102377Y0159968D01*
X0102000Y0159968D01*
X0102000Y0152000D01*
X0106968Y0152000D01*
X0106968Y0155377D01*
X0106846Y0156151D01*
X0106968Y0154510D02*
X0130534Y0154510D01*
X0128368Y0152543D02*
X0106968Y0152543D01*
X0106968Y0151968D02*
X0102000Y0151968D01*
X0102000Y0144000D01*
X0102377Y0144000D01*
X0103151Y0144123D01*
X0103898Y0144365D01*
X0104597Y0144721D01*
X0105231Y0145182D01*
X0105786Y0145737D01*
X0106247Y0146372D01*
X0106603Y0147071D01*
X0106846Y0147817D01*
X0106968Y0148592D01*
X0106968Y0151968D01*
X0106968Y0150576D02*
X0126401Y0150576D01*
X0124461Y0148609D02*
X0106968Y0148609D01*
X0106385Y0146642D02*
X0124031Y0146642D01*
X0124031Y0144675D02*
X0104506Y0144675D01*
X0102000Y0144675D02*
X0101968Y0144675D01*
X0101968Y0144000D02*
X0101968Y0151968D01*
X0102000Y0151968D01*
X0102000Y0152000D01*
X0101968Y0152000D01*
X0101968Y0151968D01*
X0097000Y0151968D01*
X0097000Y0148592D01*
X0097123Y0147817D01*
X0097365Y0147071D01*
X0097721Y0146372D01*
X0098182Y0145737D01*
X0098737Y0145182D01*
X0099372Y0144721D01*
X0100071Y0144365D01*
X0100817Y0144123D01*
X0101592Y0144000D01*
X0101968Y0144000D01*
X0091984Y0141985D02*
X0091988Y0141704D01*
X0091999Y0141424D01*
X0092016Y0141144D01*
X0092041Y0140864D01*
X0092072Y0140586D01*
X0092110Y0140308D01*
X0092154Y0140031D01*
X0092205Y0139755D01*
X0092263Y0139481D01*
X0092328Y0139208D01*
X0092399Y0138936D01*
X0092477Y0138667D01*
X0092561Y0138399D01*
X0092651Y0138134D01*
X0092748Y0137871D01*
X0092852Y0137610D01*
X0092962Y0137352D01*
X0093077Y0137096D01*
X0093199Y0136844D01*
X0093328Y0136594D01*
X0093462Y0136348D01*
X0093602Y0136105D01*
X0093748Y0135866D01*
X0093899Y0135630D01*
X0094057Y0135397D01*
X0094220Y0135169D01*
X0094388Y0134945D01*
X0094562Y0134725D01*
X0094741Y0134509D01*
X0094925Y0134297D01*
X0095114Y0134090D01*
X0095309Y0133888D01*
X0095508Y0133690D01*
X0095712Y0133498D01*
X0095920Y0133310D01*
X0096133Y0133128D01*
X0096350Y0132950D01*
X0096572Y0132778D01*
X0096798Y0132612D01*
X0097027Y0132450D01*
X0097261Y0132295D01*
X0097498Y0132145D01*
X0097738Y0132001D01*
X0097983Y0131863D01*
X0098230Y0131731D01*
X0098480Y0131605D01*
X0098734Y0131485D01*
X0097201Y0128939D02*
X0058648Y0128939D01*
X0056681Y0130906D02*
X0094185Y0130906D01*
X0092465Y0132398D02*
X0092465Y0132398D01*
X0092160Y0132873D02*
X0054714Y0132873D01*
X0054543Y0134840D02*
X0090896Y0134840D01*
X0089946Y0136807D02*
X0054543Y0136807D01*
X0060801Y0138774D02*
X0089366Y0138774D01*
X0089036Y0139896D02*
X0089036Y0139896D01*
X0089034Y0140741D02*
X0061953Y0140741D01*
X0061953Y0142708D02*
X0089031Y0142708D01*
X0089031Y0144675D02*
X0061320Y0144675D01*
X0059353Y0146642D02*
X0087576Y0146642D01*
X0087016Y0148609D02*
X0060658Y0148609D01*
X0061968Y0149920D02*
X0061968Y0151968D01*
X0057000Y0151968D01*
X0057000Y0147000D01*
X0059049Y0147000D01*
X0061968Y0149920D01*
X0061968Y0150576D02*
X0087016Y0150576D01*
X0087016Y0152543D02*
X0061968Y0152543D01*
X0061968Y0152000D02*
X0061968Y0154049D01*
X0059049Y0156968D01*
X0057000Y0156968D01*
X0057000Y0152000D01*
X0061968Y0152000D01*
X0061507Y0154510D02*
X0087016Y0154510D01*
X0087225Y0156477D02*
X0059540Y0156477D01*
X0057000Y0156477D02*
X0056968Y0156477D01*
X0056968Y0156968D02*
X0054920Y0156968D01*
X0052000Y0154049D01*
X0052000Y0152000D01*
X0056968Y0152000D01*
X0056968Y0151968D01*
X0057000Y0151968D01*
X0057000Y0152000D01*
X0056968Y0152000D01*
X0056968Y0156968D01*
X0054429Y0156477D02*
X0049518Y0156477D01*
X0051485Y0154510D02*
X0052462Y0154510D01*
X0052000Y0152543D02*
X0051953Y0152543D01*
X0052000Y0151968D02*
X0052000Y0149920D01*
X0054920Y0147000D01*
X0056968Y0147000D01*
X0056968Y0151968D01*
X0052000Y0151968D01*
X0051953Y0150576D02*
X0052000Y0150576D01*
X0050750Y0148609D02*
X0053310Y0148609D01*
X0052717Y0146642D02*
X0054616Y0146642D01*
X0056968Y0148609D02*
X0057000Y0148609D01*
X0056968Y0150576D02*
X0057000Y0150576D01*
X0056968Y0152543D02*
X0057000Y0152543D01*
X0056968Y0154510D02*
X0057000Y0154510D01*
X0044451Y0156477D02*
X0039518Y0156477D01*
X0039042Y0156953D02*
X0034926Y0156953D01*
X0032016Y0154042D01*
X0032016Y0149926D01*
X0034926Y0147016D01*
X0039042Y0147016D01*
X0041953Y0149926D01*
X0041953Y0154042D01*
X0039042Y0156953D01*
X0041485Y0154510D02*
X0042484Y0154510D01*
X0042016Y0152543D02*
X0041953Y0152543D01*
X0041953Y0150576D02*
X0042016Y0150576D01*
X0043333Y0148609D02*
X0040636Y0148609D01*
X0039042Y0146953D02*
X0034926Y0146953D01*
X0032016Y0144042D01*
X0032016Y0139926D01*
X0034926Y0137016D01*
X0039042Y0137016D01*
X0041953Y0139926D01*
X0041953Y0144042D01*
X0039042Y0146953D01*
X0039353Y0146642D02*
X0044616Y0146642D01*
X0042649Y0144675D02*
X0041320Y0144675D01*
X0041953Y0142708D02*
X0042016Y0142708D01*
X0042016Y0140741D02*
X0041953Y0140741D01*
X0040801Y0138774D02*
X0043168Y0138774D01*
X0044465Y0136807D02*
X0013968Y0136807D01*
X0013968Y0134840D02*
X0044465Y0134840D01*
X0044465Y0132873D02*
X0013968Y0132873D01*
X0013968Y0130906D02*
X0044465Y0130906D01*
X0044465Y0128939D02*
X0013968Y0128939D01*
X0013968Y0126972D02*
X0044465Y0126972D01*
X0044465Y0125005D02*
X0013968Y0125005D01*
X0013968Y0123038D02*
X0044465Y0123038D01*
X0044465Y0121071D02*
X0013968Y0121071D01*
X0013968Y0119104D02*
X0044465Y0119104D01*
X0044465Y0117137D02*
X0013968Y0117137D01*
X0013968Y0115170D02*
X0044465Y0115170D01*
X0044465Y0113203D02*
X0013968Y0113203D01*
X0013968Y0111236D02*
X0044465Y0111236D01*
X0044465Y0109269D02*
X0013968Y0109269D01*
X0013968Y0107302D02*
X0025008Y0107302D01*
X0025224Y0107391D02*
X0023556Y0106701D01*
X0022280Y0105424D01*
X0021589Y0103757D01*
X0021589Y0101952D01*
X0022280Y0100284D01*
X0023556Y0099008D01*
X0025224Y0098317D01*
X0027028Y0098317D01*
X0028696Y0099008D01*
X0029972Y0100284D01*
X0029977Y0100295D01*
X0032016Y0100295D01*
X0032016Y0099926D01*
X0034926Y0097016D01*
X0039042Y0097016D01*
X0041953Y0099926D01*
X0041953Y0104042D01*
X0039042Y0106953D01*
X0034926Y0106953D01*
X0033387Y0105413D01*
X0029977Y0105413D01*
X0029972Y0105424D01*
X0028696Y0106701D01*
X0027028Y0107391D01*
X0025224Y0107391D01*
X0027244Y0107302D02*
X0044465Y0107302D01*
X0043309Y0105335D02*
X0040660Y0105335D01*
X0041953Y0103368D02*
X0042016Y0103368D01*
X0042016Y0101401D02*
X0041953Y0101401D01*
X0041460Y0099434D02*
X0042508Y0099434D01*
X0041155Y0097467D02*
X0039493Y0097467D01*
X0034475Y0097467D02*
X0013968Y0097467D01*
X0013968Y0099434D02*
X0023130Y0099434D01*
X0021817Y0101401D02*
X0013968Y0101401D01*
X0013968Y0103368D02*
X0021589Y0103368D01*
X0022243Y0105335D02*
X0013968Y0105335D01*
X0013968Y0095500D02*
X0033473Y0095500D01*
X0032016Y0093533D02*
X0013968Y0093533D01*
X0013968Y0091566D02*
X0032016Y0091566D01*
X0032343Y0089599D02*
X0013968Y0089599D01*
X0013968Y0087632D02*
X0034310Y0087632D01*
X0039240Y0085665D02*
X0013968Y0085665D01*
X0013968Y0083698D02*
X0039240Y0083698D01*
X0039240Y0081731D02*
X0013968Y0081731D01*
X0013968Y0079764D02*
X0039240Y0079764D01*
X0039240Y0077797D02*
X0013968Y0077797D01*
X0013968Y0075830D02*
X0039240Y0075830D01*
X0039240Y0073863D02*
X0013968Y0073863D01*
X0013968Y0071896D02*
X0039240Y0071896D01*
X0039240Y0069929D02*
X0013968Y0069929D01*
X0013968Y0067962D02*
X0039240Y0067962D01*
X0039240Y0065995D02*
X0013968Y0065995D01*
X0013968Y0064028D02*
X0039240Y0064028D01*
X0039240Y0062061D02*
X0013968Y0062061D01*
X0013968Y0060094D02*
X0039240Y0060094D01*
X0039240Y0058127D02*
X0013968Y0058127D01*
X0013968Y0056160D02*
X0039240Y0056160D01*
X0039240Y0054193D02*
X0013968Y0054193D01*
X0013968Y0052226D02*
X0039240Y0052226D01*
X0039240Y0050259D02*
X0013968Y0050259D01*
X0013968Y0048292D02*
X0039240Y0048292D01*
X0039240Y0046325D02*
X0013968Y0046325D01*
X0013968Y0044358D02*
X0039240Y0044358D01*
X0039240Y0042391D02*
X0013968Y0042391D01*
X0013968Y0040424D02*
X0039979Y0040424D01*
X0041946Y0038456D02*
X0013968Y0038456D01*
X0013968Y0036489D02*
X0043913Y0036489D01*
X0045880Y0034522D02*
X0013968Y0034522D01*
X0013968Y0032555D02*
X0047847Y0032555D01*
X0049814Y0030588D02*
X0013968Y0030588D01*
X0013968Y0028621D02*
X0051781Y0028621D01*
X0053748Y0026654D02*
X0013968Y0026654D01*
X0013968Y0024687D02*
X0099133Y0024687D01*
X0100995Y0032555D02*
X0055085Y0032555D01*
X0056923Y0034522D02*
X0053118Y0034522D01*
X0054956Y0036489D02*
X0051151Y0036489D01*
X0052989Y0038456D02*
X0049184Y0038456D01*
X0051022Y0040424D02*
X0047217Y0040424D01*
X0049055Y0042391D02*
X0045250Y0042391D01*
X0044358Y0044358D02*
X0048201Y0044358D01*
X0048201Y0046325D02*
X0044358Y0046325D01*
X0044358Y0048292D02*
X0048201Y0048292D01*
X0048201Y0050259D02*
X0044358Y0050259D01*
X0044358Y0052226D02*
X0048201Y0052226D01*
X0048201Y0054193D02*
X0044358Y0054193D01*
X0044358Y0056160D02*
X0048201Y0056160D01*
X0048201Y0058127D02*
X0044358Y0058127D01*
X0044358Y0060094D02*
X0048201Y0060094D01*
X0048201Y0062061D02*
X0044358Y0062061D01*
X0044358Y0064028D02*
X0048201Y0064028D01*
X0048201Y0065995D02*
X0044358Y0065995D01*
X0044358Y0067962D02*
X0048201Y0067962D01*
X0048201Y0069929D02*
X0044358Y0069929D01*
X0044358Y0071896D02*
X0048201Y0071896D01*
X0048201Y0073863D02*
X0044358Y0073863D01*
X0044358Y0075830D02*
X0048886Y0075830D01*
X0050853Y0077797D02*
X0044358Y0077797D01*
X0044358Y0079764D02*
X0052820Y0079764D01*
X0054787Y0081731D02*
X0044358Y0081731D01*
X0044358Y0083698D02*
X0056754Y0083698D01*
X0058721Y0085665D02*
X0044358Y0085665D01*
X0046968Y0087632D02*
X0047000Y0087632D01*
X0046968Y0089599D02*
X0047000Y0089599D01*
X0046968Y0091566D02*
X0047000Y0091566D01*
X0046984Y0091984D02*
X0047024Y0092024D01*
X0056866Y0092024D01*
X0056984Y0091984D01*
X0056968Y0091968D02*
X0056968Y0087000D01*
X0054920Y0087000D01*
X0052000Y0089920D01*
X0052000Y0091968D01*
X0056968Y0091968D01*
X0056968Y0091566D02*
X0057000Y0091566D01*
X0056968Y0089599D02*
X0057000Y0089599D01*
X0056968Y0087632D02*
X0057000Y0087632D01*
X0054288Y0087632D02*
X0049681Y0087632D01*
X0051648Y0089599D02*
X0052321Y0089599D01*
X0052000Y0091566D02*
X0051968Y0091566D01*
X0051968Y0093533D02*
X0052000Y0093533D01*
X0053451Y0095500D02*
X0050517Y0095500D01*
X0049493Y0097467D02*
X0054475Y0097467D01*
X0052508Y0099434D02*
X0051460Y0099434D01*
X0051953Y0101401D02*
X0052016Y0101401D01*
X0052016Y0103368D02*
X0051953Y0103368D01*
X0050660Y0105335D02*
X0053309Y0105335D01*
X0049583Y0107302D02*
X0064425Y0107302D01*
X0064425Y0109269D02*
X0049583Y0109269D01*
X0049583Y0111236D02*
X0064425Y0111236D01*
X0064425Y0113203D02*
X0049583Y0113203D01*
X0049583Y0115170D02*
X0064425Y0115170D01*
X0063212Y0117137D02*
X0049583Y0117137D01*
X0049583Y0119104D02*
X0061245Y0119104D01*
X0059278Y0121071D02*
X0049583Y0121071D01*
X0049583Y0123038D02*
X0057311Y0123038D01*
X0055344Y0125005D02*
X0049583Y0125005D01*
X0049583Y0126972D02*
X0053377Y0126972D01*
X0051410Y0128939D02*
X0049583Y0128939D01*
X0049583Y0130906D02*
X0049661Y0130906D01*
X0060615Y0126972D02*
X0101859Y0126972D01*
X0103401Y0125005D02*
X0062582Y0125005D01*
X0064549Y0123038D02*
X0103994Y0123038D01*
X0104031Y0121071D02*
X0066516Y0121071D01*
X0068483Y0119104D02*
X0104031Y0119104D01*
X0103097Y0117137D02*
X0069543Y0117137D01*
X0069543Y0115170D02*
X0102416Y0115170D01*
X0102416Y0113203D02*
X0069543Y0113203D01*
X0069543Y0111236D02*
X0102416Y0111236D01*
X0102416Y0109269D02*
X0069543Y0109269D01*
X0063309Y0105335D02*
X0060660Y0105335D01*
X0061953Y0103368D02*
X0062016Y0103368D01*
X0062016Y0101401D02*
X0061953Y0101401D01*
X0061460Y0099434D02*
X0062508Y0099434D01*
X0062985Y0097467D02*
X0064475Y0097467D01*
X0073023Y0087632D02*
X0074288Y0087632D01*
X0076968Y0087632D02*
X0077000Y0087632D01*
X0076968Y0089599D02*
X0077000Y0089599D01*
X0079681Y0087632D02*
X0087718Y0087632D01*
X0089425Y0085665D02*
X0084602Y0085665D01*
X0085952Y0083698D02*
X0089425Y0083698D01*
X0089425Y0081731D02*
X0086206Y0081731D01*
X0087706Y0079764D02*
X0090586Y0079764D01*
X0089673Y0077797D02*
X0092553Y0077797D01*
X0091640Y0075830D02*
X0094520Y0075830D01*
X0093607Y0073863D02*
X0096487Y0073863D01*
X0095574Y0071896D02*
X0098454Y0071896D01*
X0097541Y0069929D02*
X0100421Y0069929D01*
X0099508Y0067962D02*
X0102388Y0067962D01*
X0101475Y0065995D02*
X0104355Y0065995D01*
X0107659Y0069929D02*
X0133260Y0069929D01*
X0139490Y0071896D02*
X0105692Y0071896D01*
X0103725Y0073863D02*
X0139490Y0073863D01*
X0139490Y0075830D02*
X0109891Y0075830D01*
X0111272Y0077797D02*
X0139490Y0077797D01*
X0139490Y0079764D02*
X0111553Y0079764D01*
X0111553Y0081731D02*
X0139490Y0081731D01*
X0139490Y0083698D02*
X0111553Y0083698D01*
X0111482Y0085665D02*
X0139490Y0085665D01*
X0144608Y0085665D02*
X0149370Y0085665D01*
X0151337Y0083698D02*
X0144608Y0083698D01*
X0144608Y0081731D02*
X0153304Y0081731D01*
X0154307Y0079764D02*
X0144608Y0079764D01*
X0144608Y0077797D02*
X0154307Y0077797D01*
X0154307Y0075830D02*
X0144608Y0075830D01*
X0144608Y0073863D02*
X0154307Y0073863D01*
X0154307Y0071896D02*
X0144608Y0071896D01*
X0144608Y0069929D02*
X0154307Y0069929D01*
X0154307Y0067962D02*
X0144608Y0067962D01*
X0144608Y0065995D02*
X0154307Y0065995D01*
X0154307Y0064028D02*
X0143907Y0064028D01*
X0141940Y0062061D02*
X0154307Y0062061D01*
X0154307Y0060094D02*
X0139973Y0060094D01*
X0139920Y0056968D02*
X0137000Y0054049D01*
X0137000Y0052000D01*
X0141968Y0052000D01*
X0141968Y0056968D01*
X0139920Y0056968D01*
X0139111Y0056160D02*
X0134858Y0056160D01*
X0134049Y0056968D02*
X0132000Y0056968D01*
X0132000Y0052000D01*
X0136968Y0052000D01*
X0136968Y0054049D01*
X0134049Y0056968D01*
X0131968Y0056968D02*
X0129920Y0056968D01*
X0127000Y0054049D01*
X0127000Y0052000D01*
X0131968Y0052000D01*
X0131968Y0056968D01*
X0131968Y0056160D02*
X0132000Y0056160D01*
X0131968Y0054193D02*
X0132000Y0054193D01*
X0131968Y0052226D02*
X0132000Y0052226D01*
X0129111Y0056160D02*
X0124858Y0056160D01*
X0124049Y0056968D02*
X0122000Y0056968D01*
X0122000Y0052000D01*
X0126968Y0052000D01*
X0126968Y0054049D01*
X0124049Y0056968D01*
X0121968Y0056968D02*
X0119920Y0056968D01*
X0117000Y0054049D01*
X0117000Y0052000D01*
X0121968Y0052000D01*
X0121968Y0051968D01*
X0122000Y0051968D01*
X0122000Y0047000D01*
X0124049Y0047000D01*
X0126968Y0049920D01*
X0126968Y0051968D01*
X0122000Y0051968D01*
X0122000Y0052000D01*
X0121968Y0052000D01*
X0121968Y0056968D01*
X0121968Y0056160D02*
X0122000Y0056160D01*
X0121968Y0054193D02*
X0122000Y0054193D01*
X0121968Y0052226D02*
X0122000Y0052226D01*
X0121968Y0051968D02*
X0117000Y0051968D01*
X0117000Y0049920D01*
X0119920Y0047000D01*
X0121968Y0047000D01*
X0121968Y0051968D01*
X0121968Y0050259D02*
X0122000Y0050259D01*
X0121968Y0048292D02*
X0122000Y0048292D01*
X0124670Y0046325D02*
X0125052Y0046325D01*
X0125340Y0048292D02*
X0127019Y0048292D01*
X0126968Y0050259D02*
X0127000Y0050259D01*
X0126968Y0052226D02*
X0127000Y0052226D01*
X0127144Y0054193D02*
X0126825Y0054193D01*
X0119111Y0056160D02*
X0114858Y0056160D01*
X0114049Y0056968D02*
X0112000Y0056968D01*
X0112000Y0052000D01*
X0116968Y0052000D01*
X0116968Y0054049D01*
X0114049Y0056968D01*
X0111968Y0056968D02*
X0109920Y0056968D01*
X0107000Y0054049D01*
X0107000Y0052000D01*
X0111968Y0052000D01*
X0111968Y0051968D01*
X0112000Y0051968D01*
X0112000Y0047000D01*
X0114049Y0047000D01*
X0116968Y0049920D01*
X0116968Y0051968D01*
X0112000Y0051968D01*
X0112000Y0052000D01*
X0111968Y0052000D01*
X0111968Y0056968D01*
X0111968Y0056160D02*
X0112000Y0056160D01*
X0111968Y0054193D02*
X0112000Y0054193D01*
X0111968Y0052226D02*
X0112000Y0052226D01*
X0111968Y0051968D02*
X0107000Y0051968D01*
X0107000Y0049920D01*
X0109920Y0047000D01*
X0111968Y0047000D01*
X0111968Y0051968D01*
X0111968Y0050259D02*
X0112000Y0050259D01*
X0111968Y0048292D02*
X0112000Y0048292D01*
X0114670Y0046325D02*
X0119298Y0046325D01*
X0118628Y0048292D02*
X0115340Y0048292D01*
X0116968Y0050259D02*
X0117000Y0050259D01*
X0116968Y0052226D02*
X0117000Y0052226D01*
X0117144Y0054193D02*
X0116825Y0054193D01*
X0109298Y0046325D02*
X0104670Y0046325D01*
X0104049Y0047000D02*
X0106968Y0049920D01*
X0106968Y0051968D01*
X0102000Y0051968D01*
X0102000Y0047000D01*
X0104049Y0047000D01*
X0105340Y0048292D02*
X0108628Y0048292D01*
X0107000Y0050259D02*
X0106968Y0050259D01*
X0106968Y0052000D02*
X0106968Y0054049D01*
X0104049Y0056968D01*
X0102000Y0056968D01*
X0102000Y0052000D01*
X0106968Y0052000D01*
X0106968Y0052226D02*
X0107000Y0052226D01*
X0107144Y0054193D02*
X0106825Y0054193D01*
X0104858Y0056160D02*
X0109111Y0056160D01*
X0102000Y0056160D02*
X0101968Y0056160D01*
X0101968Y0056968D02*
X0099920Y0056968D01*
X0097000Y0054049D01*
X0097000Y0052000D01*
X0101968Y0052000D01*
X0101968Y0051968D01*
X0102000Y0051968D01*
X0102000Y0052000D01*
X0101968Y0052000D01*
X0101968Y0056968D01*
X0099111Y0056160D02*
X0094858Y0056160D01*
X0094049Y0056968D02*
X0092000Y0056968D01*
X0092000Y0052000D01*
X0096968Y0052000D01*
X0096968Y0054049D01*
X0094049Y0056968D01*
X0091968Y0056968D02*
X0089920Y0056968D01*
X0087000Y0054049D01*
X0087000Y0052000D01*
X0091968Y0052000D01*
X0091968Y0051968D01*
X0092000Y0051968D01*
X0092000Y0047000D01*
X0094049Y0047000D01*
X0096968Y0049920D01*
X0096968Y0051968D01*
X0092000Y0051968D01*
X0092000Y0052000D01*
X0091968Y0052000D01*
X0091968Y0056968D01*
X0091968Y0056160D02*
X0092000Y0056160D01*
X0091968Y0054193D02*
X0092000Y0054193D01*
X0091968Y0052226D02*
X0092000Y0052226D01*
X0091968Y0051968D02*
X0087000Y0051968D01*
X0087000Y0049920D01*
X0089920Y0047000D01*
X0091968Y0047000D01*
X0091968Y0051968D01*
X0091968Y0050259D02*
X0092000Y0050259D01*
X0091968Y0048292D02*
X0092000Y0048292D01*
X0089298Y0046325D02*
X0084670Y0046325D01*
X0084049Y0047000D02*
X0086968Y0049920D01*
X0086968Y0051968D01*
X0082000Y0051968D01*
X0082000Y0047000D01*
X0084049Y0047000D01*
X0085340Y0048292D02*
X0088628Y0048292D01*
X0087000Y0050259D02*
X0086968Y0050259D01*
X0086968Y0052000D02*
X0086968Y0054049D01*
X0084049Y0056968D01*
X0082000Y0056968D01*
X0082000Y0052000D01*
X0086968Y0052000D01*
X0086968Y0052226D02*
X0087000Y0052226D01*
X0087144Y0054193D02*
X0086825Y0054193D01*
X0084858Y0056160D02*
X0089111Y0056160D01*
X0082000Y0056160D02*
X0081968Y0056160D01*
X0081968Y0056968D02*
X0079920Y0056968D01*
X0077000Y0054049D01*
X0077000Y0052000D01*
X0081968Y0052000D01*
X0081968Y0051968D01*
X0082000Y0051968D01*
X0082000Y0052000D01*
X0081968Y0052000D01*
X0081968Y0056968D01*
X0081968Y0054193D02*
X0082000Y0054193D01*
X0081968Y0052226D02*
X0082000Y0052226D01*
X0081968Y0051968D02*
X0077000Y0051968D01*
X0077000Y0049920D01*
X0079920Y0047000D01*
X0081968Y0047000D01*
X0081968Y0051968D01*
X0081968Y0050259D02*
X0082000Y0050259D01*
X0081968Y0048292D02*
X0082000Y0048292D01*
X0079298Y0046325D02*
X0078338Y0046325D01*
X0078628Y0048292D02*
X0076371Y0048292D01*
X0076968Y0050259D02*
X0077000Y0050259D01*
X0076968Y0052000D02*
X0076968Y0054049D01*
X0074049Y0056968D01*
X0072000Y0056968D01*
X0072000Y0052000D01*
X0076968Y0052000D01*
X0076968Y0052226D02*
X0077000Y0052226D01*
X0076945Y0052260D02*
X0072220Y0052260D01*
X0071984Y0051984D01*
X0071968Y0052226D02*
X0072000Y0052226D01*
X0071968Y0054193D02*
X0072000Y0054193D01*
X0071968Y0056160D02*
X0072000Y0056160D01*
X0074858Y0056160D02*
X0079111Y0056160D01*
X0077144Y0054193D02*
X0076825Y0054193D01*
X0069661Y0058127D02*
X0154307Y0058127D01*
X0151968Y0056968D02*
X0149920Y0056968D01*
X0147000Y0054049D01*
X0147000Y0052000D01*
X0151968Y0052000D01*
X0151968Y0056968D01*
X0151968Y0056160D02*
X0152000Y0056160D01*
X0151968Y0054193D02*
X0152000Y0054193D01*
X0151968Y0052226D02*
X0152000Y0052226D01*
X0149111Y0056160D02*
X0144858Y0056160D01*
X0144049Y0056968D02*
X0142000Y0056968D01*
X0142000Y0052000D01*
X0146968Y0052000D01*
X0146968Y0054049D01*
X0144049Y0056968D01*
X0142000Y0056160D02*
X0141968Y0056160D01*
X0141968Y0054193D02*
X0142000Y0054193D01*
X0141968Y0052226D02*
X0142000Y0052226D01*
X0146968Y0052226D02*
X0147000Y0052226D01*
X0146968Y0050259D02*
X0147000Y0050259D01*
X0147144Y0054193D02*
X0146825Y0054193D01*
X0137144Y0054193D02*
X0136825Y0054193D01*
X0136968Y0052226D02*
X0137000Y0052226D01*
X0136968Y0050259D02*
X0137000Y0050259D01*
X0127016Y0040424D02*
X0126953Y0040424D01*
X0125483Y0038456D02*
X0128485Y0038456D01*
X0133584Y0036489D02*
X0119518Y0036489D01*
X0117551Y0034522D02*
X0135551Y0034522D01*
X0117016Y0042391D02*
X0116953Y0042391D01*
X0116637Y0044358D02*
X0117331Y0044358D01*
X0107331Y0044358D02*
X0106637Y0044358D01*
X0106953Y0042391D02*
X0107016Y0042391D01*
X0107016Y0040424D02*
X0106953Y0040424D01*
X0105483Y0038456D02*
X0108485Y0038456D01*
X0098485Y0038456D02*
X0095483Y0038456D01*
X0096953Y0040424D02*
X0097016Y0040424D01*
X0097016Y0042391D02*
X0096953Y0042391D01*
X0096637Y0044358D02*
X0097331Y0044358D01*
X0099298Y0046325D02*
X0094670Y0046325D01*
X0095340Y0048292D02*
X0098628Y0048292D01*
X0099920Y0047000D02*
X0101968Y0047000D01*
X0101968Y0051968D01*
X0097000Y0051968D01*
X0097000Y0049920D01*
X0099920Y0047000D01*
X0101968Y0048292D02*
X0102000Y0048292D01*
X0101968Y0050259D02*
X0102000Y0050259D01*
X0101968Y0052226D02*
X0102000Y0052226D01*
X0101968Y0054193D02*
X0102000Y0054193D01*
X0097144Y0054193D02*
X0096825Y0054193D01*
X0096968Y0052226D02*
X0097000Y0052226D01*
X0096968Y0050259D02*
X0097000Y0050259D01*
X0100138Y0060094D02*
X0069661Y0060094D01*
X0069661Y0062061D02*
X0098171Y0062061D01*
X0096204Y0064028D02*
X0069661Y0064028D01*
X0069661Y0065995D02*
X0094237Y0065995D01*
X0092270Y0067962D02*
X0069661Y0067962D01*
X0069661Y0069929D02*
X0090303Y0069929D01*
X0088336Y0071896D02*
X0069661Y0071896D01*
X0069661Y0073863D02*
X0086369Y0073863D01*
X0084402Y0075830D02*
X0069661Y0075830D01*
X0069661Y0077797D02*
X0080398Y0077797D01*
X0077760Y0079764D02*
X0069661Y0079764D01*
X0069661Y0081731D02*
X0077132Y0081731D01*
X0077387Y0083698D02*
X0069661Y0083698D01*
X0071056Y0085665D02*
X0078737Y0085665D01*
X0081648Y0089599D02*
X0085751Y0089599D01*
X0083784Y0091566D02*
X0081968Y0091566D01*
X0087088Y0095500D02*
X0104031Y0095500D01*
X0104031Y0097467D02*
X0085121Y0097467D01*
X0083154Y0099434D02*
X0105258Y0099434D01*
X0107225Y0101401D02*
X0081953Y0101401D01*
X0089055Y0093533D02*
X0104031Y0093533D01*
X0104031Y0091566D02*
X0091022Y0091566D01*
X0092989Y0089599D02*
X0104031Y0089599D01*
X0103571Y0087632D02*
X0094486Y0087632D01*
X0094543Y0085665D02*
X0102487Y0085665D01*
X0102416Y0083698D02*
X0094543Y0083698D01*
X0095857Y0081731D02*
X0102416Y0081731D01*
X0102416Y0079764D02*
X0097824Y0079764D01*
X0099791Y0077797D02*
X0102697Y0077797D01*
X0101758Y0075830D02*
X0104078Y0075830D01*
X0106984Y0081984D02*
X0106984Y0096984D01*
X0118234Y0108234D01*
X0140734Y0108234D01*
X0146984Y0101984D01*
X0146984Y0111984D01*
X0149675Y0113203D02*
X0159580Y0113203D01*
X0161575Y0111236D02*
X0149937Y0111236D01*
X0149937Y0109269D02*
X0163571Y0109269D01*
X0165567Y0107302D02*
X0149937Y0107302D01*
X0150660Y0105335D02*
X0153309Y0105335D01*
X0152016Y0103368D02*
X0151953Y0103368D01*
X0151953Y0101401D02*
X0152016Y0101401D01*
X0160660Y0105335D02*
X0163309Y0105335D01*
X0162016Y0103368D02*
X0161953Y0103368D01*
X0161953Y0101401D02*
X0162016Y0101401D01*
X0161953Y0093533D02*
X0162016Y0093533D01*
X0162016Y0091566D02*
X0161953Y0091566D01*
X0161625Y0089599D02*
X0162343Y0089599D01*
X0164310Y0087632D02*
X0159658Y0087632D01*
X0156608Y0085665D02*
X0172242Y0085665D01*
X0170275Y0087632D02*
X0169658Y0087632D01*
X0180495Y0095500D02*
X0183010Y0095500D01*
X0183010Y0097467D02*
X0179516Y0097467D01*
X0181483Y0099434D02*
X0183010Y0099434D01*
X0183010Y0101401D02*
X0181968Y0101401D01*
X0181968Y0102000D02*
X0181968Y0104049D01*
X0179049Y0106968D01*
X0177000Y0106968D01*
X0177000Y0102000D01*
X0181968Y0102000D01*
X0181968Y0103368D02*
X0183010Y0103368D01*
X0183010Y0105335D02*
X0180682Y0105335D01*
X0183010Y0107302D02*
X0172857Y0107302D01*
X0170862Y0109269D02*
X0183010Y0109269D01*
X0183010Y0111236D02*
X0168866Y0111236D01*
X0166871Y0113203D02*
X0183010Y0113203D01*
X0183010Y0115170D02*
X0164875Y0115170D01*
X0164174Y0117453D02*
X0165979Y0117453D01*
X0167647Y0118144D01*
X0168923Y0119420D01*
X0169614Y0121088D01*
X0169614Y0122893D01*
X0168923Y0124560D01*
X0167647Y0125836D01*
X0165979Y0126527D01*
X0164174Y0126527D01*
X0164163Y0126523D01*
X0159543Y0131143D01*
X0159543Y0137517D01*
X0161953Y0139926D01*
X0161953Y0144042D01*
X0159042Y0146953D01*
X0154926Y0146953D01*
X0152016Y0144042D01*
X0152016Y0139926D01*
X0154425Y0137517D01*
X0154425Y0129574D01*
X0154815Y0128633D01*
X0160544Y0122904D01*
X0160540Y0122893D01*
X0160540Y0121088D01*
X0161230Y0119420D01*
X0162507Y0118144D01*
X0164174Y0117453D01*
X0162879Y0117137D02*
X0183010Y0117137D01*
X0183010Y0119104D02*
X0168607Y0119104D01*
X0169607Y0121071D02*
X0183010Y0121071D01*
X0183010Y0123038D02*
X0169553Y0123038D01*
X0168478Y0125005D02*
X0183010Y0125005D01*
X0183010Y0126972D02*
X0163714Y0126972D01*
X0161747Y0128939D02*
X0183010Y0128939D01*
X0183010Y0130906D02*
X0159780Y0130906D01*
X0159543Y0132873D02*
X0183010Y0132873D01*
X0183010Y0134840D02*
X0159543Y0134840D01*
X0159543Y0136807D02*
X0183010Y0136807D01*
X0183010Y0138774D02*
X0180801Y0138774D01*
X0181953Y0140741D02*
X0183010Y0140741D01*
X0183010Y0142708D02*
X0181953Y0142708D01*
X0181320Y0144675D02*
X0183010Y0144675D01*
X0183010Y0146642D02*
X0179353Y0146642D01*
X0180658Y0148609D02*
X0183010Y0148609D01*
X0182313Y0146892D02*
X0177339Y0151866D01*
X0176984Y0151984D01*
X0177000Y0152000D02*
X0177000Y0156968D01*
X0179049Y0156968D01*
X0181968Y0154049D01*
X0181968Y0152000D01*
X0177000Y0152000D01*
X0176968Y0152543D02*
X0177000Y0152543D01*
X0176968Y0150576D02*
X0177000Y0150576D01*
X0176968Y0148609D02*
X0177000Y0148609D01*
X0176968Y0154510D02*
X0177000Y0154510D01*
X0176968Y0156477D02*
X0177000Y0156477D01*
X0179540Y0156477D02*
X0181132Y0156477D01*
X0181507Y0154510D02*
X0183010Y0154510D01*
X0183010Y0152543D02*
X0181968Y0152543D01*
X0181968Y0150576D02*
X0183010Y0150576D01*
X0182313Y0146892D02*
X0182313Y0134911D01*
X0177339Y0129937D01*
X0177339Y0102260D01*
X0176984Y0101984D01*
X0176968Y0103368D02*
X0177000Y0103368D01*
X0176968Y0105335D02*
X0177000Y0105335D01*
X0181953Y0093533D02*
X0182278Y0093533D01*
X0157584Y0115170D02*
X0147974Y0115170D01*
X0146007Y0117137D02*
X0155589Y0117137D01*
X0153593Y0119104D02*
X0144040Y0119104D01*
X0142073Y0121071D02*
X0151597Y0121071D01*
X0149602Y0123038D02*
X0140106Y0123038D01*
X0138139Y0125005D02*
X0147606Y0125005D01*
X0145610Y0126972D02*
X0136172Y0126972D01*
X0134205Y0128939D02*
X0143615Y0128939D01*
X0141619Y0130906D02*
X0132238Y0130906D01*
X0130271Y0132873D02*
X0139624Y0132873D01*
X0137628Y0134840D02*
X0129937Y0134840D01*
X0129937Y0136807D02*
X0135629Y0136807D01*
X0133168Y0138774D02*
X0129937Y0138774D01*
X0129937Y0140741D02*
X0132016Y0140741D01*
X0132016Y0142708D02*
X0129937Y0142708D01*
X0129937Y0144675D02*
X0132649Y0144675D01*
X0130818Y0146642D02*
X0134616Y0146642D01*
X0133333Y0148609D02*
X0132785Y0148609D01*
X0139353Y0146642D02*
X0144616Y0146642D01*
X0144926Y0146953D02*
X0142016Y0144042D01*
X0142016Y0139926D01*
X0144926Y0137016D01*
X0149042Y0137016D01*
X0151953Y0139926D01*
X0151953Y0144042D01*
X0149042Y0146953D01*
X0144926Y0146953D01*
X0146968Y0148609D02*
X0147000Y0148609D01*
X0146968Y0150576D02*
X0147000Y0150576D01*
X0146984Y0151984D02*
X0146630Y0152260D01*
X0123795Y0175094D01*
X0123795Y0182575D01*
X0125370Y0184150D01*
X0128126Y0184150D01*
X0128480Y0184484D01*
X0124315Y0184484D01*
X0128480Y0184484D01*
X0128480Y0184484D01*
X0128480Y0188650D01*
X0128480Y0184484D01*
X0128480Y0184484D01*
X0128480Y0185983D02*
X0128480Y0185983D01*
X0128480Y0187950D02*
X0128480Y0187950D01*
X0130797Y0187950D02*
X0131077Y0187950D01*
X0135883Y0187950D02*
X0136077Y0187950D01*
X0139329Y0189917D02*
X0013968Y0189917D01*
X0013968Y0191884D02*
X0141296Y0191884D01*
X0148480Y0184484D02*
X0148598Y0184150D01*
X0150173Y0184150D01*
X0157654Y0176669D01*
X0159495Y0178115D02*
X0152404Y0178115D01*
X0152630Y0178659D02*
X0152630Y0180310D01*
X0151998Y0181835D01*
X0151828Y0182005D01*
X0152043Y0182301D01*
X0152340Y0182885D01*
X0152543Y0183509D01*
X0152646Y0184156D01*
X0152646Y0184484D01*
X0148480Y0184484D01*
X0148480Y0184484D01*
X0152646Y0184484D01*
X0152646Y0184812D01*
X0152617Y0184992D01*
X0163014Y0174596D01*
X0161694Y0174049D01*
X0160417Y0172773D01*
X0160413Y0172762D01*
X0146826Y0172762D01*
X0144253Y0175335D01*
X0144306Y0175335D01*
X0145831Y0175966D01*
X0145980Y0176116D01*
X0146130Y0175966D01*
X0147655Y0175335D01*
X0149306Y0175335D01*
X0150831Y0175966D01*
X0151998Y0177134D01*
X0152630Y0178659D01*
X0152630Y0180082D02*
X0157528Y0180082D01*
X0155561Y0182049D02*
X0151859Y0182049D01*
X0152623Y0184016D02*
X0153594Y0184016D01*
X0151012Y0176148D02*
X0161462Y0176148D01*
X0162011Y0174181D02*
X0145407Y0174181D01*
X0140377Y0168280D02*
X0013968Y0168280D01*
X0013968Y0170247D02*
X0138410Y0170247D01*
X0136443Y0172214D02*
X0013968Y0172214D01*
X0013968Y0174181D02*
X0134476Y0174181D01*
X0124671Y0176148D02*
X0013968Y0176148D01*
X0013968Y0178115D02*
X0124331Y0178115D01*
X0124331Y0180082D02*
X0013968Y0180082D01*
X0013968Y0182049D02*
X0124331Y0182049D01*
X0124337Y0184016D02*
X0013968Y0184016D01*
X0013968Y0185983D02*
X0124587Y0185983D01*
X0126164Y0187950D02*
X0013968Y0187950D01*
X0013968Y0193851D02*
X0200000Y0193851D01*
X0200000Y0195000D02*
X0013968Y0195000D01*
X0013968Y0008968D01*
X0200000Y0008968D01*
X0200000Y0195000D01*
X0171297Y0166312D02*
X0166728Y0166312D01*
X0168378Y0168280D02*
X0169330Y0168280D01*
X0173264Y0164345D02*
X0151549Y0164345D01*
X0153516Y0162378D02*
X0175231Y0162378D01*
X0177198Y0160411D02*
X0155483Y0160411D01*
X0152179Y0156477D02*
X0149540Y0156477D01*
X0150212Y0158444D02*
X0105573Y0158444D01*
X0102000Y0158444D02*
X0101968Y0158444D01*
X0101968Y0159968D02*
X0101592Y0159968D01*
X0100817Y0159846D01*
X0100071Y0159603D01*
X0099372Y0159247D01*
X0098737Y0158786D01*
X0098182Y0158231D01*
X0097721Y0157597D01*
X0097365Y0156898D01*
X0097123Y0156151D01*
X0097000Y0155377D01*
X0097000Y0152000D01*
X0101968Y0152000D01*
X0101968Y0159968D01*
X0101968Y0156477D02*
X0102000Y0156477D01*
X0101968Y0154510D02*
X0102000Y0154510D01*
X0101968Y0152543D02*
X0102000Y0152543D01*
X0101968Y0150576D02*
X0102000Y0150576D01*
X0101968Y0148609D02*
X0102000Y0148609D01*
X0101968Y0146642D02*
X0102000Y0146642D01*
X0099462Y0144675D02*
X0094937Y0144675D01*
X0094937Y0142708D02*
X0124031Y0142708D01*
X0124031Y0140741D02*
X0095034Y0140741D01*
X0095614Y0138774D02*
X0124031Y0138774D01*
X0124031Y0136807D02*
X0096755Y0136807D01*
X0098795Y0134840D02*
X0124031Y0134840D01*
X0124031Y0132873D02*
X0104034Y0132873D01*
X0106456Y0130906D02*
X0124235Y0130906D01*
X0125853Y0128939D02*
X0107983Y0128939D01*
X0107066Y0130387D02*
X0107066Y0130387D01*
X0109120Y0126972D02*
X0127820Y0126972D01*
X0129787Y0125005D02*
X0109653Y0125005D01*
X0109977Y0123038D02*
X0131755Y0123038D01*
X0133722Y0121071D02*
X0109937Y0121071D01*
X0109937Y0119104D02*
X0135689Y0119104D01*
X0137656Y0117137D02*
X0110872Y0117137D01*
X0111553Y0115170D02*
X0139623Y0115170D01*
X0141590Y0113203D02*
X0111553Y0113203D01*
X0106984Y0111984D02*
X0106984Y0121984D01*
X0106984Y0121985D02*
X0106989Y0122208D01*
X0106989Y0122431D01*
X0106984Y0122655D01*
X0106973Y0122878D01*
X0106956Y0123100D01*
X0106935Y0123323D01*
X0106908Y0123544D01*
X0106875Y0123765D01*
X0106837Y0123985D01*
X0106794Y0124205D01*
X0106746Y0124423D01*
X0106692Y0124639D01*
X0106633Y0124855D01*
X0106569Y0125069D01*
X0106500Y0125281D01*
X0106426Y0125492D01*
X0106346Y0125700D01*
X0106262Y0125907D01*
X0106172Y0126112D01*
X0106078Y0126314D01*
X0105978Y0126514D01*
X0105874Y0126712D01*
X0105765Y0126907D01*
X0105652Y0127099D01*
X0105534Y0127288D01*
X0105411Y0127475D01*
X0105284Y0127659D01*
X0105152Y0127839D01*
X0105016Y0128016D01*
X0104876Y0128190D01*
X0104731Y0128360D01*
X0104583Y0128527D01*
X0104430Y0128690D01*
X0104274Y0128850D01*
X0104114Y0129006D01*
X0103950Y0129157D01*
X0103782Y0129305D01*
X0103611Y0129448D01*
X0103437Y0129588D01*
X0103259Y0129723D01*
X0103078Y0129854D01*
X0102894Y0129980D01*
X0102707Y0130102D01*
X0102517Y0130219D01*
X0102324Y0130332D01*
X0102128Y0130440D01*
X0101930Y0130543D01*
X0101730Y0130641D01*
X0101527Y0130735D01*
X0101322Y0130823D01*
X0101115Y0130907D01*
X0100906Y0130985D01*
X0100695Y0131059D01*
X0100482Y0131127D01*
X0100268Y0131190D01*
X0100052Y0131248D01*
X0099835Y0131301D01*
X0099617Y0131348D01*
X0099397Y0131390D01*
X0099177Y0131427D01*
X0098956Y0131458D01*
X0098734Y0131484D01*
X0100875Y0134228D02*
X0100875Y0134228D01*
X0091984Y0141984D02*
X0091984Y0151984D01*
X0096953Y0152543D02*
X0097000Y0152543D01*
X0096953Y0150576D02*
X0097000Y0150576D01*
X0096953Y0148609D02*
X0097000Y0148609D01*
X0097584Y0146642D02*
X0096392Y0146642D01*
X0096953Y0154510D02*
X0097000Y0154510D01*
X0097229Y0156477D02*
X0096744Y0156477D01*
X0095551Y0158444D02*
X0098396Y0158444D01*
X0088418Y0158444D02*
X0013968Y0158444D01*
X0013968Y0156477D02*
X0034451Y0156477D01*
X0032484Y0154510D02*
X0013968Y0154510D01*
X0013968Y0152543D02*
X0032016Y0152543D01*
X0032016Y0150576D02*
X0013968Y0150576D01*
X0013968Y0148609D02*
X0033333Y0148609D01*
X0034616Y0146642D02*
X0013968Y0146642D01*
X0013968Y0144675D02*
X0032649Y0144675D01*
X0032016Y0142708D02*
X0013968Y0142708D01*
X0013968Y0140741D02*
X0032016Y0140741D01*
X0033168Y0138774D02*
X0013968Y0138774D01*
X0013968Y0160411D02*
X0148245Y0160411D01*
X0146278Y0162378D02*
X0013968Y0162378D01*
X0013968Y0164345D02*
X0144311Y0164345D01*
X0142344Y0166312D02*
X0013968Y0166312D01*
X0029122Y0099434D02*
X0032508Y0099434D01*
X0056124Y0075830D02*
X0064543Y0075830D01*
X0064543Y0077797D02*
X0058091Y0077797D01*
X0060058Y0079764D02*
X0064543Y0079764D01*
X0064543Y0081731D02*
X0062025Y0081731D01*
X0063992Y0083698D02*
X0064543Y0083698D01*
X0064260Y0083966D02*
X0064543Y0084650D01*
X0064543Y0056452D01*
X0064042Y0056953D01*
X0059926Y0056953D01*
X0057016Y0054042D01*
X0057016Y0049926D01*
X0059926Y0047016D01*
X0064042Y0047016D01*
X0065276Y0048249D01*
X0065653Y0047872D01*
X0068249Y0045276D01*
X0067016Y0044042D01*
X0067016Y0039926D01*
X0068834Y0038108D01*
X0065135Y0038108D01*
X0066953Y0039926D01*
X0066953Y0044042D01*
X0064042Y0046953D01*
X0059926Y0046953D01*
X0057016Y0044042D01*
X0057016Y0041668D01*
X0053319Y0045365D01*
X0053319Y0073025D01*
X0064260Y0083966D01*
X0064543Y0073863D02*
X0054157Y0073863D01*
X0053319Y0071896D02*
X0064543Y0071896D01*
X0064543Y0069929D02*
X0053319Y0069929D01*
X0053319Y0067962D02*
X0064543Y0067962D01*
X0064543Y0065995D02*
X0053319Y0065995D01*
X0053319Y0064028D02*
X0064543Y0064028D01*
X0064543Y0062061D02*
X0053319Y0062061D01*
X0053319Y0060094D02*
X0064543Y0060094D01*
X0064543Y0058127D02*
X0053319Y0058127D01*
X0053319Y0056160D02*
X0059133Y0056160D01*
X0057166Y0054193D02*
X0053319Y0054193D01*
X0053319Y0052226D02*
X0057016Y0052226D01*
X0057016Y0050259D02*
X0053319Y0050259D01*
X0053319Y0048292D02*
X0058650Y0048292D01*
X0059298Y0046325D02*
X0053319Y0046325D01*
X0054326Y0044358D02*
X0057331Y0044358D01*
X0057016Y0042391D02*
X0056293Y0042391D01*
X0064670Y0046325D02*
X0067200Y0046325D01*
X0067331Y0044358D02*
X0066637Y0044358D01*
X0066953Y0042391D02*
X0067016Y0042391D01*
X0067016Y0040424D02*
X0066953Y0040424D01*
X0065483Y0038456D02*
X0068485Y0038456D01*
X0085483Y0038456D02*
X0088485Y0038456D01*
X0087016Y0040424D02*
X0086953Y0040424D01*
X0086953Y0042391D02*
X0087016Y0042391D01*
X0087331Y0044358D02*
X0086637Y0044358D01*
X0110397Y0087632D02*
X0118059Y0087632D01*
X0116189Y0089599D02*
X0109937Y0089599D01*
X0109937Y0091566D02*
X0115721Y0091566D01*
X0116134Y0093533D02*
X0109937Y0093533D01*
X0109937Y0095500D02*
X0117740Y0095500D01*
X0122775Y0095500D02*
X0133473Y0095500D01*
X0134920Y0097000D02*
X0136968Y0097000D01*
X0136968Y0101968D01*
X0132000Y0101968D01*
X0132000Y0099920D01*
X0134920Y0097000D01*
X0134453Y0097467D02*
X0111643Y0097467D01*
X0113610Y0099434D02*
X0132486Y0099434D01*
X0132000Y0101401D02*
X0115577Y0101401D01*
X0117544Y0103368D02*
X0132000Y0103368D01*
X0136968Y0101401D02*
X0137000Y0101401D01*
X0136968Y0099434D02*
X0137000Y0099434D01*
X0136968Y0097467D02*
X0137000Y0097467D01*
X0139516Y0097467D02*
X0141905Y0097467D01*
X0143029Y0098591D02*
X0143029Y0098591D01*
X0142508Y0099434D02*
X0141483Y0099434D01*
X0141968Y0101401D02*
X0142016Y0101401D01*
X0134310Y0087632D02*
X0122457Y0087632D01*
X0156893Y0123038D02*
X0160410Y0123038D01*
X0160547Y0121071D02*
X0158888Y0121071D01*
X0160884Y0119104D02*
X0161546Y0119104D01*
X0158443Y0125005D02*
X0154897Y0125005D01*
X0156476Y0126972D02*
X0152901Y0126972D01*
X0154688Y0128939D02*
X0150906Y0128939D01*
X0148910Y0130906D02*
X0154425Y0130906D01*
X0154425Y0132873D02*
X0146915Y0132873D01*
X0144919Y0134840D02*
X0154425Y0134840D01*
X0154425Y0136807D02*
X0142923Y0136807D01*
X0143168Y0138774D02*
X0140928Y0138774D01*
X0141953Y0140741D02*
X0142016Y0140741D01*
X0142016Y0142708D02*
X0141953Y0142708D01*
X0141320Y0144675D02*
X0142649Y0144675D01*
X0149353Y0146642D02*
X0154616Y0146642D01*
X0154920Y0147000D02*
X0156968Y0147000D01*
X0156968Y0151968D01*
X0152000Y0151968D01*
X0152000Y0149920D01*
X0154920Y0147000D01*
X0153310Y0148609D02*
X0150658Y0148609D01*
X0151968Y0150576D02*
X0152000Y0150576D01*
X0151968Y0152543D02*
X0152000Y0152543D01*
X0152462Y0154510D02*
X0151507Y0154510D01*
X0147000Y0154510D02*
X0146968Y0154510D01*
X0146968Y0152543D02*
X0147000Y0152543D01*
X0146968Y0156477D02*
X0147000Y0156477D01*
X0149582Y0166312D02*
X0161800Y0166312D01*
X0171586Y0158444D02*
X0179165Y0158444D01*
X0174429Y0156477D02*
X0173553Y0156477D01*
X0166968Y0151968D02*
X0166968Y0147000D01*
X0164920Y0147000D01*
X0162000Y0149920D01*
X0162000Y0151968D01*
X0166968Y0151968D01*
X0166968Y0150576D02*
X0167000Y0150576D01*
X0166968Y0148609D02*
X0167000Y0148609D01*
X0169353Y0146642D02*
X0169511Y0146642D01*
X0171953Y0142708D02*
X0172016Y0142708D01*
X0172016Y0140741D02*
X0171953Y0140741D01*
X0170801Y0138774D02*
X0173168Y0138774D01*
X0163168Y0138774D02*
X0160801Y0138774D01*
X0161953Y0140741D02*
X0162016Y0140741D01*
X0162016Y0142708D02*
X0161953Y0142708D01*
X0161320Y0144675D02*
X0162649Y0144675D01*
X0164616Y0146642D02*
X0159353Y0146642D01*
X0160658Y0148609D02*
X0163310Y0148609D01*
X0162000Y0150576D02*
X0161968Y0150576D01*
X0161968Y0152543D02*
X0162000Y0152543D01*
X0162462Y0154510D02*
X0161507Y0154510D01*
X0157000Y0150576D02*
X0156968Y0150576D01*
X0156968Y0148609D02*
X0157000Y0148609D01*
X0152649Y0144675D02*
X0151320Y0144675D01*
X0151953Y0142708D02*
X0152016Y0142708D01*
X0152016Y0140741D02*
X0151953Y0140741D01*
X0150801Y0138774D02*
X0153168Y0138774D01*
X0200000Y0022720D02*
X0013968Y0022720D01*
X0013968Y0020753D02*
X0200000Y0020753D01*
X0200000Y0018786D02*
X0013968Y0018786D01*
X0013968Y0016819D02*
X0200000Y0016819D01*
X0200000Y0014852D02*
X0013968Y0014852D01*
X0013968Y0012885D02*
X0200000Y0012885D01*
X0200000Y0010918D02*
X0013968Y0010918D01*
M02*
