%
M48
M72
T01C0.01969
T02C0.02362
T03C0.03200
T04C0.04000
%
T01
X120258Y91632
X102124Y28112
X26126Y102854
X164264Y170203
X157654Y176669
X167654Y71669
X181904Y76919
X115404Y72169
X96904Y101919
X34654Y69669
X48654Y81919
X36904Y126919
X61904Y131919
X71904Y76919
X51904Y119669
X146904Y121919
X136904Y131919
X61904Y71919
X132654Y171669
X81669Y82181
X165077Y121990
X136894Y67146
T02
X128480Y179484
X128480Y184484
X133480Y179484
X133480Y184484
X138480Y179484
X138480Y184484
X143480Y179484
X143480Y184484
X148480Y179484
X148480Y184484
T03
X106984Y81984
X106984Y111984
T04
X136984Y141984
X136984Y151984
X146984Y141984
X146984Y151984
X156984Y141984
X156984Y151984
X166984Y141984
X166984Y151984
X176984Y141984
X176984Y151984
X36984Y141984
X36984Y151984
X46984Y141984
X46984Y151984
X56984Y141984
X56984Y151984
X61984Y41984
X61984Y51984
X71984Y41984
X71984Y51984
X81984Y41984
X81984Y51984
X91984Y41984
X91984Y51984
X101984Y41984
X101984Y51984
X111984Y41984
X111984Y51984
X121984Y41984
X121984Y51984
X131984Y41984
X131984Y51984
X141984Y41984
X141984Y51984
X151984Y41984
X151984Y51984
X91984Y151984
X101984Y151984
X136984Y91984
X136984Y101984
X146984Y91984
X146984Y101984
X156984Y91984
X156984Y101984
X166984Y91984
X166984Y101984
X176984Y91984
X176984Y101984
X36984Y91984
X36984Y101984
X46984Y91984
X46984Y101984
X56984Y91984
X56984Y101984
X66984Y91984
X66984Y101984
X76984Y91984
X76984Y101984
M30
